<mxfile host="app.diagrams.net" modified="2023-06-09T11:53:21.031Z" agent="Mozilla/5.0 (X11; Ubuntu; Linux x86_64; rv:109.0) Gecko/20100101 Firefox/114.0" etag="IOBCFFE75JV28fqkcKCb" version="21.3.7" type="device">
  <diagram id="jHkrOPYCrmynOUKTDlaP" name="Page-1">
    <mxGraphModel dx="1434" dy="842" grid="1" gridSize="10" guides="1" tooltips="1" connect="1" arrows="1" fold="1" page="1" pageScale="1" pageWidth="850" pageHeight="1100" math="0" shadow="0">
      <root>
        <mxCell id="0" />
        <mxCell id="1" parent="0" />
        <mxCell id="IZiWBFXiaey_TxyXL_8r-38" value="&lt;div&gt;Public&amp;nbsp;&amp;nbsp;&amp;nbsp;&amp;nbsp;&amp;nbsp;&amp;nbsp;&amp;nbsp;&amp;nbsp;&amp;nbsp;&amp;nbsp;&amp;nbsp;&amp;nbsp;&amp;nbsp;&amp;nbsp;&amp;nbsp;&amp;nbsp;&amp;nbsp;&amp;nbsp;&amp;nbsp;&amp;nbsp;&amp;nbsp;&amp;nbsp;&amp;nbsp;&amp;nbsp;&amp;nbsp;&amp;nbsp;&amp;nbsp;&amp;nbsp;&amp;nbsp;&amp;nbsp;&amp;nbsp;&amp;nbsp;&amp;nbsp;&amp;nbsp;&amp;nbsp;&amp;nbsp;&amp;nbsp;&amp;nbsp;&amp;nbsp;&amp;nbsp;&amp;nbsp;&amp;nbsp;&amp;nbsp;&amp;nbsp;&amp;nbsp;&amp;nbsp;&amp;nbsp;&amp;nbsp;&amp;nbsp;&amp;nbsp;&amp;nbsp;&amp;nbsp;&amp;nbsp;&amp;nbsp;&amp;nbsp;&amp;nbsp;&amp;nbsp; &lt;br&gt;&lt;/div&gt;&lt;div&gt;&lt;br&gt;&lt;/div&gt;&lt;div&gt;&lt;br&gt;&lt;/div&gt;&lt;div&gt;&lt;br&gt;&lt;/div&gt;&lt;div&gt;&lt;br&gt;&lt;/div&gt;&lt;div&gt;&lt;br&gt;&lt;/div&gt;&lt;div&gt;&lt;br&gt;&lt;/div&gt;&lt;div&gt;&lt;br&gt;&lt;/div&gt;" style="rounded=0;whiteSpace=wrap;html=1;" parent="1" vertex="1">
          <mxGeometry x="460" y="410" width="230" height="120" as="geometry" />
        </mxCell>
        <mxCell id="IZiWBFXiaey_TxyXL_8r-37" value="&lt;div&gt;Canis Major - Domain&lt;br&gt;&lt;/div&gt;&lt;div&gt;&lt;br&gt;&lt;/div&gt;&lt;div&gt;&lt;br&gt;&lt;/div&gt;&lt;div&gt;&lt;br&gt;&lt;/div&gt;&lt;div&gt;&lt;br&gt;&lt;/div&gt;&lt;div&gt;&lt;br&gt;&lt;/div&gt;&lt;div&gt;&lt;br&gt;&lt;/div&gt;&lt;div&gt;&lt;br&gt;&lt;/div&gt;&lt;div&gt;&lt;br&gt;&lt;/div&gt;&lt;div&gt;&lt;br&gt;&lt;/div&gt;&lt;div&gt;&lt;br&gt;&lt;/div&gt;&lt;div&gt;&lt;br&gt;&lt;/div&gt;&lt;div&gt;&lt;br&gt;&lt;/div&gt;&lt;div&gt;&lt;br&gt;&lt;/div&gt;&lt;div&gt;&lt;br&gt;&lt;/div&gt;&lt;div&gt;&lt;br&gt;&lt;/div&gt;&lt;div&gt;&lt;br&gt;&lt;/div&gt;&lt;div&gt;&lt;br&gt;&lt;/div&gt;&lt;div&gt;&lt;br&gt;&lt;/div&gt;&lt;div&gt;&lt;br&gt;&lt;/div&gt;" style="rounded=0;whiteSpace=wrap;html=1;" parent="1" vertex="1">
          <mxGeometry x="340" y="69" width="360" height="291" as="geometry" />
        </mxCell>
        <mxCell id="IZiWBFXiaey_TxyXL_8r-36" value="&lt;div align=&quot;left&quot;&gt;Client-Domain&amp;nbsp;&amp;nbsp;&amp;nbsp;&amp;nbsp;&amp;nbsp;&amp;nbsp;&amp;nbsp;&amp;nbsp;&amp;nbsp;&amp;nbsp;&amp;nbsp;&amp;nbsp;&amp;nbsp;&amp;nbsp;&amp;nbsp;&amp;nbsp;&amp;nbsp;&amp;nbsp;&amp;nbsp;&amp;nbsp;&amp;nbsp;&amp;nbsp;&amp;nbsp;&amp;nbsp;&amp;nbsp;&amp;nbsp;&amp;nbsp;&amp;nbsp;&amp;nbsp;&amp;nbsp;&amp;nbsp;&amp;nbsp;&amp;nbsp;&amp;nbsp;&amp;nbsp; &lt;br&gt;&lt;/div&gt;&lt;div&gt;&lt;br&gt;&lt;/div&gt;&lt;div&gt;&lt;br&gt;&lt;/div&gt;&lt;div&gt;&lt;br&gt;&lt;/div&gt;&lt;div&gt;&lt;br&gt;&lt;/div&gt;&lt;div&gt;&lt;br&gt;&lt;/div&gt;&lt;div&gt;&lt;br&gt;&lt;/div&gt;&lt;div&gt;&lt;br&gt;&lt;/div&gt;&lt;div&gt;&lt;br&gt;&lt;/div&gt;&lt;div&gt;&lt;br&gt;&lt;/div&gt;" style="rounded=0;whiteSpace=wrap;html=1;" parent="1" vertex="1">
          <mxGeometry x="30" y="89.5" width="200" height="151" as="geometry" />
        </mxCell>
        <mxCell id="IZiWBFXiaey_TxyXL_8r-2" value="ETH-Compatible Node" style="rounded=1;whiteSpace=wrap;html=1;" parent="1" vertex="1">
          <mxGeometry x="507.5" y="440" width="130" height="60" as="geometry" />
        </mxCell>
        <mxCell id="IZiWBFXiaey_TxyXL_8r-5" value="Client" style="rounded=1;whiteSpace=wrap;html=1;" parent="1" vertex="1">
          <mxGeometry x="70" y="130" width="120" height="70" as="geometry" />
        </mxCell>
        <mxCell id="n6Bw79Q_llv1yDib1XSp-5" value="" style="image;aspect=fixed;html=1;points=[];align=center;fontSize=12;image=img/lib/azure2/blockchain/Azure_Blockchain_Service.svg;" vertex="1" parent="1">
          <mxGeometry x="617.5" y="420" width="38" height="38" as="geometry" />
        </mxCell>
        <mxCell id="n6Bw79Q_llv1yDib1XSp-8" value="" style="group" vertex="1" connectable="0" parent="1">
          <mxGeometry x="510" y="100" width="158" height="100" as="geometry" />
        </mxCell>
        <mxCell id="n6Bw79Q_llv1yDib1XSp-19" value="Envoy&amp;nbsp;&amp;nbsp;&amp;nbsp;&amp;nbsp;&amp;nbsp;&amp;nbsp;&amp;nbsp;&amp;nbsp;&amp;nbsp;&amp;nbsp;&amp;nbsp;&amp;nbsp;&amp;nbsp;&amp;nbsp;&amp;nbsp;&amp;nbsp;&amp;nbsp;&amp;nbsp;&amp;nbsp;&amp;nbsp;&amp;nbsp;&amp;nbsp;&amp;nbsp;&amp;nbsp;&amp;nbsp;&amp;nbsp;&amp;nbsp; " style="rounded=1;whiteSpace=wrap;html=1;fillColor=#f8cecc;strokeColor=#b85450;" vertex="1" parent="n6Bw79Q_llv1yDib1XSp-8">
          <mxGeometry x="-80" y="30" width="170" height="70" as="geometry" />
        </mxCell>
        <mxCell id="IZiWBFXiaey_TxyXL_8r-3" value="&lt;div&gt;ContextBroker&lt;/div&gt;&lt;div&gt;(f.e. orion-ld)&lt;br&gt;&lt;/div&gt;" style="rounded=1;whiteSpace=wrap;html=1;" parent="n6Bw79Q_llv1yDib1XSp-8" vertex="1">
          <mxGeometry y="30" width="130" height="70" as="geometry" />
        </mxCell>
        <mxCell id="n6Bw79Q_llv1yDib1XSp-2" value="" style="shape=image;verticalLabelPosition=bottom;labelBackgroundColor=default;verticalAlign=top;aspect=fixed;imageAspect=0;image=data:image/jpeg,/9j/4AAQSkZJRgABAQAAAQABAAD/2wCEAAkGBxAPEBIQEhIVFRUWDxUWDxcWDw8SGBEYFRIWFhUYFRUYHSggGBolHRUVITEhJSkrLi4uFx81ODMsNygtLisBCgoKDg0OGxAQGSsdIB0tKy0tLSstLS0tLSstLSstLS0tLS0tLS0tLSstLSsrLS0tKy0rLS0rLS0tLS0tLS0rLf/AABEIAKMAowMBIgACEQEDEQH/xAAcAAABBQEBAQAAAAAAAAAAAAAAAQMEBQYHAgj/xAA/EAABAwIDBQQIAwYGAwAAAAABAAIDBBEFEiEGMUFRYRMicYEHMlKRobHB0ULh8BQjM1NighZDcnOTsiQ0Y//EABkBAQADAQEAAAAAAAAAAAAAAAACAwQBBf/EACkRAAMAAgECBQQDAQEAAAAAAAABAgMRIRIxBBMiQVEyYXGhQrHBYiP/2gAMAwEAAhEDEQA/AO4oQhACEIQAhCEAiChUWLbT01NcZs7/AGWm9vE7gupNvgjVzK3T0XhRdYmOXEq/1P8Ax4uB1aSOh3nysE5/h1rT36+bNxyyEfUlS6PZsq85vlLj78GzQslDS1sWsFY2YexM3U/3jVTqLaRucQ1MZp5T6ocbsf8A6JNxXHLJzkT78GgQhCiWCJUIQCIQlQCJUiVAIhKhACEIQCIKFQ4ltJDFdrO+7odB4n7KUy29IheSYW6ei8Co8U2np4Lhp7R3Jp0Hi7d81TZa6v39yPza23zcrGmwikowHSHO/hmF9ejeHmrFjmX6uX8IzvNVLcrS+WVpOIYj/wDGI+LQR83/ACU6mwqjotXfvJOFwCb9G7m+aSux2R9wzuDx1PnwVUxrnmwBJJ04klWqG1zwjJWaZfp9VfL/AMReRVU1W4tacjQNedup4parCjG3MHZgN+liveGvipWkPeC8kFwHetbcNFLlxKGVjmh1iQQLhw1VbbVelcF6man1v1fkp4ypUmSVhjlaJGHeDvHUHgVHMTm+sPDkfApyMqykmUw3LGoKp+Hua2RxkpXENjkOrqc8Gyc2cjwWqaQVRsykOY8BzHNs9pFw4KFh9S7D5G00ri6nkNqSUm/Zn+VIfkf0KKk3Y74+xrEJEqrLxEqEIBEJUIBEIQgFSJLqq2jrOyhNj3nd1v1PuXVLb0iF2pl0/YpMcxZ87+whva+U23vP2U/D8Ehpm9rNZzuN9QOgHEpnZGhFjOd98rOnM/T3qHjGI9tIQD3WkhvXqtOtvonsu553V0z52Tmn2RMr8fc7uxjKOZ3n7KBR0j6h5APVxJvZRFYYLXiB5zDuuAvzFtym56J9K5KFk8y15j4J7dnQNXSaAa2bbTxuquoqmi7IhlbuJv3neJ5dFo5KplRFIyN3eynTcVkSPzUcbdb6i3xCmEvL7P3AJ+MphPRlXMyyafAZLxkcnadAV7xSJuXNYA3HBUNLUOYbtNufVWeJy5nMPAsBHndZahq9npRlTxaa5Q3GU7NBHNG6GVuZjhZwPDqORCYjKbrMRbELb3W0HLxUult6RBZFC2xMGr30sraGpdmv/wCnMf8AOaPwPP8AMHx+eoWBM7ahroKgksebtcNDC7g9p4WVzs9jEjZP2KqI7ZrbxSfhqo+D2/1cwq8kOWaMGebXBpUJUKo0iISoQCIQhAFliNqq8SVRgB/hRsLujpLn5BnvW3XIJqvNi+ItO/MzL4RtDPqFdgXrMnjW/KaR0ai/d0II/kucPE3d9VjQVsMLPa0QaN5jczwOoH0WPIV+HvX5MPjPphrtocbJzTijJQVfoxqiZDK5jg5psQdFLrwJB27Ra5tIPZdz8CqoSlP01ZkO64Is8X9YKDl72i2ci10vsInGFeKnuHTUEXafaH3TXb9F3W0R3p8ljGVMqJ2hkZJ/CR7ifuqIzu5/ROP1haeUrx7wz7FRccrZZOXSeiRUYmTozTrxVeT+aRCsUpdiirqnyClANqIxBI4sc12allHrQP4f28x+hFQuVKpaZ3FkrHXUjWbN40+UupqgBlVF/EHCVvCSPm0/BaFc+MbqlrMrslVD3qOXnzik5tO79a6rZ3FxWQCTLleHFk7DvikZo9p/W4rz7hyz3cGVZJ2i3QkQoF4IQhAC4bto40WOPkOjZMjj1a9gaT5EH3LuS5n6acDMsMdYwaxHJLp+Bx0Pk7/srMdaopzx1Q0Xux9cA50JIs7vM8eI93yUfaKhMUpcB3XkuB5HiFgdjccLmtjLrSR27M31c0bvMLrFHVR18Ja7RwHeHFp4OHRaKfRXWuz7nnzPmY/Jr6l2MghSa+jfC8sd4g8COYUZaE01tHn1Ll6fcEIQunCTSuDh2TjvN2H2HfY7vcUw9paS0ixBsehXlWjYf2mPM3+KwAOHGRvA+I3KLfTz7Fkz1rS7oq1oIsJvRl1zf+IBbkCLeYTWF9hC0mdozk91pYSQ23LhfqoEOISMkMjTvdcjgRyIVdOr4n2LoUY1u+d/ohoU6rjbIDLGLD/NZxYeY/p+Sgq1PaM9T0vQIQhdIiseQQRvBuOhVlTVYp6+CoGkdcOynHBtRGO47+4XCrEuLsL8MqS31oJIp4j7LmP1PuDlRnlOdmzwWRzfT8/4dLQo9BUiWKOUbnxsePB7QfqpCwntghCEAqZqadsrHRvAc1zS14I0IIsQnkID512z2Zmwqp7ubsy7NTSDl7J/rHxV/sttIXkOacsrfXHB45+HRdaxrCYa2F8EzczHDzaeDgeBC+f9p9nqjCanKSbXJgkAsHj78x9Fpx5N8Mw58H8pO5wSw4jDycPWHFjvqFl6ykdC8seNeHJw5hZvZbaQkiRhyyN0kbwcPqD8F0xj4cRhzDRw97HcjzCkn5b/AOWUXC8QtPi1+zIITtVTuicWOFiD7+oTS1J77HmtNPTBWOBVfYzNNrh1mHoCRqq5Kx1iD1BXKXUtMljtxSpexLxiUvnkJ9sgeA0HyUNScRH76X/dcfioy5P0oZG3bb+T3DKWOzNOvzHI9E7LGHDOwafjb7H5frxjr3DKWOzN3+GhHI9F1r3QT9n2PCFOmpQ9naxDQfxGbzGfq1QUTTFS57gpFf3MKr5HbnRZB1J7vzeF4p4jI9rG7yUxt9IZ5KXBafe5zXVB9kbxfyzPPgFTnrjpNXg8bdOvj+2bbZAEYfR33/scF/8AiarhNwQhjGsboGtDW9ABYJ1YWe0lpaEQlQh0EIQgEVZj+CQ10LoJm3adxHrMPBzTwKs0IGtnzZtBgdThNVkdzvDIBpI39bwtTsrtKQRKw2cNJWX0cPsup7SYDBiEDoJh1Y4etG7g5v61XAcbwmpwqqMb9HDWNwHdlbzHTmOC048ia0zDmwuX1Sd3IixGAPYQHDceLDxaeiy08Lo3FjhYg6rO7KbTOjcJY+glZfQj9biulzRQ4jCJYz3rd08QfZcpTTxPT+koyY14idri1+zIoXuWIscWuFiD7l4Wo81rXDJeKttM/rY+8A/VRFZY7HaRh5wsPwt9FXKMPcoszLWRoRCksoX2zOswcC85QfAbz5BOxvp49bGU9e4z3bz52R0vbk4sb/lwTtl6V5k7QXDACDyd0V3iGEQvY6zA02JBAtYqgftFPublaNwAbu969RYlUVRENwAT3rCxy8brPcZHXX2N+PLhmPLSdP8AAuFuZSU8tdL6rGHLzPh1JsAqr0X4e+d8+Kz6vme5sXRt++R0uA0dGFRfSHUOqqimwan9ppmPBundB8G5nHyXRqCjZTxMhjFmMYGtHQfVU5L3z8/0a8GJSlK9v7JaEIVRqEQlQgBIlQgESoQgPKpdqtnIcRgMMgsd8bwBmjdzHTmOKu0Ino40mtM+ZsTw+owypMbxZzdQfwyN4EcwVsdlNpzC4SM1abdtHff+fIrpO12zEOJQdm/R7bmGQC5Y76g8QuB11HUYbUuikble06+y9vAg8QVpi1S0zFlxOH1Sd7q6aKvhbNERmI7p3X/pd1VNguHiWcxvBGVpLhuvYgW+KyOyG1Jp3B7e9G4gSsvqOo6j4rpU8TahraqmcM2W7SNzx7J68NV1VULW+H2ZW8cZWr1yu6+SfWUEMgBe0HKNLkiwWaq8VjYbU7GtG7PlBJ8L7k3XY3O9pjcA3g6zXA9QbqqUseFpeoo8R4qaf/mtffXJ6lkc45nEk8STcryhC0mFvYK9pJWUFHLWyb8l2A7z7A8zZV2E0Xbytbw3v6AKs9IVW6urIMKg3Ne0y23AkfJrLnz6LPnrfpN3g8et5H+F+SV6KsLfK6bE5tXyvcIiRwzXkcPPQeBXSFHoKNlPEyFgs1jA1o6AfNSVjp7ez15npWgSoQuEhEJUIAQhIgFQkQgBKkSoBFnNtNlIsThyO7sjQTDJbVh5Hmw8QtIkXU9cnGk1pnzFVQT4fUPilaWvabPbweOBHMHgVt9jdqzSuB1dC8/vG8WnmOvzW+212RixOKx7krQeyktu/pdzafguH4jh9VhsxjmYWn3teObDxWibVLTMWTHUV1Sd4q6CGtjE8LgSRo4bndDyKzdXRSRGz2kcjbQ+BWI2d2plp3ZoH2vq+N2rXeI+oXQcO9I1NILTsdGeJA7Rv3+ClNXHC5RTePHme36a/RWqTR0MkxsxpOup3AeJVz/inCPW7SP/AIZL/wDVVGMekymjaW07HSOtZpI7Ng+p8LBdean2kgvBQnur4+xbYtXQ4PSOeSHSOFmDjI/gP9I4/mqL0UYO9xlxGbV8rnCIkakE3kd5nTyKosGwSrxuo/aapzhCDq62UED8ETeXX5ldfp4GRsaxgDWtaGtA3ADcFnt6492b8cp6aWpXYfQhCrNAIQhACEIQAhIlQCISpEAXXkvCRzUy9hQDpnCbNUFHfEVGkp3ICca4KDicdPVMMU8bZGcnNvY8weB6hRZKR6YdQP5ldOGUxP0Y0r3Zqed8OtwCO0aPA3B95KhxejmovY1cRHWJ9/mtwyhfzUiOleprJS9yt4ofdGSg9GjD69UeuWG3zcVeYTsFh8BDi0yneO0LSB/aAB77q7jgcpLIyuPJT9zqxQuyJcYaAAAAANBawAXu6YYwp1oUCw9oSJUAIQhACEIQCIQhACVCEAJEIQAQvOUIQgELRySZByQhALkHJAaOSEID1ZKAhCAVCEIAQhCAEIQgBCEID//Z;" vertex="1" parent="n6Bw79Q_llv1yDib1XSp-8">
          <mxGeometry x="105" width="53" height="53" as="geometry" />
        </mxCell>
        <mxCell id="IZiWBFXiaey_TxyXL_8r-1" value="CanisMajor" style="rounded=1;whiteSpace=wrap;html=1;" parent="1" vertex="1">
          <mxGeometry x="510" y="237.63819095477388" width="125" height="72.36180904522614" as="geometry" />
        </mxCell>
        <mxCell id="n6Bw79Q_llv1yDib1XSp-3" value="" style="shape=image;verticalLabelPosition=bottom;labelBackgroundColor=default;verticalAlign=top;aspect=fixed;imageAspect=0;image=data:image/png,iVBORw0KGgoAAAANSUhEUgAAAZAAAAGQCAIAAAAP3aGbAABCN0lEQVR4nOzdd3xT5f4H8DOyd7r3orvQlg0yRRHEcRFx4RbH77qvXhfiXji4DtzrKi5AAQFR9pBNKRRauneb7pG9x+8F1d7QnCQnyUmTk37fr/vHNTl58pSmn5zznOf5PgybzYYAAAAdYIHuAAAAkAWBBQCgDQgsAABtQGABAGgDAgsAQBsQWAAA2oDAAgDQBgQWAIA2ILAAALQBgQUAoA0ILAAAbUBgAQBoAwILAEAbEFgAANqAwAIA0AYEFgCANiCwAAC0AYEFAKANCCwAAG1AYAEAaAMCCwBAGxBYAADagMACANAGBBYAgDYgsAAAtAGBBQCgDQgsAABtQGABAGgDAgsAQBsQWAAA2oDAAgDQBgQWAIA2ILAAALQBgQUAoA0ILAAAbUBgAQBoAwILAEAbEFgAANqAwAIA0AYEFgCANiCwAAC0AYEFAKANCCwAAG1AYAEAaAMCCwBAGxBYAADagMACANAGBBYAgDYgsAAAtAGBBQCgDQgsAABtQGABAGgDAgsAQBsQWAAA2oDAAgDQBgQWAIA2ILAAALQBgQUAoA0ILAAAbUBgAQBoAwILAEAbEFgAANqAwAIA0AYEFgCANiCwAAC0AYEFAKANCCwAAG1AYAEAaAMCCwBAGxBYAADagMACANAGBBYAgDYgsAAAtAGBBQCgDQgsAABtQGABAGgDAgsAQBsQWAAA2oDAAgDQBgQWAIA2ILAAALQBgQUAoA0ILAAAbUBgAQBoAwILAEAbEFgAANqAwAIA0AYEFgCANiCwAAC0AYEFAKANRqA7AEYEK4KojCaN2aI2mTUmi9ZsNlitBovVaLGarDarzWax2QYPxjEUQ1AmhrJxnINjHAbOxTEBkyFkMkQsBgfHA/qjgECCwAJ+0W8wtWp0NQpNo0rboNI0a3R2ieQTAZORJuRliAUZYn6mWBDBYVHTLqAD1EbV5wiMVJ06Q5tG367963/demOXzqAxW5wdz8YxPgMXMBk8Bs7Bcdb5Mykmhp47t0JRHENNVqvNhpisNpPVqrdY9Bar7typmUVpMpmsQz+uQiYjhsuO4XFieOxEPjeCw0oScEUspv9/bhAAEFjAG2arrUKuOtTRd6izT2E0uT44gc/JlghThbyU8/8TMr0/r5cbTU0qbZVCXaPQVCvU/Qbit04W8ubGR16WEAnXjyEGAguQ1aTS1io1dUpNw7mrPK3W4RwKR9EEPidRwI3lcWJ5HCmbGc1lR3LYbJz43o7WbNGazWqTxWA5dyZltFot50+gzDYbAz2HgaFsbGAMCxcycT6TgaOofQtyg6lTZ2jX6ls1+ma1tkWt69YbjVbrwLMogqQIeekifq5UmCsVxvA4qN/+ccDwgMACbmjNlt+aO35r6pQ7OZNi49j4CMnM2PDJUdIhgWLPakNkGl25XHUu8pTaRrXWYLF61BMcRWN47FEifpZYkCkRZIkFjsfYEORIR98frV2lfUrrhZ/tDBH/hvT4CZFSuDVOXxBYgIDGbDnbpyzrV5b1ncsXx49IHI+TJRFkigXpIn6SgMtlXHDlZUWQPr2hW29sVuta1brzY1uGTp1h8NzHERvHeAycjWEsHBtMPZPVZrFZ9War1mJxTDcmhsZwOXF8TiKfmyzkpgp5SQLe4LMKo6laoS7rU1XIVbVKjfnvwa9oLrswXDw2Qjw+QuLs1A8ELQgscAGl0by6pmVHaxfhsyiCXBofuTgtLpbHITygS2fY29azp62nXat38S4sDEsT8bIkgjQhP0XIi+dxWO6yQ2+xtqp1DSpttUJdKVc1q3WOH1wRi1EYLr46KSZTcsHJV7tW/1Ot7EBHr/3kCRaO3ZOdPC8hyvX7gqACgQXOqVNqTnTLS3oV5f0qxw9EioBXGCEaEyYaLRUNOZlCEKRFrTvbr6qSq6oU6jaN3vEkisvAUwS8JAE3WcCN43PieJwIDouBESeU2WrTWyymc5dztvMzm1E2jrFxHLvwWlNrNndoDc1qXZNaW6fU1irUarsxtVgeO1ciHBshyQ8TSdh/3THs0RtPdMuPdPWV9CgGf8ZIDmtadNjsuIhUER9GuIIfBNZIVyVXf17ZWKPQED5bGC6+MyspVcgjfPZgR+/aOlmTWues8cJw8ZXJ0WPDxUwn8TQwK6KsT1kpVzeotO1avcpkdjwGQ9FIDitRwM0QC/IkwrwwoeNg2ZHOvnX1bXXKC34QFoZdmRy9ODVOYHdrst9geudMbWmf0v7ImTHhD49Oc3uiBwILAmuEatPoD3X2Hunsr1dphsxtwlE0SyKYGCGZFCVNEHCHBIPSaC7pVZzsOXc61ucwq4CDY9kSYZ5UOCZMFMfnSBzmQ6lM5jqlpvH8oHvz+eEtFzO2nMFRNI7PSRHwRol42RLhKBF/cDRKZTKf7JEXd8uLexSD2SdkMiZGSmbHRRSGiwceGZiWsUfWvb+91/z3nwCPgc+Nj5yfGB3PJ77gBQEHgTXi6C3WT8ob9rb1ED6bLOQ9nJeaQXQDTme2bG7q2NjY7jihYWDU/PLE6GtSYqVs4kmbdUrNr43thzv7HCd/+kjCYi5Oixsy60plMn9X07K9pcv+zdKEvCcLM+LsBuD6DaZXT1UNOcG8LSNxcVoctZ0ElIDAGilMVuvZftVeWc+hzj7Hu3USFnNadNj02LA8qcjxtSW9ikMdfce7+vsdZjbgKDohUjI1SjouQiJxiCq9xVLRry7ukRf3yNs0er9+1KRs5qRIaZ5UOClKyvt7oK1Jpd0p697X3qM0/nW2xWfgM2LCr0iKTv77OtdgsR7p7Pu1sb1epR1sLVMsWJQSc1FMuD+7DDwGgTUidOuNb5XUVCnUjk9hKHJZQtRtGYkCognojSrtytK6Jru/ZHsTIyWPjhlFOHPdZkOOdvV9WdnUrTdS8RN4IJ7PWT42y/6yrltnePFkVYvdWBsLw+7LSZmbEDn4iMlq/ba6ZXNTh31T4yLETxZk8BzuM4BAgcAKZQaLtUKu2tnafbCj1/HXLGUxZ8SGz42PTCYaUz/e3b+ztftUj8LxdIyNY3PiIubERWaIBUNu3tkQpFah3i3r+bOjV000fD48UORcCt+UHh/G/mtptBVBtjd3/lQns5/+OiFScmtGov0thRPd/T/UyuxH7pMF3BtGxU+Jkjq7rQmGEwRWyDrdq3ijpIZwvAlBkKnR0vtzU8VEi4Q7tPoVJTX1Ts6qxkWIny7MIFyjZ0OQD8vqd8q6fe47NXAUfX1STo5EOPiIyWp95nhF9YVnmo/nj5oVG2H/yPuldbsvHOO7Iin6vpwU/3cZuAGBFYJO9yq2Nnee6JGbHYa3GRg6IUJyRVJ0wd/3y+y1qHW/t3T+2d5LOLcgP0x0dXLMuAix47mGwWL9vblzc1NHr2G4LwBdE7MYS9IT5sZHMf4+FZQbTGvrZdtbugZvDrIxbF5i1PVpcYM1HowW605Z17q6Nvsxu4Jw0Z2ZSWkifiB+DvAXCKyQojGZ3y+rP9rVT/gsjqLLx2aOj5QQPrunreeT8gbC9X2OIz72mtW6Z4sq3NZsCKA7MxOvSb3grt+6Otn3ta32j0yIlDw/Lsv+kUq56qnj5fZ/H3wG/taUvEQ+1+89Bk5AYIUItcm8p637t+bODq3B8VkOjl2ZFLMwJcaxUJQNQc72KdfVy0p6lY4vZKDo1OiwxamxqURnFmqT+feWcydWg/fgghMbx27PTFqQGD044ma2Wrc0dfxYJ7MP6GyJ4JHRafF2edSi1q06W18p/98lJBND785Kvjwpelh/APA3CKxQ0G8wLT9R0eJkxnmqkPfqxBxnVah+rG1dUydz1vKDeamXOVltZ0OQ54oqzvQRxFxweqYwY2p0mP0jv9S3ra5psX8kVch7d+pozG4avdxgevhw6ZBKFTeMir85PcH/XQZDQWDRm8Zs2dDQtqmxg7AQQpqINz06fF5ClJBFkFaVctV3Na2lThJntFR4Z1YS4QxSBEHO9Co+Lm9sc7nCOdgk8DlvTs6zD26jxfpNdfNvzZ32h6UJec8UZkbz2IOPqEzmt07XnL7wDPSqpOi7c1Jg+eEwg8CisRqFZvmJCp2T+4CXxEU+MibN2WsPtPe+V1bnbNL5lCjpEwXpzhYAVivUzxZVeFrNKhiMDhO9PjFnyIMvFVcV98jtHxkfIXlh/AXjWQqj6YFDZ4Zc+c6KDX8sPx0yazjhL774YqD7ADymNJp+aWj/vLKJcNZCLI99T3bKtWmxhOX0NCbzF5WNq2taCcMKR9HbMhPvy0lxVopvR2vXGyU1lC+vGR5dOkOaiJ9w4ah5koC7r73HbPfN3a7V9xtMBeHiwRoRHByfFRtR2qe0v2/YpNZpzZZxEcQ3MYA/QGDRj95iWX6i8kBHL+FlYASHtWJSXp6UoJ7BQGmEBw6VVsgJprwPDE6/PjF3RqzT9SjHu/pXnqmj35mVHaPVOvPCH1DKZiXwuQc7+uwfrFVqpGxmpt0VMY+Bp4n4O1ovmGVWpVDbEGRMGMF6JuAPMHmXZna2di3dXzKkiMqgfyTHfDK9gHDnKxuCFHXLXzxR6WwCupjFeLogI0tCPGiFIMif7T2vl9TQ8szKTkmvols39Ebq1Oiw8RFDJ6atb2jvvPDITLFgWWHmkJU6a+pkWy8cBQP+A4FFG2ar7d3SulVnGwhndTJQ9NmxmUuzk52V/d0j637lZJXMyTC5mMX4cFq+sylaCIL0GYwflTda6T/iabBYf25oc3x8gcNMhR69cdnx8iGTb6dES69wOPLrqqZWjdOiYIBCEFj0INPoXiyudFYTJpLDenZs5uQoKeGzRov1l/q2zysanTUuYDKeLEgnXKYzoEWte+xImbPRfdrZ19bj+LMUhItHOcw169Ybt7cOPXu6OjkmTXTB6kuT1fb0sXJnvx1AIQgsGjjbr7r/4BlnM54SBdzPZhS6ODlaVy9bXdOic3JTj8vA35s6ekwYwUqdQT/UtjrW6qMvvcXa7DBnjYVhD+WlOh48pH7D+bNR5opJuUMuDJUm87uldbVOLtUBVSCwgp3hfL09F1did2UlMTCn99Zb1LotLkdYLouPjOKyXRzQozcWdROv9aGvPqI1j2kifrjD8F+71lDm8FXBwfEJRN8QcJLlbxBYQW11dct1u4ocTwcGTI2Wbp43ebyT2+oqk/n2fScfOHTGxaXcA3mpS7OTXXSgSaW9a/8pmk5icMHZlNdZRHdIlxVVdDqM09+fm8pxGC7c0tTx36pm6roJhoLACl5n+1WbmtqdPYuj6C3piS5e/ltTh7Od3AeMEvHdbnJ1POTOrQY4m/UazyNe2FwpVw15hMfAF6bEOh65qamD8PQNUAICK0j92ti+7Hi5s1ObUSLeh9PGJAqI/7qsNmRzU8f6BqdhN7CI957sJNd90FssQ6YdhQxngZUhJq4ec6Szz/HB69PiEhy2q7DabOvrCe5CAkpAYAWjtXWyr6uanV2G4Sj6REFGvPMiJwc7er+sbHKxzTKCIA+PHpVLVL79wm60OV4KhQbMyTz+RD6XcMLtyR6F45QOBobNjSc4Rf2jpat32AtDjxAQWEHn2+rmHy4s1WQvgc9ZNW1MnJONlxEEaVBpv6l2M4wyIyaccLDGXpfOsKnR1TkarTGd3KbAMTQ/nCDH9Rbrr0T/GhfFSB2bMttsr5yq0ltCZBZIUIHACi7vl9W7vpT715hRCc7PrfoMxieOnu1x9/V+/Sj3e1gd7+4303+aqDPOiu0gCJLlpEDFxsah8xsQBInmcq5MinF8vF6pPeakjCLwBQRWEPlvVdNu5wXRxSzGyxOyndV7GfBFhZsrQQRB7slOThYQ7+Rs73Svwu0x9EW4emlAkpORQYXR1EhU5/66tDg+0bY6O1q6fOsjIACBFSy+rW4h/A4fdFtGUiFRIfZBW5o6DjmMDdtsNp1cLW/q7C5vajtRzWvuviqZ4IzA0ZHyZnPoDsS4uKZ2kWWEgSVgMggXP5f2q+phHinVnJ4Yg+G0rk62nmiB2wAMQa5Ni58TF+Gihe3Hyh//+nedUmtU64wavUlrMGv1Jp3ReuEkrCWv3EmqPwdLty7/GkEQFMcYHBaTy2bxOUwBh8XnsgRcjojHFvHZYh5HzOeGiRhcFupkDDs4iZiMOOeb0bOINgQa4GxCXEG4iLCO/rul9Sun5LGcrO4EXoDACrwjnf3fOx9lPz+yG35rhpuCvI++9kNNab3rY5gc1t3XziLTpc83HBj4PzaL1aTRmzR6bY/TK0SOmB+WHheWkRCVk8SLkgR/eM2Jj3RWm9C1Dif3TJ3db21Sa8/2q8Y61IEAXoPACrDDHb1vn6kjfMpms2m7FXyb7faZhS5asNps//fGD5Xu0gpBkDdfvlPkchXOoDMna8gcNkCv0LQV17QVn3sJg8vmR4r5URJBTBhXIhDESAUxYSwno0IBwcKwf7i8KHaxMKBHTxxYiXxuFJfVpSO4gj7R0w+BRSEIrEBSmcyrzjZYLrwZZ7Na+2rbWo9Vtp+ssVosZ3atjHaZMtuOV37xxVa37xWVEPmv62aT6ZXFautt9XLA2KwzKJq7FM0XvFySEp0wJTd2bDrHybTM4ZQrFTouGLTX73yeurOVAwwMvTguci3RXh7F3Yp7sr3qKCACgRUwMo3+heJKzfnvc22Por+xU97YoWzpVrR2mzR/rXT79yPX5ia6WT3z4Td/kHm7RXPHk+xYt0JtpbReu/zcj9Z5dt0+XoRYkhwtTo6WnPtfFO68oI3/TI0mLsIzqMHJltcD25o5e2pGTDhhYLVp9Wf6FPkui2EA8iCwAua/VU2dWn3LobP1e06p2nodDwhLiHjtwWtcN/Ln2YY/theRebvpU/NIdkzrn0oyNqtN0yXXdMllRVUIgqAomjA1Z9TcCcLYMH+8HSEcRWfGurp3MbC1h7OnnO37PzAZIlnIayIKu/X17RBYVIHACgC9yfzkqg1rdhX31bVZnGxBGhYpPvjjcyyiCT6DelXaGx54DyExu5PBYV42eehuMc7wOMNx4mOz2VoOl7ccLudHSsIy4sLS4yMyE7jhIv+N2WMo8mRBOuGcqUEmq7XCYZ3zINf/0oVhIsLAKulV9OmNYS6vQwFJEFgB8MXGA6tWbXR9zCNLF+S4uxj8advxjiZSg03jp+dHEm3dTChSxEfR4dv/TdMt13TLWw6Xn4vpjPichdPC0uIQP6RWYbh4yEaqjjq0Bq+3L8sLE21yqPY3EHNVCvVUzvCdSIYwCKzhVtHa9foHG1wfE5Mcfe/1F7tt6uffjpB804eWXELyyPPr6bCo5OhOl7NY/aSvRnbo7XX8aGlUTlJEbnJkThLufA2NRzAUWZzqfkGSs909/mrE5WudrekZGBdzm5WADAisYaU1mCYvel7V7WrVC8bAd69eFiMVum6qtr33wMEyMm/K4DBvvnisR/0cNzHrj0AE1gBNZ39DZ3/DvtM4k5F9zbS0OZ51ntAdmUmjSWzG5brGMdv5nNLz24UxmRhKWBGI8FIReAHm4A6r5z/+1XVaIQhy/TXTc5PcXAwiCHLDk5/a3C0bHBAV46Ywg6NHbpzj6Uv8wWIyn123f/u/Pzv17Y6O03VmbwvjTYsOIyy258ixGrI9LsPN34uAQXwG0ORkijzwFJxhDR9Zn/KDz39ze9g9Sy51e8ypOtlJcqdXCIIkxHkcWPPGZUqjpf2dQVFvwKjWtR4pbz1Szg0T5l47M3ZcukcD8xwcuzfHVRnoQe1afb3LUyEJ283tCB4Tt98aelCnzmC12ZwV4QLkwRnWMCmqbpm0+EWTu+XEi66ffXFhutvWdpNOKwRB4ryaaT1vRr4Xr/IrXZ+q+Iut+17+rnrrMXUHQQlQR3E8zrtTx0jZ7u/Q2RDkk3KnO6ENkLLctONsf3+LzValIN5tG3gEAmuYzL3tjTaXha7OXVCECde/eR+Zb+FdR86Sf+tIlxVpnFlwKdmJpsNM3d5XteXIvpe/O/3dTqOGeC+JQY+OSYt3vs7ZXqNKW+Kuoo7rJQcuAgtBkDO9ri42AUkQWMOhtVehIHF5teQf08i0ZkOQY8XV5N9d4NUMoEWzCjJGE+zTFyRsVlvzobP7XlpdumavvJFgH7NYHmfFpNxsiZt7F4P2k9ihK4bnJrBczAWBYSxKQGANh0vuXUnmsMVXTiVz2M5TNXLntRMceTdywuew9q9+huFu1CawDEpt477TB1b8VPzl7/ZnWziKPlOYkevuTusgG4Lsa3cfWC5qvQ4wOQ8sGexlTwUILP+yIciiJz+rJlH8IH9SzhwSo1cIgqz8bodHfTB6u8V8rFR4/12Xe/faYdZ2onrfy9+VbzjYXd40Riz4ZHpBitB9VdUBNgT5+GwDma2th+xQ78jofNJpm1YfsgWnhxEEln/tKq7e+PM+MkeuXnEPTq5I08G9JR71oUvu/XDvG48slnp+kzEgDApN3Y4T6hPVywoz3F672auUq7aTqE6RJuSFuRu8d7HY0GCxmshNQwEuQGD515c/7SZz2OjCUQWppCYKVct6tB4GUJsn149D8NjM05tey8tL8bqFYTNufMbmH5eX/rCc7+GY3UZ3N0MGuJ0or7dYXASW6/MvQBIElh/1KLXrNx8mc+R1pG/JnSX312WvldwMAGcSI8Sr33uQqiUyfoEiV94058iaF64iXZFi0KHOPsLqxkMIGPh0dxujtWrcXPSF3o7/ww8Cy1/MFuv8+9+1OK+gZG/8+EySzXZ4vnlUu6zH7Nt3+7j0+OLtb40bl+FLI/6A4dikqbmbvn1my+v3uK5sQahGoX7XSbnXIfJdbv8xoNrdma/jVqzAUxBY/rKjuKr4EKnpnRwRb/4ksrVfFH1Oi584Y9Dot56o8vRVQxSkxu5evSwtf5SP7VAIZzE+ef+hYz8+d7W3c1y/r2l1uyvagAmRErfHnO5zc+kNM919B4HlL79sJltK4YYb55AcbkcQRK91M1WS0Ntf/e7Fq4aQ8Dm1m159/fnbBGFkpwv4BYomZya8+PRNbcc/vfeKKd61YbJav6hsOkVu70UWho1zd4ZlttrK3H2XMCCwfAaB5S/rtx8neeSr915Jvlm5ypvpPId3FfdSUTAARZBn7rxcXvTpjEvH+d6aF1gC7kfvPdC4/e0X7rs6yocK8Ttbu7cQ1a4itCg11m35vXK5SuXu8p+JQ2D5KohHUuls+Ve/K8ndm4tNjk4gMT4yyLv6xTabbdO+kruuusiL1zrCMWz3J49tPnx2za8HNm8rMjrZ/IpCEbFh82cUXDa74LpLxnNYvn5oV287/t/TtcJCUpe34WzWIhI3cPc637J7AANDWZjHo2xgCAgs6mn0xjffWUvy4PzsJD935y9bd5+kKrDOnSww8Gtn5l87M9/wpuXO179bs3onyVo3nsrIT1v20KJb54wlf9Xs2oYDZ27/57vnvirGpo+9cz7uLv5mxIZzXJbBQhDEiiAHHPbcHiKay8bgBMtnEFjU27CvhPwm7+OzEj1q3It7YQO27z3V0NGXGkNx3Us2E//xhTs+fOz6Pw6fLT1Tt7u4uqK6RdPv5VRVFMOkUeLs9ISZBaNGZSbMGJeZlRBJYW9/P17x0LIvB/5/+6labe+67IXTInOSnNWrYaDopfFuNq1AEKReoXE7xyrW+eb4gDwILOodPV5B/uCE5GiPGg8TerkpqUapvfLRD8+ued67l7sWJuTdPG8iMm/iwH8W1bR+u+14aVVLRVlDT3OX6/LwTA4rOiVmdF7KpRflLZk9NtZvI/q/H6u44saX7R9RNHcd+2Bj9sJpGfMnEr7k2rS4JIH7JT4u9q0Y5HYdIiADAot6W/afJn9woocLX9hc7zdfKT9WsX7vqWs9LJfshYkZCRP/3lvfZLG29So7+pRqnUHz92gXk8HgcZgSIS82TBQh5GH+v1j6bkfREy99S/hU5abD8sbO7H9cNGTDsTQh74a0eDKNV/S7D6w80iuxgQsQWBQrqmltqfdgMnpGomdnWAKxT5/71z7dPAyBZY+JY8lRkuQo9/OY/GfVL/sefuIzp0/bbB0ltf31bdOeuIEf+b8bIFenxDLIJWlpv/taV2QqygO3YFoDxZZ/vIn8wRgDT3O3EfEQUZE+bcl5qqjq/jd/soyYVbi9Su3j76z99/P/dXukQand99Lq2h0nBi5gx0dIppHb52ZHa5fCyeaSg8Qshuv9EAFJEFhU0hlNu0hvvYUgiChSzPTwc5yVEuN5v+zYbJ98unn1NrJzxOhu4cMf/OejX406UvdArGZLxYaDRR9vDsPx58dlsXH3fx0Wm+3b6ha3h8XxYACLGhBYVCqpa7N6UnxK4Hnx4lFUFHv57EdSNSRoTW8yT733nYOejCcO6CxtiKtrIzkpvVWjcztfFEGQSB9GHoE9CCwqlbjbxWCISM9HdsQ8TkaBrwv6jh0qu+rhD7pDdFsEG4L8eqh0+k2vHN1Z7MXLY5KiyU9YO0yuEkYS3CKkCAQWlZo8GW4/lz6kt4+3d/PiWV68aojfthx59M2ffG8nCD3+/vprbnm92JOy94M4Au6ZLa+lx7mfezXgkLv5ogOSSZc/Ba5BYFHpUFm9R8ezWd5UTH944XQ2uZ1gXPtp7d4bn/ys1YfyfkGlS65e8fUfhYtfePf99V43suLZmyNJf4vsb+9pJre1hNvayoAkmNZApco6z86wMK9Ww0oF3Pz8tKIj5V681p7Nalv78776lq7jPz3nY1MBV93WO+fW12QenuEOcd3t8x658RKSB2vMlvdKSX0/ZUkEkRwPSjYDF+AMizJ6o7m/S+7RS9Rqb2rFIAhyxUzKdjktOlqeeOnjm//0eHA6GNjO1x27/vGPc2Y94mNaLfzHtLUv3kH++D2ybgu5gnxXJ/t2YxfYgcCizI5TNSTriw7S6b2sc7BgDpXVXVrr2hbe+dY9K9fSqyCmxWpd8MiqeYtf/HnDAY9uzjoKT4hc/cY9Hp3u7nJXnmEAl4FPj6HHLh60AIFFmS0Hz3j6ks52L6utT8xMnDGXyp2ZbVbrlx/+OvXGl7/fUeT1tmDDw2i2/Hqo9I5lXwoL795GrmS+a1Mm51RufUPobldne2vqZA3k6osVhImgRgOFYAyLMmVV7icQDtFNYvNOZ7atekRSeLeJdFkIMo4dqzh2rOKjWQW7P3ucF5RbqP55tmHp01/UljVQ1SBPIlz34SMRntyubVBpf6xtJXnw2AifViaAIeAMizItjWQrWA7SK7RybzcE5rGZN1wz3bvXunZ0/2np2HtufebzDQfOGDy8yPWTHUWVz32wPufKZ2ZduYzCtJo8Oady59uJHmbKyvV/IqQvngvCILCohLou/QHIY+XeYfK89uahrW9clOvlrn9HK5unXv6Ud68lKSEj/q1nb7lpVqFf38WF5/+77f1PNyk9vJtBhjQuvHLriiiJZ4sN1v55+sbbVyTPzM+/aQ7i7mJvXITkxfFZPvUSXAgCixp6k5mbeasXL1z96WO3ziMuxkTGUx/9+tbKdYiff4mxSVGXz8ifPCFz2rjM3KRo/w3K2BCkRtZzrLS+qqJpx/HK02fqjFq/1F++8oop3795n9jD6WynamUXLXpef370Ku3S8XnXznCRWUwMfW/qmEQBzHGnEoxhUUOh8XKCQhu5m03OvPnAwj0Hz5w46kHJQC+0N3d9/cOur3/YhSBIfHr81VdN/dfiWRmkp4OTcaCs4dNNh3bvOtHZ2Elhs4QWXDdr04r7vCjC9fpHv+r/Hmuv31Vss1pGXz/b2cF5UhGkFeUgsKih8nYjBi+G6odY8fgN8295zezV5hRekNXKPnn3l0/f3yCOEKUkRY9OixuVECEJF4eHC8OlwiipMEzIE/M5UgF3cBs+o9miN5p6VTq5Wtsj13T3q/r7VYo+VUdXf0VLV21TZ0d7r96r3YA8xWAxXnzqpmfvWuDFa99bt2/j1qP2jzTsKWHy2FlXTiU8nmR1GuARCCxqWL3dhfzYWc/WSzu6ZELWFx8+cuc97/jYjkdsVqu8S17SJS/xeYvWYSMMEx7Z+EpekmcVEwfsKK7+11MEJQCrfzvGEfGTHebx4ijqdmt74AW4SxhgjXVtXT5XTbjj0vH3LvXmrGGEQDFsziXj9v/0vHdppTWYnn3jB2fPnvlxT/PBoVt8P5CXChX7/AECK8BMeuPLq3f43s7Hy25OL0ynokch6MnHrtv95RNjMxO8eK0NQSbc/voJl7UfStfsVbb8bywyVci7NJ7KzX7AIAgsaoh43q9uXbNmj87o6wgUjmFn1j5/GaXT30PA+PGZ67995o0HFnrdwpPv/VJxrNL1MVaz5eA762r+OG49v9nXZQlRXr8dcA0CixoeTZUeoretdycVI0FcFvOX9x+KGRXne1MhAMXQJUsXHF37wqKZ+V7Pw/jlYOnKVRvJHGkxmCo3HZYdq+Ax8EtIbGUIvAOBRQ0GjvGkHtc7HrT3QCkl3RBy2fW/r1i8eCYlrdEUhmPTZ+b/9v2zPyy/lUGiLrszv+w5eePStzza0bp667Gn89Pd7hQNvAaBRRmJD6vG1m47RlU3uCzmurf/eZNXd+5DAIqhH7z9fwe+fWbB1Dxf2unoV93x708t7rbDGWL6hKzCyEBuaBbyILAok+PtChsEQdobO1eu20tVT1AE+fG5Wz955588sfcXqrQzOj/tgxX31hz68IFrZvjY1J+narLnPaEhsT2qPRTD/r30Ch/fGrgGgUWZKb7dpHv6hW8UWi+nyxP6v2tn9hz/9IrrL6awzeDE5nOefeH2M5tee+iGi0fF+DpdU2swLXrwfUW3x5Wjr7tt7tyJsHLQvyCwKHP1RT5dg5j1xo/W7KGuO8j5y0PGb2/e++On/8rIS6a25SCRmh7/ytNLSre//eod8ylZ4XjwdF3SnH/1tvV6+sKlSxd8v9ybxaTAI7D4mUrcMXfpye1KQCguNUa2511Ke/Q/97+15pNPPNiVOsiJIsTPP7PkX9fMwEjuIEhCj0qbOfff/Z39nr4wc3Rq1ZbXqeoGcAHOsKiUlOzNROpBbQ0dd72y2utVPq59/OSN+ze/tuSGixksGq/HYnJYCy6f9PE7/6zd9c7ji2ZSmFab9pekznrUi7RCMXTF49dR1Q3gGpxhUem6xz76ZeNBHxvZ+N2yhdPHUNQjAgqtfv797x31fEvkwEIx9Ppb5n67/DY2k/pJA9uKq6++9XUvypmduxh86JovH7ue8i4BQhBYVFrx1e/PvPqdj41MnZp74PtnccyPJ78Wq3XXyZrfdhT9vK2os6XLf2/ku6j4iEsvypszfcw/Zo+N8M/ufi98uvnVleu828bikjljd371JFRtHzYQWFT67Wj5VTe94ns7C2++dOOrS6nokXtf/nFs2Zs/dTf5vQqVpwqn5b3x2PXzx2X67y0sVuvcRz/cu+WIdy9HMbR45ztj02BpwfCBwKKSUquPmvRPg7fF/Ox9s+rh250UWvKHP8/UHT5euf9E1eHiamWA9oIWhovyshLnjM/KyUu+eGJ2fJjIr293tqnzoRe/2buvxLuX88X87z96dOG00VT3C7gCgUWxq575/Lc1FEwBFYQJZQdXiTzZe4oqO0/VrPxh18E9pzydOemdyMTI6bMKHr1xzsy81GF4uwFbj5VfffNrA2uVvfPCUze9+H9XU9op4B4EFsXqOvqyZz9KSf3PmOTo3d88nZsSmH2DjWZLaWPH2VqZrLmrtrmzsrmzpa23p1uuV+s9Wl43iCPgSsJFMVGStLiInJSY6NjwpITIcVmJnm5a46MuuXrV9zvf+2qrWq7xsgkUufbaWV+/dIeI51lJeOA7CCzq5V/7fOnJGkqaumj6mEPfLaOkKapoDaYTta3HK5vrZT1tnf2d3XKN1mAymfVag9VqZXNYOAPncJjhUpFYxIsME2UlR49Nj5+UmRgMGx2aLJZx179U5ttvZ/qsggPfPE1dp4AHILCo98LHv7789lqqWpt72YSvXl2aCEtqfWNDkA9+3P38uz/7OEIXnxa77csnRqfGUtc14AEILOqV1LeNveRxChucPWfs3q+epLDBkUbWq7zotteby5t8bCciPkK27z0W1D4OHJjpTr3CtLg5CyZT2OC+Paem3vJaZXPQzTwIft0Kzdvfbpu4cLnvacUT89e8+wCkVWDBGZZfaA0mSeHdJr2RwjaT0uOrtq7g0HlhzTBr6VFMX/JKc43M96a4Il7Z9rfTfC4FAXwEZ1h+wWMzb1g4ndo2m2tlMdMf+mV3MbXNhqSS+ra7Xvhv6rQHqUqrn1Y9AmkVDOAMy192FldftvgFyptFcezxJ298+96rKG85ZPz7ww0rV/5MVWtcEe/UH29lxcEmg0EBAstfrFbb9cu+WL+Wsjqi9hZcPumtp5bk+VYcIsQUVTZ/t/7PTftKmmspOKsaIAgXrXn/oStgOnvQgMDyr8hpD/Z4Xg2ODBRFP33/wXuvusgfjdOLXK275ZXvfl+/3+bDzHVH0uiw2l3vhAm4FLYJfARjWP61eN5EP7Vss9keevrzr3cU+al9uqiS9Uy5+bWt6/ZSm1YIgrz42GJIq2ADZ1j+Vd7UMXnR8+o+Py7Km3Nx4X23zVs0I9+XLa1op7Nf9fOu4p9/O3LgYKmN6pKHMfERby6/9db5k6BuTLCBwPK7fWX1l1zzvHfllsi7ZP6k7R894tcqWkFCZzQ9/832Tz7dpOlX+6N9nMXYt+Hl6cO4EhuQB4E1HLYcOXv1klf9/S5cIXfJNTNuXjRzVn4ahbWDg4TeZN647/Su/SW/7iru87yQMUkzZ+Z//trdWQmRfmof+AgCa5gIxt07PNVaEASZOCN/47sPxIf7t57UsLHabI+u2vDpJ5upnYjraOYVU3a99yAT5rIHMQisYVLW1HnP8q+OHqRmS3q3UBybOX3M1ZeOz8tOurgwnY4LSvadrj16onrH4bJDR8uNWm+qrZPH4rJefmrJU7fP8+u7AN9BYA2rlHlPNFW3DvObxqXFPvf49ffMn0SLES6dwfTsV1u/+na7sks+PO8YFiMt2vgqTGSnBQisYXWgpPbyO9/UyP0yWuyaOEI8eVzGnCm54/JHTc1LEXBYw98HQlqD6Vhlc1llU3ll856iqtqqFn/foBiEsxjXL5z+3AMLc5JgCi49QGANt/qOvtxLH6ek7rvXOALu5NkFT94+b8GE7ED1wWK1fvnH8e+3HjlxoNSX3Wd98d5b9z1y3eyAvDXwDgRWAPy0vej2Rz/09xAyGRwhNyUlpiAzcXR6fHRceEpCZF5KTBzVuz90KdQ1sp665q7O9l5Ze++ZurbKurZOWc+wnUk5uvjiwuceWXxxwahAdQB4BwIrMA5XNs++5rlgyCxHPKkgPjU2Mz1hXF7ypJzk0UnRydFSkrMk1Hrjqfq2klpZRWNHS3tvVWVLS0ObXqH1d5/Jw5mMp5fd/Ood8wPdEeANCKyAWber+I7HP9Ypg+iP2RkUx9hcNovNZLKYDAaOM3AGAzOb/1oKYzKZjAaTUW8yGU1moxkJ1k8UhmMzZua/+NCi2WMzAt0X4CUIrEBq71dlX/ZEoPYBHFFQDP1w5f33U12kDAwzGtznDmGxUuGOb57OK4SRFD/CWYw7b7us8s8PIK1CAJxhBYXLH3hv2+/HAt2LEDQqN3nvt88M89aHwH8gsIKCXKN7/7udKz/bogrEFK2QVFCYfu8tc2+5fBJsdxpKILCCyN7TtfNuetWk8+8ylJDHFXKfeXrJ8iWXhtr6bwCBFWw6+lXL3vv5mx92U16OLuThTMbkKTmXTxtz09UXjYqFEuyhCQIrGBXVtM6//Y2+9r5Ad4Q2RFHSNR8+fPnEgE3cB8MDAitINXX2f75mz2c/7u7t8lftpxDAFXDnXlx445VTb7h0AobBJWDog8AKarJexYJHPjxzqCzQHQk6KIZOnDP2x5fvgqu/EQUCiwa2HCz9ct3e7btPGvxcFooWxhSm3zB/0oJLxo1Njw90X8Bwg8CijVN1bTc++Wn1yZpAdyRgRk/M/uq1pZMyEgLdERAwEFg0s6u46tffj639/VhPx4gYkmfz2OPHZ149e+ylM8eMS0+AYaoRDgKLloxmy4q1e979YIN8uMpyDj9RhPimJZe8cteCSDE/0H0BwQICi8aUWv1vh8/+eaj0j4NlrQ3tVvpP3RKGCQtGp14yKWfSxKzZBek8NjPQPQLBBQIrRBRVtzz23i9Hd580G82B7os3xk4f/fjSBTfOLKBF4XkQKBBYIaW9X7X/VE352cb9J6tPlzUqgrVwDZPNjE+OnjImrSAnOSszYWZheriQF+hOARqAwAplxXWyXw+Wbdh6pOJEdTD8osXR0inTRt+0YPLiaWP4QbMLBqARCKwRQWswHSlvrGvu7GzrrW7qLG9ob23vVfSp/LEXBophAqkgLEwUJuFnJUXnpsRIo6SJ8RFjRsXBVlrARxBYI5qsT7mtqOrg6dqGlq42WW9PR5+iR2E1kR0FQ3FMIBWGRUvj4iMS4yLy0uPnjE2fnpvi516DkQsCCwyl0Oo1eqNSa9AZTFqDccgHhM3ERXwOj80S8zl8NhPGyMFwgsACANAGfD0CAGgDAgsAQBsQWAAA2oDAAgDQBgQWAIA2ILAAALQBgQUAoA0ILAAAbUBgAQBoAwILAEAbEFgAANqAwAIA0AYEFgCANiCwAAC0AYEFAKANCCwAAG0wAt2B4dbW2X/0VE15rayptbu7T2WxWgdqZmIYKhJwEQRhsxhcDhtFUbGQK+BxpGI+n8eJjhDFRUtjo6QDxwCqmK22aoW6Tqnp1BnkRpOBaGtFHgOXsJkxXHamWJAm5KPU7f5ssdn6DaYevUFuNCuMJqXRrDNbDFar1mTWWawWu9qWTAwVsZhhbFYsj50q4CUM78dAbjRVytXNam23zqgwmmz/6xXGws79c6AoymPg5z69GMZj4jwc5zBwMYsRxmZJWUxJCG3vGPqBZbZYtv95ZtfB0iMna8qqWjQ6gy+tffHGvXffeLGLA3YfLrvtXx/3ytUD/4miSEyk5Il7r7z/1svItG9FkGePl1cr1IOPcHD81ozE+YlRnnb1VI/i/bI6lV2BdgaGLUqJvWFUvKdNlfUp/1NapzCaBh+J4rKfLshI9mpvLp3ZcrSr/0yfskahbtXorJ6UvGViaLKAlyURFIaLJ0RIcMyb9CrtU66ubmnT6jVms0fvbt+NWB4nkc9NE/FyJMJMsYCFU3mxYkOQJpX2RLf8bL+qQaXpM5h8aS1dzP/PlNHU9S6QQjywTp1tvOrut2UdfVQ12NrR6/qA7zYcaOvqt3+ksbV75ZdbSQZWr954tl9l/4jJai7ukXsRWKV9yiEfdJPVUiFXedrOuab6lT16o/0jMo3+cGefF4F1rKt/RUmNxdvC3CarrVapqVVqtjZ3iliMF8dlp3u+kf3GxvYqu68E77rRrNY1q3WHOs99tCI4rLuzk6dGhVFy9mdDkFVl9btk3RS0dV6tQkNVUwEXsoGlVOve/mzLh6u3y5XaQPcFsZDeRJ7CEvtU1uqnoq1evfH72tb9bT1ep9UQSqN5+YmKK5NiFqXG8BgefJL1VO/p36M3riipETAZlydG/SM5VsTy/s+qqKv/i8qmDt+uA0JYyA66L3t7zasfbgyGtAIDVp2t3y3rNlO66YnWbFlXL/umuoXCNr2mNpl/rm+7689T9Uovz2hqlZoVp2sgrVwIzcBa9c22z3/a7Y+WUQqHfEcMs9X6SXnDSb/tm7+ztfv35k4/Ne4po8X66qnqou5+T19Yo1A/W1Rh8m5QzaVQ+siG4CXhmcrmh1/61vUxGIYmxIRJxQIBn8MgPVyK49jlswup6OPIUtKr/KOly8UBEhYzXcyXsJgCJoN74a9Da7aoTOY+g6laodaaLYQvt9hsn1Y05oUJkwXe3AQYxGPgIhaDi+NsHGNcuN+i7nw3evVGMtezPXrjKyer35iUkycVkX/3DQ3tOic/4AAUQcI5LCGTwWHguCdfnFOjpOQPDnIhGFjfrv+T8PExWYm3XDMjLyNhdFZiQmwY7AA6bHY6GT/OFPPnJ0aPCRNFc9lk2mlV60p6Fb+3dLYS7bC/q7V7aXay1518uiD9ophw18dYbTaVydytN8o0unqltqxfWafUODsl+qqy+c3JuUxyHzOZRl/ULXd8nI1jl8RFjo8UJwt4EVw2fGRDMLC27jnl+GD2qLiDv7wEs6iGn8lqLSb6U0wScF+dmMPBcfJNJQi4CQLutJjwfx487Xi2dayr35fAwkics2AoKmYxxSxmuog/K/bcIyU9itdLqglH8WuVmu9qWu/KSiLz7j/UthqtQxsRMhnvXzQmgsMi+zOMAKEW2ZV1bTUN7UMeTI6POLz+ZUirgNje2uX4pxjLZa+YlOtRWg2Sspn/mTJayBz6XduhM9T6NlnBC4UR4v/OGjsnLoLw2c1NHa1qndtGVCbz0U6CmTdL0uMhrYYItcDauL3I6jDKcOWccVLPZ+sASuxsJbgenB4bLnBIHPLi+JyJkRLHx3dQN3eJPD6T8fDoUVkSgeNTVpvtOInR91aNjvDm6bRoN5eoI1CoBdb+Y+WOD47OSgxEXwCiNVsaVQQzS3KI/rw9kiMROj54ym83Il3DUOSl8dkF4QRD7GRmqHYRzWNIEnBDaUkNVUItsEqrCKbkxMeEBaIvAOnVGwmHpBN9u513vgWCC/xOnaHft1UsXuMx8Mfz0x2HwcjMMlcYzY4PjhLBNQGBUAusnj6CpSccFnxTBYb9SkZ7Up/PHZy1INO4HzPyEwmL6ZgyvQaj3uJqsgKCIHqi2QwiHy6ZQ1ioBZaR6C+EyfRmcBf4Tkf0t8pj4Cyf55TwnazF6bpwzeMwS3I477PakAaii2J7hHO7BqovgCFCLbBAUDET3e/3Zbh9ENNJnQaju9MZv5IQncv36QNzlRqSILCAH1G/zORvzgrLGP2wtIU8NtGqCbWZ+LoYeAECCwD/cpxnA7wGgQUAZQiXLnO9mh8LCEFgAUAZpYlguCqGR2qlJCADAgsAynQSTQFNFcKMKspAYAFADYPF6li6L4bLJhyJB96Bf0oAqLG1uVNlGjqpAiasUwsCCwAK7Gvv+bG21fHx0WEe1PADbsH0fwB8Vd6v+s+ZOsKnJodQtc9gMCIC69GXV0tEvq62RRAkMlz0+hM3ZqTEUNEpEAp0ZsuBjt61dTLCZ+/KSvK6oNXutp7SPqVvvUMG5rJenhg9KVRyc0QE1umKJqqaKsxJfvbBa6hqDdDa2X7VJ+UNzU5K9OVKhQtTYr1uvEtnICw744WSXuXGyyZR0lTAjYjAopDJ5TYBgAyl0fRxeYOPjVC1ueGgGoWGeX69z0AVdgaKDhRNZmKo7XyhZ6PFpjGbFUZzt84g0+oHttd31hqfgd+RGSxV2Cj/twogCCww3PQW6zaXm+gExM8NbYivKfoXLgP/z9TRsTwONc0BOxBYnsGcrLkFYEAin3tfbnJQpVUofWQhsDwzqSA90F0AwWtWbPjj+UH3CZmfGB3oLlBmRATW7dfOTEmI9L2d/Oyk+bMKqOgRCDUsDLsiKfrmjASqGhwdJhojJahb7ykxi3k5BBa93LF41uwpuYHuBQhB0Vx2nlQ4LkIyOUpK7RKcMVLhTemUxV/IGBGBBYCfLE6Nm5cYFehejCAQWGC4RXJYn8zw9craaLEu2VNMUY/OuS8neUyYyGixWWw2o9U6sPmrzYaYz/+fDp3h66pmx1dtbuqYHRcBy5uHDQQWGG4oivq+CQXlwtmsJJebj1XJ1Ycc9mdu0ei+qmq6PzfVz70Dfwm6zw0Awemh0WlxRJMVtrV0UbKGBpABgQUAKTwGfmUS8e22Xxvbh707IxQEVnBhoASz/AaGUQIItlEYMDsuwnHnQQRBTvYoDnb0BqJHIw4EVnBhE22faQl0XJiJOsAeeXsrCJiMVybkMBxWO1hstrdP11Yr1AHq1wgCgRVc2ERrfwJ+hkXYAf6I3JpYymbOSyCYx2BDkNdPVfcGdN/pkQACK7gwMJTjcOZiCHRgEe5eFe5tpSe6u8ZJ0Zg+g2l7a9At6g4xEFhBh88cGlhqU4C3DlYR7V4VxR2hu1dFcdmPjk4jXAW/vbULTrL8CgIr6EjZzCGPKIwBDqx+hw5gKJJINPw8QsyJjywMFzs+3m8wvXaqOhA9GikgsIJOOHvopZbWbOnQ6gPUnXO6HSrVhbFZoVS0xAsLk4kvDGuVmn1tPb63H0pV9ygEgRV0YohmJx7rlgeiL8hAXDqW1iScQjmiFEaIL46LIHxqU1OHR00xieb96ywBHrgMThBYQSeBT5AF21u6AvWVu7W50/HBeKJOjjT/zE0h/GXVKTWEW345wyFaiqgwEIwbAgisoJNOtPVmq0bnuKvwMDBZrevqCbaESRcJhr8zwYaD41clEW+htKZOVqMg+/sSO4xaIghSE4hfd/CDwAo6iQIu4Q24PVSMjHjqz/ZeA9G1SbYEAuucWXERaULiJdPk1+vEEP2627X6wA5cBicIrKDDxLCbRsU7Pr6tpatJpR3OnlhtNsId97IlgpF8i9Aej4G/NCGbSTTH4UBHL8m570kCHuEdjMOd/b73MMRAYAWjWbHhjt+6FpvtyePlw7ZmrVaheexIWYfDcDsLw+7LSRmePtCCmMVc4KQGMcm572wcI6wCuLGxbV9bjynQ04aDCgRWMGJgGOEdKJ3Z8tbp2jdKqvv9OSJrslp/aWh7+nh5PdEJ3dgI8SiiUbaRbGFKLOEpEvm573dlJTmepimM5v+U1j19rPxkj9xMtNhgBIICfkFqXmLU7rYewr1/j3T2n+xRjBLxE/icMDaLy8BxFLXYbAaLVWe2qE1mhcncozO0EY2AnO5V/vPg6WguW8xiCpkMHgPn4BgDw6w2m9Fi7Tea2rX6WqVG6WSqKoYiC2GnfgfhHNa/89PfL6s3OpwNbW/tmpcQ5XYZEwfHZ8dG7JR1Oz5Vo9S8WFzFxrFwNkvAZLAwlIF5tttcIp+7NDvZgxcEMQisIBXGZr05KfefB0/rica8DRZreb+qvF/labMWm02m0cs0Xo7m/l9Oap5U5N1rQ9uM2HCtxfLR2aF7sQ7Mff/P1NFuW7h+VPzuth5nlXwMFivhNxAZJ3sUIRNYcEkYvMI5rIfy0ggHdANiUUrsfNhwwbl5CVFjiNKc5Nz3aC77rcm5sbwRukKTJAisoDYjNvy9qWOEzACfCKMIcm9O8h1ZSYHtRvBbmEp8vUxy7numWLB8bJYg0L/uYBZqgcUlGixgswgm5vkJn2hOjUTkancD1xIF3Dcn516RFC1mefM5xlAkWyKYFRse4VU1GBaGXRQd9urEnCudzJB0zbHW3cBUAC+aGgJDUcLqrGSqdBEegxO15qmx4ZIZMeGOj9cpNdtbSI2+Jwq4X84svC0jESaOEAq1LP/4lbuWPvWZ1e6WyoyJ2RPz04atA0/+39XfbvhTo/3fYDmbxVz57K2+tJnA596Xk3JLesKW5s4tTR0qEtVmcBSdFCWZGx81Okw0sPLDhiA1CvWOlq6DnX1as8VtC0wMnRYTvmRUPOHaRpLypKIIDqvH7tY+hiJLqThTY6DoLRmJ31Q3X/h2wtlO1vfZuyUj8WSP3L7Il5jFzKVim2UGhj5RkN6q0TU43GAlzG5CPAa+OC1ucVrcmV7lzw2ysj6Vj6uyokOoEBBqC7lF4d29Ss3fN9cYOBYfE07Fd6cH+uRqpVo3+J8RYUIBdUuFTVZrm0bfrtX3GUxas2Vgkg6Oovj5yn8CJi5hMSM57GguG3f+F9KtN3TpjHKDUWWyaM1mqw0ZbIfDwKVsZhSHnSjgUnIqZLba+gzGwQ8ZB8fE1J3w9hmMg7mDoUgEh03yV600mnWWv1IbPV/Sh3AFsneMFqvSZLIvbM1E0TBv6x1qzOZ2jaHHYFQYTVqTRW8Z+mWDoyj290ccx1AcRZkYysQwBopyz98FThPxAz6qQJUQDCwAQKgKtTEsAEAIg8ACANAGBBYAgDYgsAAAtAGBBQCgDQgsAABtQGABAGgDAgsAQBsQWAAA2oDAAgDQBgQWAIA2ILAAALQBgQUAoA0ILAAAbUBgAQBoAwILAEAbEFgAANqAwAIA0AYEFgCANiCwAAC0AYEFAKANCCwAAG1AYAEAaAMCCwBAGxBYAADagMACANAGBBYAgDYgsAAAtAGBBQCgDQgsAABtQGABAGgDAgsAQBsQWAAA2oDAAgDQBgQWAIA2ILAAALQBgQUAoA0ILAAAbUBgAQBoAwILAEAbEFgAANqAwAIA0AYEFgCANiCwAAC0AYEFAKANCCwAAG1AYAEAaAMCCwBAGxBYAADagMACANAGBBYAgDYgsAAAtAGBBQCgDQgsAABtQGABAGgDAgsAQBsQWAAA2oDAAgDQBgQWAIA2ILAAALQBgQUAoA0ILAAAbUBgAQBoAwILAEAbEFgAANqAwAIA0AYEFgCANiCwAAC0AYEFAKANCCwAAG1AYAEAaAMCCwBAGxBYAADagMACANAGBBYAgDYgsAAAtAGBBQCgDQgsAABtQGABAGgDAgsAQBsQWAAA2oDAAgDQBgQWAIA2ILAAALQBgQUAoA0ILAAAbUBgAQBoAwILAEAbEFgAANqAwAIA0Mb/BwAA//91d0tBhQUU2AAAAABJRU5ErkJggg==;" vertex="1" parent="1">
          <mxGeometry x="617.5" y="220" width="45.5" height="45.5" as="geometry" />
        </mxCell>
        <mxCell id="n6Bw79Q_llv1yDib1XSp-16" value="" style="endArrow=classic;html=1;rounded=0;exitX=0.5;exitY=1;exitDx=0;exitDy=0;entryX=0.5;entryY=0;entryDx=0;entryDy=0;" edge="1" parent="1" source="IZiWBFXiaey_TxyXL_8r-1" target="IZiWBFXiaey_TxyXL_8r-2">
          <mxGeometry width="50" height="50" relative="1" as="geometry">
            <mxPoint x="300" y="400" as="sourcePoint" />
            <mxPoint x="350" y="350" as="targetPoint" />
          </mxGeometry>
        </mxCell>
        <mxCell id="n6Bw79Q_llv1yDib1XSp-17" value="" style="endArrow=classic;startArrow=classic;html=1;rounded=0;entryX=0.5;entryY=1;entryDx=0;entryDy=0;" edge="1" parent="1" source="IZiWBFXiaey_TxyXL_8r-1" target="IZiWBFXiaey_TxyXL_8r-3">
          <mxGeometry width="50" height="50" relative="1" as="geometry">
            <mxPoint x="210" y="480" as="sourcePoint" />
            <mxPoint x="260" y="430" as="targetPoint" />
          </mxGeometry>
        </mxCell>
        <mxCell id="n6Bw79Q_llv1yDib1XSp-20" value="" style="shape=image;verticalLabelPosition=bottom;labelBackgroundColor=default;verticalAlign=top;aspect=fixed;imageAspect=0;image=data:image/png,iVBORw0KGgoAAAANSUhEUgAABwkAAAcJCAYAAAAMDS0dAAAACXBIWXMAAC4jAAAuIwF4pT92AAAgAElEQVR42uzdv3FbWYI94LNbP7+ZgRQBxAxEH4aYgWDAb2TQYAagj6qlMiAN+EQGJCIgMiAi6J9x32g0PRIEkiDen/t9VVO7Y0zt9pEG7xbOuwf/8/fffwcAAAAAAACox/+KAAAAAAAAAOqiJAQAAAAAAIDKKAkBAAAAAACgMkpCAAAAAAAAqIySEAAAAAAAACqjJAQAAAAAAIDKKAkBAAAAAACgMkpCAAAAAAAAqIySEAAAAAAAACqjJAQAAAAAAIDKKAkBAAAAAACgMkpCAAAAAAAAqIySEAAAAAAAACqjJAQAAAAAAIDKKAkBAAAAAACgMkpCAAAAAAAAqIySEAAAAAAAACqjJAQAAAAAAIDKKAkBAAAAAACgMkpCAAAAAAAAqIySEAAAAAAAACqjJAQAAAAAAIDKKAkBAAAAAACgMkpCAAAAAAAAqIySEAAAAAAAACqjJAQAAAAAAIDKKAkBAAAAAACgMkpCAAAAAAAAqIySEAAAAAAAACqjJAQAAAAAAIDKKAkBAAAAAACgMkpCAAAAAAAAqIySEAAAAAAAACqjJAQAAAAAAIDKKAkBAAAAAACgMkpCAAAAAAAAqIySEAAAAAAAACqjJAQAAAAAAIDKKAkBAAAAAACgMkpCAAAAAAAAqIySEAAAAAAAACqjJAQAAAAAAIDKKAkBAAAAAACgMkpCAAAAAAAAqIySEAAAAAAAACqjJAQAAAAAAIDKKAkBAAAAAACgMkpCAAAAAAAAqIySEAAAAAAAACqjJAQAAAAAAIDKKAkBAAAAAACgMkpCAAAAAAAAqIySEAAAAAAAACqjJAQAAAAAAIDKKAkBAAAAAACgMkpCAAAAAAAAqIySEAAAAAAAACqjJAQAAAAAAIDKKAkBAAAAAACgMkpCAAAAAAAAqIySEAAAAAAAACqjJAQAAAAAAIDKKAkBAAAAAACgMkpCAAAAAAAAqIySEAAAAAAAACqjJAQAAAAAAIDKKAkBAAAAAACgMkpCAAAAAAAAqIySEAAAAAAAACqjJAQAAAAAAIDKKAkBAAAAAACgMkpCAAAAAAAAqIySEAAAAAAAACqjJAQAAAAAAIDKKAkBAAAAAACgMkpCAAAAAAAAqIySEAAAAAAAACqjJAQAAAAAAIDKKAkBAAAAAACgMkpCAAAAAAAAqIySEAAAAAAAACqjJAQAAAAAAIDKKAkBAAAAAACgMkpCAAAAAAAAqIySEAAAAAAAACqjJAQAAAAAAIDKKAkBAAAAAACgMkpCAAAAAAAAqIySEAAAAAAAACqjJAQAAAAAAIDKKAkBAAAAAACgMkpCAAAAAAAAqIySEAAAAAAAACqjJAQAAAAAAIDKKAkBAAAAAACgMkpCAAAAAAAAqIySEAAAAAAAACqjJAQAAAAAAIDKKAkBAAAAAACgMkpCAAAAAAAAqIySEAAAAAAAACqjJAQAAAAAAIDKKAkBAAAAAACgMkpCAAAAAAAAqIySEAAAAAAAACqjJAQAAAAAAIDKKAkBAAAAAACgMkpCAAAAAAAAqIySEAAAAAAAACqjJAQAAAAAAIDKKAkBAAAAAACgMkpCAAAAAAAAqIySEAAAAAAAACqjJAQAAAAAAIDKKAkBAAAAAACgMkpCAAAAAAAAqIySEAAAAAAAACqjJAQAAAAAAIDKKAkBAAAAAACgMkpCAAAAAAAAqIySEAAAAAAAACqjJAQAAAAAAIDKKAkBAAAAAACgMkpCAAAAAAAAqIySEAAAAAAAACqjJAQAAAAAAIDKKAkBAAAAAACgMkpCAAAAAAAAqIySEAAAAAAAACqjJAQAAAAAAIDKKAkBAAAAAACgMkpCAAAAAAAAqIySEAAAAAAAACqjJAQAAAAAAIDKKAkBAAAAAACgMkpCAAAAAAAAqIySEAAAAAAAACqjJAQAAAAAAIDKKAkBAAAAAACgMkpCAAAAAAAAqIySEAAAAAAAACqjJAQAAAAAAIDKKAkBAAAAAACgMkpCAAAAAAAAqIySEAAAAAAAACqjJAQAAAAAAIDKKAkBAAAAAACgMkpCAAAAAAAAqIySEAAAAAAAACqjJAQAAAAAAIDKKAkBAAAAAACgMkpCAAAAAAAAqIySEAAAAAAAACqjJAQAAAAAAIDKKAkBAAAAAACgMkpCAAAAAAAAqIySEAAAAAAAACqjJAQAAAAAAIDKKAkBAAAAAACgMkpCAAAAAAAAqIySEAAAAAAAACqjJAQAAAAAAIDKKAkBAAAAAACgMkpCAAAAAAAAqIySEAAAAAAAACqjJAQAAAAAAIDKKAkBAAAAAACgMkpCAAAAAAAAqIySEAAAAAAAACqjJAQAAAAAAIDKKAkBAAAAAACgMkpCAAAAAAAAqIySEAAAAAAAACqjJAQAAAAAAIDKKAkBAAAAAACgMkpCAAAAAAAAqIySEAAAAAAAACqjJAQAAAAAAIDKKAkBAAAAAACgMkpCAAAAAAAAqIySEAAAAAAAACqjJAQAAAAAAIDKKAkBAAAAAACgMkpCAAAAAAAAqIySEAAAAAAAACqjJAQAAAAAAIDKKAkBAAAAAACgMkpCAAAAAAAAqIySEAAAAAAAACqjJAQAAAAAAIDKKAkBAAAAAACgMkpCAAAAAAAAqIySEAAAAAAAACqjJAQAAAAAAIDKKAkBAAAAAACgMkpCAAAAAAAAqIySEAAAAAAAACqjJAQAAAAAAIDKKAkBAAAAAACgMkpCAAAAAAAAqIySEAAAAAAAACqjJAQAAAAAAIDKKAkBAAAAAACgMkpCAAAAAAAAqIySEAAAAAAAACqjJAQAAAAAAIDKKAkBAAAAAACgMkpCAAAAAAAAqIySEAAAAAAAACqjJAQAAAAAAIDKKAkBAAAAAACgMkpCAAAAAAAAqIySEAAAAAAAACqjJAQAAAAAAIDKKAkBAAAAAACgMkpCAAAAAAAAqIySEAAAAAAAACqjJAQAAAAAAIDKKAkBAAAAAACgMkpCAAAAAAAAqIySEAAAAAAAACqjJAQAAAAAAIDKKAkBAAAAAACgMkpCAAAAAAAAqIySEAAAAAAAACqjJAQAAAAAAIDKKAkBAAAAAACgMkpCAAAAAAAAqIySEAAAAAAAACqjJAQAAAAAAIDKKAkBAAAAAACgMkpCAAAAAAAAqIySEAAAAAAAACqjJAQAAAAAAIDKKAkBAAAAAACgMkpCAAAAAAAAqIySEAAAAAAAACqjJAQAAAAAAIDKKAkBAAAAAACgMkpCAAAAAAAAqIySEAAAAAAAACrz/0QAAAAAwD9txsvzJGfNv7044D/ynOThX//7aDV9kCIAQHf9z99//y0FAAAAgAptxsuzJOcpJeDH5l/nSf444v+ZdZKn5l/3SZ5Gq+mT9AEA2qUkBAAAAKhEUwpeppSC50k+tfT/yi6lMHxIcj9aTe/96QAAnJaSEAAAAGDAmtnQiySTtFcK/s6/SsPblNLwyZ8cAMD7UhICAAAADMxmvPyYcmNwku4Wg/s8JrlJcqswBAB4H0pCAAAAgIHYjJcXSWZJvgzoH2udfxeGz/6UAQCOQ0kIAAAA0GM//M7gPMmHAf+j7lLmSOduFwIAvJ2SEAAAAKCHmknRWcqk6B+V/eOvU8rCe38TAABeR0kIAAAA0CMDnRR9LWUhAMArKQkBAAAAemAzXk5SysFP0vgvykIAgBdSEgIAAAB0VDMpOkkpB/+QyG+tk8xGq+mDKAAA9lMSAgAAAHRMMyk6SfJVGq9ynXKz8FkUAAA/pyQEAAAA6AiToke1S7lVeCMKAID/piQEAAAAaJFJ0Xe3TjIZraZPogAA+DclIQAAAEALNuPleUoxaFL0NK6SLEyQAgAUSkIAAACAE2omRSdJPkvj5LYptwrvRQEA1E5JCAAAAPDONuPlWcqtwUmSDxJp3V1KWehWIQBQLSUhAAAAwDsxKdppuyTz0Wq6EAUAUCMlIQAAAMCRmRTtlceUW4UPogAAaqIkBAAAADgCk6K9d51ys9AEKQBQBSUhAAAAwBtsxsuPSeYxKToE2ySz0Wp6KwoAYOiUhAAAAACvsBkvL1NuDpoUHZ67lLLwSRQAwFApCQEAAAAO1EyKTlLKQZOiw7ZLshitpnNRAABDpCQEAAAA+I0fJkUvk/whkao8ptwqvBcFADAkSkIAAACAXzApyg+uk8xHq+mzKACAIVASAgAAAPzApCh77FJuFd6IAgDoOyUhAAAAQL5Pis5SCkKTouyzTjIZraZPogAA+kpJCAAAAFRtM15epJSDX6TBC12NVtO5GACAPlISAgAAANVpJkUvk8xjUpS32abcKrwXBQDQJ0pCAAAAoBomRXlH31J+r/BZFABAHygJAQAAgMEzKcqJ7JLMR6vpQhQAQNcpCQEAAIDB2oyXk5gU5fTWKbcKH0QBAHSVkhAAAAAYlGZSdJJyc9CkKG26SrIwQQoAdJGSEAAAABiEZlJ0kuSrNOiQbcqtwltRAABdoiQEAAAAeq2ZFJ0l+SQNOuwupSx8EgUA0AVKQgAAAKB3TIrSU7sk89FquhAFANA2JSEAAADQGyZFGYjHlFuF96IAANqiJAQAAAA6z6QoA3WdcrPwWRQAwKkpCQEAAIBO2oyXZynF4CTJB4kwULskk9FqeisKAOCUlIQAAABAp2zGy/OUctCkKDVZp5SFT6IAAE5BSQgAAAB0QjMpOknyWRpUapdkMVpN56IAAN6bkhAAAABojUlR+Kltyq3Ce1EAAO9FSQgAAACcnElROMi3JLPRavosCgDg2JSEAAAAwMlsxsvLlHLQpCgcZpdSFN6IAgA4JiUhAAAA8K6aSdFJSjloUhReZ51SFj6IAgA4BiUhAAAA8C424+XHJPMkl0n+kAgcxVWShQlSAOCtlIQAAADAUZkUhXe3TTIZrab3ogAAXktJCAAAALyZSVFoxV1KWehWIQDwYkpCAAAA4NVMikLrdknmo9V0IQoA4CWUhAAAAMCLbcbLi5Rbg1+kAZ3wmHKr8EEUAMAhlIQAAADAQZpJ0cuUm4MmRaGbrlNuFpogBQD2UhICAAAAezWTorOU3xw0KQrdt00yG62mt6IAAH5FSQgAAAD8lElR6L11ygTpkygAgH9SEgIAAADfmRSFwdklWYxW07koAIAfKQkBAAAAk6IwfI8pE6T3ogAAEiUhAAAAVK2ZFJ0k+SoNqMK3lLLwWRQAUDclIQAAAFRoM15OUm4OfpIGVGeXUhTeiAIA6qUkBAAAgEo0k6KTlHLQpCiwTjIZraZPogCA+igJAQAAYOBMigK/cTVaTediAIC6KAkBAABgoEyKAi+wTblVeC8KAKiDkhAAAAAGZDNenqUUgyZFgde4SykLn0UBAMOmJAQAAIAB2IyX5ynFoElR4K12Seaj1XQhCgAYLiUhAAAA9FgzKTpJ8lkawJGtk8xGq+mDKABgeJSEAAAA0DM/TIpOknyQCPDOrlNuFpogBYABURICAABAT5gUBVq0TblVeCsKABgGJSEAAAB0nElRoEPuUsrCJ1EAQL8pCQEAAKCDTIoCHbZLshitpnNRAEB/KQkBAACgQzbj5cck8ySXSf6QCNBhjym3Cu9FAQD9oyQEAACADtiMl5cpNwdNigJ9c51kPlpNn0UBAP2hJAQAAICWNJOik5Ry0KQo0Ge7JJPRanorCgDoByUhAAAAnJhJUWDA1ill4ZMoAKDblIQAAABwIiZFgYpcjVbTuRgAoLuUhAAAAPCOmknRy5SbgyZFgZpsU24V3osCALpHSQgAAADvoJkUnaX85qBJUaBm35LMRqvpsygAoDuUhAAAAHBEm/HyIqUc/CINgO92Seaj1XQhCgDoBiUhAAAAvJFJUYCDrVNuFT6IAgDapSQEAACAVzIpCvBqV0kWJkgBoD1KQgAAAHghk6IAR7FNMhmtpveiAIDTUxICAADAgTbj5SSlHPwkDYCjuUuZIH0SBQCcjpIQAAAA9mgmRScp5aBJUYD3sUsyH62mC1EAwGkoCQEAAOAnmknRSZKv0gA4mceUCdIHUQDA+1ISAgAAwA9MigJ0wnXKzcJnUQDA+1ASAgAAUD2TogCdtEu5VXgrCgA4PiUhAAAA1TIpCtAL65Sy8EkUAHA8SkIAAACq00yKTpJ8lgZAL+ySLEar6VwUAHAcSkIAAACqsBkvz1LmRCdJPkgEoJe2KbcK70UBAG+jJAQAAGDQNuPleUo5aFIUYDi+JZmNVtNnUQDA6ygJAQAAGCSTogCDt0spCm9EAQAvpyQEAABgMEyKAlRpnTJB+iQKADickhAAAIDe24yXH5PMY1IUoGZXSRYmSAHgMEpCAAAAemszXl6m3Bw0KQpAkmxTbhXeiwIA9lMSAgAA0CvNpOgkpRw0KQrAz9yllIVuFQLALygJAQAA6IUfJkUvk/whEQB+Y5dkPlpNF6IAgP+mJAQAAKDTTIoC8EaPKbcKH0QBAP+mJAQAAKBzTIoC8A6uU24WmiAFgCgJAQAA6JBmUnSWUhCaFAXg2LZJZqPV9FYUANROSQgAAEDrNuPlRUo5+EUaAJzAXUpZ+CQKAGqlJAQAAKAVzaToZZJ5TIoCcHq7JIvRajoXBQA1UhICAABwUiZFAeiYx5RbhfeiAKAmSkIAAABOwqQoAB13nWQ+Wk2fRQFADZSEAAAAvBuTogD0zC7lVuGNKAAYOiUhAAAAR9dMik5Sbg6aFAWgb9ZJJqPV9EkUAAyVkhAAAICjaSZFJ0m+SgOAAbgaraZzMQAwREpCAAAA3mwzXk5Sbg1+kgYAA7NNuVV4LwoAhkRJCAAAwKuYFAWgMncpZeGzKAAYAiUhAAAAL2JSFICK7ZLMR6vpQhQA9J2SEAAAgIOYFAWA79ZJZqPV9EEUAPSVkhAAAIBf2oyXZynF4CTJB4kAwH+4SrIwQQpAHykJAQAA+C+b8fI8pRw0KQoA+21TbhXeigKAPlESAgAA8F0zKTpJ8lkaAPAidyll4ZMoAOgDJSEAAEDlTIoCwNHsksxHq+lCFAB0nZIQAACgUiZFAeDdPKbcKrwXBQBdpSQEAACozGa8vEwpB02KAsD7uk65WfgsCgC6RkkIAABQgWZSdJJSDpoUBYDT2SWZjFbTW1EA0CVKQgAAgAHbjJcfk8yTXCb5QyIA0Jp1Sln4JAoAukBJCAAAMEAmRQGgk3ZJFqPVdC4KANqmJAQAABgIk6IA0BvblFuF96IAoC1KQgAAgJ4zKQoAvfUtyWy0mj6LAoBTUxICAAD01Ga8vEgpB02KAkB/7VKKwhtRAHBKSkIAAIAeaSZFL1PKQZOiADAc65Sy8EEUAJyCkhAAAKAHmknRWcpvDpoUBYDhukqyMEEKwHtTEgIAAHRYMyk6S/JFGgBQjW2SyWg1vRcFAO9FSQgAANAxJkUBgMZdygTpkygAODYlIQAAQEeYFAUAfmKXZD5aTReiAOCYlIQAAAAtayZFJ0m+SgMA+IXHlAnSB1EAcAxKQgAAgJZsxstJys3BT9IAAA50nXKz8FkUALyFkhAAAOCEmknRSUo5aFIUAHiNbcpvFd6KAoDXUhICAACcgElRAOAdrFMmSJ9EAcBLKQkBAADekUlRAOCd7ZIsRqvpXBQAvISSEAAA4Mg24+VZSjFoUhQAOJXHlAnSe1EAcAglIQAAwJFsxsvzlGLQpCgA0JZvKWXhsygA2EdJCAAA8EbNpOgkyWdpAAAdsEspCm9EAcCvKAkBAABe4YdJ0UmSDxIBADponWQyWk2fRAHAPykJAQAAXsCkKMDBdkkWSR6a/+mFCmjP1Wg1nYsBgB8pCQEAAA5gUhTgYI9JFj/OHP5w+/ov8UBrtim3Cu9FAUCiJAQAAPglk6IAL/Ityc2+AmIzXn5MchMvXECb7lLKwmdRANRNSQgAAPAPzZfY8ySXSf6QCMAv/WtS9OYlv3nW3M5e+IyFVv+7Ox+tpgtRANRLSQgAANDYjJeXKTcH3XAB2G+bUjDcvOEz9yylKPQbr9CedZLZaDV9EAVAfZSEAABA1ZovqScp5aBJUYD97lJ+b/D+iJ/DFyll4SfxQmuuU4p/E6QAFVESAgAAVTIpCnCwXcrvCC5eMin6is/lecoLGz6ToR3blFuFt6IAqIOSEAAAqIpJUYCDbVNeprg91e2i5gWOG5/R0Kq7lLLwSRQAw6YkBAAABq+ZFL1M+bLbpCjAfkefFH3F5/ZlygSpz2xox675HJiLAmC4lIQAAMBgNTdSZim/OWi+DuDXTjIp+sLP8LOUlzv+9McDrXlMuVV4LwqA4VESAgAAg7MZLy9SysEv0gDY6+SToq/4TD9PKTA/+eOC1lwnmXf1cwKA11ESAgAAg2BSFOBF1im3Bm979Dk/az7j3QyHduySTPr0uQHAfkpCAACg10yKAhxsl+Q25TbQU08/889SbhW6KQ7tWaeUhU+iAOg3JSEAANBLJkUBDrZNskhyM5SpwOYZcBM3x6FNV6PVdC4GgP5SEgIAAL2yGS8nKeWg36YC2K93k6IvfB6cNc+Dv/xRQ2u2KbcK70UB0D9KQgAAoPOaSdFJypfBJkUBfq33k6KveEacp9yU/OyPH1rzLclsKLeVAWqhJAQAADqrmZObJPkqDYC9Bjcp+opnxqTJwMsk0I5dygsKC1EA9IOSEAAA6ByTogAHW6cUgzei+D5BuoiXS6Dtz6XZaDV9EAVAtykJAQCATjApCvAi31J+b9CX8D9/plwkuUnyQRrQmqvmc8oEKUBHKQkBAIBWmRQFONg2pfjypfvhz5h5vHwCbX9uzUar6a0oALpHSQgAALSimRSdJPksDYC9TIq+7XnzMaVc9byB9tyllIVPogDoDiUhAABwMs1vRc1SykETcAD7mRQ97jPoMqUsdKsQ2rFLMh+tpgtRAHSDkhAAAHh3m/HyPKUcNCkKsJ9J0fd9Hp0lmSf5UxrQmsckEy9AALRPSQgAALwbk6IAB3tMKQZvRHGS59N5Shn7SRrQmuuUm4VeiABoiZIQAAA4KpOiAC/yLeX3Bu9F0coza5Zys9AEKbRjl3Kr8FYUAKenJAQAAI5iM15+TPmi1aQowH67JIuUcvBJHJ14fi2SfJEGtGadUhb6TAQ4ISUhAADwJpvx8jLl5qBJUYD9TIp2+3l2kTJB6hY8tGPXfEbORQFwGkpCAADgxZpJ0UlKOejLVID9TIr26/k2S/KXNKA125RbhT4zAd6ZkhAAADjYD5Oil/H7TQD7mBTt9/PuvPnzc0se2vMtyWy0mj6LAuB9KAkBAIDfMikKcLBtkrlJ0cE8/2YpL8d4MQbasUspCn2mArwDJSEAAPBTJkUBXuQu5be07kUxyOfhIslXaUBr1ikTpE+iADgeJSEAAPAfTIoCHGyX5CalHHwSx+CfjxfNn7cXZ6A9V81nrglSgCNQEgIAAEm+f/k5S/JFGgB7bVNeprj1RXWVz8t5kr8kAa1+Bk/c3AZ4OyUhAABUrJlQu0z5stvNCID9TIryr+fnx5RbhX6rF9r9TJ54WQPg9ZSEAABQoebLzVnKbw6aFAX4NZOi7HueXjZ/PzxLob3P6PloNV2IAuDllIQAAFARk6IABzMpyqHP1rPm78qf0oDWPKbcKnwQBcDhlIQAADBwJkUBXmSdcmvwVhS88Hl7kWSR5JM0oDXXKTcLvdwBcAAlIQAADFQzKTpJuTloBg3g13ZJblO+WH4SB298/s5SXszx7IV2bJPMvOwB8HtKQgAAGJjmJsMkyVdpAOy1Tbn5dePWCUd+Fn9s/m6Z94b2rFMmSJ9EAfBzSkIAABiIzXg5Sbk1aOYMYD+Topzq2XyZUhaa+4Z27JrP+7koAP6bkhAAAHrMpCjAwUyK0taz+qx5Tv8lDWjNY8oE6b0oAP5NSQgAAD1kUhTgYCZF6cqz+7z5u/hZGtCa65SXRTwPAKIkBACAXjEpCnCwdUoxeCMKOvYsnyWZxwIAtGWXcqvQ8wGonpIQAAA67oeZskn8phHA73xL+f2pB1HQ8Wf7IhYBoE3rJBMT1EDNlIQAANBRzSzZLL5ABPidbZKblHLQhBx9etZfNH93vQQE7bkaraZzMQA1UhICAEDHNJOik/jNIoDfMSnKUJ798yR/SQJas025VXgvCqAmSkIAAOgAk6IAL2JSlCGeBT6m3Cr0khC05y6lLHQrHaiCkhAAAFpkUhTgYCZFqeVsMEn5vcI/pAGt2CWZj1bThSiAoVMSAgBAC0yKAhzsMaUYvBEFFZ0TzpLMk/wpDWjNOsnMrXVgyJSEAABwIs0XfpOUm4MmRQH2+5bye4P3oqDis8NFyq3CT9KA1lzFLXZgoJSEAADwzprfGJonuYzpMIB9dimFyM1oNX0SB3w/S8xTXjJyjoB2bFNuFd6KAhgSJSEAALyTzXh5mfKFnklRgP1MisLvzxUfU0r0L9KA1tyllIVPogCGQEkIAABHZFIU4EVMisLLzxqXKWWhcwa0Y5dkPlpNF6IA+k5JCAAAR2BSFOBgJkXh7eeOs+bc8ac0oDWPKbcK70UB9JWSEAAA3mAzXl6kfElnUhRgv23KzYsbUcDRziHnKaW7cwi057p5vj2LAugbJSEAALxQ8/b+ZUo5aOoLYL+7lN8bvBcFvNvZZNacS6wZQDt2SSaj1fRWFECfKAkBAOBAzaToLOU3B30JB/BruyQ3KeXgkzjgJOeUs+a/d1+kAa1Zp5SFnn1ALygJAQDgN5pJ0Vl86QbwO9uU20y3Zteg1XPLTawdQJuuRqvpXAxA1ykJAQDgJ0yKAryISVHo3llmnuQvSUBrtim3Cj0bgc5SEgIAwA9MigIczKQo9ONcc5PkszSgNd+SzNywB7pISQgAAPk+zTVJ8lUaAHuZFIX+nXMmSRbxAhS0ZZdSFN6IAugSJSEAAFVrvjSbJfkkDYC91im3Bm9FAb0885ylFIVeiIJ2n6Wz0Wr6IAqgC5SEAABUp5nemqSUg96oB/i1XZLbJDb9zggAACAASURBVHOTojCYc9BFSlnoBSloz1XKizdu5AOtUhICAFANk6IAB9umlAg3vsCEwZ6L5vHCFLT9rJ2MVtN7UQBtURICADB4JkUBDmZSFOo6I31McpPkszSgNXcpE6RPogBOTUkIAMAgmRQFOJhJUXBuuky5PfxBGtDas3g+Wk0XogBOSUkIAMCgbMbL85Ri0KQowH4mRYEfz1BnSeZJ/pQGtOYxZYL0QRTAKSgJAQAYhGZSdBJzWQC/Y1IU2HemOk+ZIDXTDu25TrlZ6CUe4F0pCQEA6K3mjfdZSjloHgtgv28p5aDbCcAh56xZys1Cs+3Qjm3KbxV6qQd4N0pCAAB6x6QowMG2KTeCFm4jAK84c501nyFfpAGtWadMkD6JAjg2JSEAAL1hUhTgYOuU3xq8EQVwhDPYRUpZaLkB2rFLeeFnLgrgmJSEAAB0mklRgBcxKQq895nsL2lAax5TJkjvRQEcg5IQAIBO2oyXH1N+B+cyfgsHYB+TosCpz2g3sewAbfqWUhZ67gNvoiQEAKBTNuPlZcpb6r54AtjPpCjQ5pltkmQRL3NBW3YpRaFzAPBqSkIAAFrXzFdNUspBk6IA+31LKQfvRQF04Ay3SPJVGtCadZLJaDV9EgXwUkpCAABaY1IU4GC7lC/ib3wJCHTwTHeRMkHqZS9oz1VMjwMvpCQEAODkTIoCHOwx5Qu/G1EAPTjjzZsznpe/oB3blFuF96IADqEkBADgJJo5qsuUm4PeMgfYz6Qo0Ncz38eUW4VeBoP23KWUhW4VAnspCQEAeFfNF0WzlN8c9FY5wK+ZFAWGdAa8TCkLnf+gvXPFfLSaLkQB/IqSEACAd9H8Ns0syRdpAOxlUhQY6nnwLGVF4k9pQGvWSWaj1fRBFMA/KQkBADgak6IAL3KXUg7eiwIY+BnxPOVW4SdpQGuuU24WmiAFvlMSAgDwZiZFAQ62S/mifGFSFKjwzDhLeZnMeRHasU25VXgrCiBREgIA8AYmRQEOtk35YvzWG/xA5efHjym/v+r8CO25SykLn0QBdVMSAgDwYpvxchKTogCHMCkK8PPz5EXKzWrnSWjHrjmjzEUB9VISAgBwkOat70nKzUETUQC/ZlIU4LDz5VlztvxLGtCax5RbhfeigPooCQEA2Kt5y3uS5Ks0APYyKQrwuvPmecoE6WdpQGuuk8ydYaAuSkIAAH6qmRSdJfkkDYC91ilfqt2LAuDN589FrFZAW3ZJJqPV9FYUUAclIQAA35kUBTjYLsltSjn4JA6Ao51Hz1KKQisW0J51SlnojAMDpyQEAMCkKMDhtilfXt+Y4wJ49/PpTZIP0oDWXI1W07kYYLiUhAAAFWsmnSbx+y8Av7NOsjC/BXDy8+o8Vi6gTduUW4X3ooDhURICAFSmmXCapZSD3swG+DWTogDdOL9+TLlV6MU2aM+3JDNLCjAsSkIAgEo0X67MY1IU4HdMigJ08zx7mVIWulUI7dilvDy1EAUMg5IQAGDglIMABzMpCtD9s+1Zc7b9UxrQ6plpNlpNH0QB/aYkBAAYKOUgwMG+pZSDvugC6M9Z9yLl1vcnaUBrrpozlOUF6CklIQDAwPzwm4N/SQPgl7Ypk3W+2ALo99l3lvJinAlSaO9MNbPEAP2kJAQAGJDmjeqbJB+kAfBT65TfGrwRBcBgzsAfU24VfpEGtOYupSx8EgX0h5IQAGAA/DYLwG+ZFAUY/pn4MqUs9MIctGOXZD5aTReigH5QEgIA9NxmvDxPchtfhgD8k0lRgPrOxqb3oX2PSSZezoLuUxICAPTYZrycJPk/SQD8B5OiAM7J5ym3Cj9LA1pznXKz0Mta0FFKQgCAntqMlzdJ/j97d4/cRpplDfhMx/jktwKhNwCxViDIgEVDLAO20BGw0hFqBYRWIMiBxQhRdhqiDFhpCFyBIG5A0AqaXMF8RqJnqqupKok/yATwPHZHkDzqIvPFzXvel5IA+F/vUw8HF6IAYP3MPE5dy38gDWjETeqtwgtRQPsYEgIAbJl1hdJFvBUNkNQfPE1TDwdX4gDgO8/P03jBDpp0mXpY6HkNWsSQEABgi6w/4FgkeSoNYM99SX3X4LkoAPjBZ+le6rtq3eUNzbhZP79NRAHtYEgIALAlDAgBkqgUBeD+z9WTJKeSgMZ8S71V6HkOGmZICACwBQwIgT2nUhSAh36+7qTeKlThD815n2TcnY+uRQHNMCQEAGg5A0Jgj6kUBeCxn7VPUg8LD6QBjbhJPSj0vAcNMCQEAGi5q+OziyQvJAHskY+ph4MLUQCwgeftwySTJK+kAY25TD0sXIoCNseQEACgxa6Oz6bxYQWwH25Sb3JMVYoC0NCzdy91vbUGD2jO6/XzoApS2ABDQgCAlro6PhsmeScJYMd9S729ceHDIABa8hw+STKOClJo8vlwqFUCHp8hIQBAC10dnx2lvofQBxPArlIpCkCbn8c7qbcK1f5Ds8+LQy+SweMxJAQAaKGr47Nl1BwBu0elKADb9lx+knpY+EQa0Njz46Q7H01FAQ/PkBAAoGXW9UankgB2iEpRALb5+fxw/XfMXeHQnC+ptwqXooCHY0gIANAi65rRz5IAdsRl6je/F6IAYEee1adJnkkDGvN2/XzpxTN4AIaEAAAtomYU2AE3SS5Sf3izEgcAO/jMPk69Wej+cGjGtyTj7nx0IQq4H0NCAICWuDo+GyZ5JwlgS31LvV1x7s1uAPbg2f0w9T27L6QBjblMXUG6EgXcjSEhAEALrD9kWMXbyMD2uUwy9SY3AHv6HN9LPSx8Ig1oxM36WXQiCvh5hoQAAC1wdXw2SXIqCWBLqBQFAM/z0CZfUleQLkQBP86QEACgYbYIgS2iUhQAvv9c30m9VfhMGtCYt6lfZPOsCj/AkBAAoGFXx2fjJG8kAbSYSlEA+PHn+2Hql2q8BAjNuEm9VXguCvhzhoQAAA27Oj5bxR0mQDu9Tz0cXIoCAH7qGf8wySTJK2lAYy6TDNXjw/cZEgIANOjq+OwkyQdJAC3yLXVV2lRNEwDc+3m/l3qr8Kk0oDGvu/PRRAzwnwwJAQAadHV8dpHkhSSAFrhMfdfguSgA4MGf+ydJxlFBCk35lnqrcCEK+D+GhAAADbk6Pusk+SoJoGEqRQFgc8//03hJEJr0MfWwUGMGxJAQAKAxV8dn4yRvJAE0QKUoADR3DjhJPSx0Lzk04ybJpDsfTUXBvjMkBABoyNXx2TLuJgE2S6UoALTjLHCYZJLklTSg0WfjsUYN9pkhIQBAcx8K/FMSwIa8Tz0cXIgCAFp1LjhKvd3v5UFoztvUm4UaNtg7hoQAAM18GDBM8k4SwCO6SV1ldt6dj1biAIBWnw/GqTcLD6QBjfiWeqvwQhTsE0NCAIBmPgQ4T/JSEsAj+JL6rsFzUQDAVp0RDlNvFb6QBjTmY+ph4UoU7ANDQgCAZj4AcB8h8NBUigLAbpwVeqmHhU+kAY24SV0/OhUFu86QEABg84d+9xECD0WlKADs7plhnORUGtCYL6m3CheiYFcZEgIAbP7A30vySRLAPagUBYD9ODt0Um8VPpMGNOZt6s3Ca1GwawwJAQA2f9AfJ3kjCeAOPqYeDi5EAQB7dYYYpm4POJAGNOImybA7H12Igl1iSAgAsPkD/jTJK0kAP+gm9QbBVKUoAOz1OeIw9aDwpTSgMZeph4Wey9kJhoQAAJs/3C+iLgj4a9+STJJcqDYCAH53nuilHhY+lQY05nV3PpqIgW1nSAgAsPlD/SKGhMD3qRQFAH7kXDFJMo4KUmjKt9RbhZ7b2VqGhAAAmz/MewAD/kilKABwl7NFZ/0M4SVEaM77JGPtH2wjQ0IAgM0f5D2AAf+iUhQAeIgzxknqCtIn0oBG3KQeFJ6Lgm1iSAgAsPkDvAcw4DLJRDURAPCA54zD1C8fvZIGNPqcP+7OR0tRsA0MCQEANn9w/6ckYC/dJLlIPRxciQMAeKQzx1HqCtKn0oDGvE59lYC2EFrNkBAAYLMH9l6ST5KAvfItdf3XuQ8JAIANnj3GqTcLD6QBjZ0DhtpDaDNDQgCAzR7UezEkhH1xmfrt4QtRAAANnT86qV9WeiENaMzH1BWkK1HQNoaEAACbPaT3YkgIu0ylKADQ1nPIeZIn0oDGzgmT7nw0FQVtYkgIALDZw7k7CWE3qRQFALbhLDJOcioNaMyX1BWkS1HQBoaEAACbP5x7AIPdoVIUANi288hR6pebnkkDGvM29WahFwxplCEhAMDmD+UewGD7vY9KUQBgu88lw9TDwgNpQCNuUm8VeuGQxhgSAgBs/jDuAQy207fUd/lMvfELAOzI2eQw9aDwpTSgMZeph4UrUbBphoQAAJs/iHsAg+07tJ9356NzUQAAO3pG6aV+GeqJNKARN6lfRpyIgk0yJAQA2PwB3AMYbIf364P6UhQAwJ6cVSZJxlFBCk35kmTcnY8WomATDAkBADZ/8PYABu2lUhQA2PfzSmf9PPRMGtCY96mHhc4kPCpDQgCAzR+6PYBB+6gUBQD493PLSephoa1CaMZN6kGhMwqPxpAQAGDzh20PYNAeKkUBAL5/djlMMknyShrQmMskw+58tBIFD82QEABg8wdtD2DQrJsk09Sbgw7aAAB/fYY5Sr1V+FQa0JjXcS0CD8yQEABg8wfs66jsgSZ8WR+qz0UBAHCns8w49Wah8ww041vqrcKFKHgIhoQAAJs/WC+SPJMEbMz71FuDDtIAAPc/z3RStzK8kAY05mPqYaGtQu7FkBAAYPOH6kUMCeGxqRQFAHjcc83J+nnriTSgsTPPpDsfTUXBXRkSAgBs/jC9iCEhPBaVogAAmzvbHCYZJzmVBjTmMsm4Ox8tRcHPMiQEANj8QXoRQ0J4aCpFAQCaO+Mcpd4qdM6B5rxNvVmogpQfZkgIALD5A/TC4RkexE2S89SbgytxAAA0ftYZJ5kkOZAGNOJb6q3CC1HwIwwJAQA2f3BexJAQ7nvwnSS58JYsAEDrzjuHqbcKX0oDGvMx9bBwJQr+jCEhAMDmD82LGBLCXQ+6U5WiAABbce7ppW59eCINaMTN+vw0EQXfY0gIALD5w/IihoTwMwfb86gUBQDY1vPPJMmpJKAxX1JvFS5EwR8ZEgIAbP6QvIghIfwVlaIAALtzBuqkfvHLOQia8zbJxPmK3zMkBADY/AF54XAM36VSFABgd89CJ6mHhQfSgEbcpN4qPBcFiSEhAEATB+NpkleSgH87qF6kfqt1JQ4AgJ0+Dx2mboxwJoLmXCYZOn9hSAgAsPlD8STu5ICkrhSdJjlXeQMAsHfnot76WfCpNKAxr7vz0UQM+8uQEABg84fhSQwJ2W+XqStFL0QBALD356Nx6s1CFaTQjG+ptwoXotg/fxMBAACwATdJ3if5e3c+6hkQAgCQJN35aJrkKPXd1MDmPUny6er47HxdB8weMSQEAAAe07ckvyXpdOcjd14AAPAfuvPRqjsfnST5df38CGzeyySr9XYve0LdKADAhqkbZU+oFAUA4C7npcMkY2cmaPw8N+7OR0tR7DZDQgCAzR96Jw687LD3SSY2BgEAuOe56SjJNMkzaUBjXqd++fNaFLvJkBAAYPOH3UkMCdkt35KcOzwCAPAI56dxkkmSA2lAY+e9sZaY3WRICACw+UPuJIaE7IbLJOfd+ehcFAAAPOIZ6jD1S2kvpAGN+Zh6WLgSxe74mwgAAICf9D7JL935qGdACADAY+vOR9fd+egkyfPUW03A5r1Islxv97IjbBICAGyYTUK2lEpRAACcqYAk+ZJk2J2PlqLYboaEAACbP9D2knySBFtCpSgAAG08V3VSv8T2TBrQmLdJJl4k3V6GhAAAmz/M9mJISPu9T7016M1QAADafL4aJpkmOZAGNOIm9VbhhSi2jyEhAMDmD7G9GBLS3sPdNPXm4EocAABsyRnrMMkkyStpQGMuUw8LnSW3iCEhAMDmD7C9GBLSLl9Sbw2eiwIAgC0/a02TPJUGNOJmfbaciGI7GBICADRzcDUkpA3ep94aXIgCAIAdOnNNkoyjghSa8i31VqGzZssZEgIAbP7A2oshIc1RKQoAwD6cuzrr594X0oDGvE8y7s5H16JoJ0NCAIDNH1Z7MSRk81SKAgCwj+evk9TDwifSgEbcpB4UOou2kCEhAMDmD6m9GBKyOSpFAQDY9zPYYZJJklfSgMZcph4WLkXRHoaEAACbP6D2YkjI47pJcp56c3AlDgAASK6Oz45SbxU+kwY05vX6rKqCtAUMCQEANn8w7cWQkMfxLfUb0hcOXAAA8N0z2Xj93HwgDWjs7DrUeNM8Q0IAgM0fSDtJvkqCB/Qx9ZuYDlgAAPBj57LD1O0bL6QBjZ5lh15ybY4hIQBAMwdSD2Hcl0pRAAC4/9mst36ufiINaOxsO+nOR1NRbJ4hIQBAMwdRD2HclUpRAAB42PPZYZJxklNpQGO+pN4qXIpicwwJAQCaOYR6CONnqRQFAIDHPad1Um8VPpMGNOZt6s1CL8VugCEhAEAzh08PYfyImyQX6wPSShwAALCR89owyTTJgTSgEd+SjLvz0YUoHpchIQBAM4dOD2H81YFomuTc25MAANDIme1w/Uz+UhrQmMvUFaQrUTwOQ0IAgGYOnB7C+N4BaOptSQAAaM3ZrZd6WPhUGtCIm/U5eSKKh2dICADQzEHTQxi3ee7OQQAAaOUZbpJkHBWk0JQvqStInZkf0N9EAAAAAAAA37feYjpK3f4BbN7TJJ+ujs/O13XAPABDQgAAAAAA+Avd+WjVnY96SX5NfY84sHkvk6yujs+Gorg/Q0IAAAAAAPhB6zvEj5K8lQY04iDJu6vjs8XV8VlHHHdnSAgA0IwvIuAWDjcAALAFuvPRdXc+Gif5xfkOGvMsydf1naHcgSEhAEAzrkXALToiAACA7dGdj5bd+egoyW9JbiQCjTi9Oj5bXR2f9UTxcwwJAQAAAADgHrrz0TT1S38fpQGNeJLk09Xx2cXV8dmhOH6MISEAAAAAANzTuoL0JMnzJN8kAo14kWR1dXw2FsVfMyQEAAAAAIAH0p2PFkmOkryWBjTiIMmbq+OzxdXx2ZE4vs+QEAAAAAAAHtB6q3CS5JcklxKBRjxL8vnq+GyqgvR2hoQAAAAAAPAIuvPRsjsf9ZL8I8mNRKARr5Isr47PTkTx7wwJAQAAAADgEXXno/MknSTvpQGNeJLkw9Xx2cXV8VlHHDVDQgAAAAAAeGTrCtJhkudJvkkEGvEi9VbhWBSGhAAAAAAAsDHd+WjRnY86SV5HBSk04SDJm6vjs8W+31VoSAgA0IxrEQAAAOyv7nw0SXKU5FIa0IhnSVb7fFehISEAQDOWIuAWPREAAMD+6M5Hq+581Evya2wVQhMOUt9VON3HH96QEAAAAAAAGtSdjy6SdJK8lQY04tXV8dly3+pHDQkBAAAAAKBh3fnoujsfjZP8kuSLRGDjnqauHz3alx/YkBAAAAAAAFqiOx8tu/PRUZLfooIUNu0gyeer47PhPvywhoQAAAAAANAy3flomuQoyUdpwMa9uzo+G+/6D2lICAAAAAAALdSdj1bd+egkyfMk3yQCG/Xm6vjsfJd/QENCAAAAAABose58tEi9VfhaGrBRL3d5UGhICAAAAAAALdedj66789EkyS9JLiUCG7Ozg0JDQgAAAAAA2BLd+WjZnY96Sf6R5EYisBE7OSg0JAQAAAAAgC3TnY/Ok3SSvJcGbMTODQoNCQEAmrESAbc4FAEAAPCj1hWkwyTPk3yTCDy6l1fHZ9Nd+WEMCQEAmrESAbd4uk8/bFWUvaoox/7ZAQDgfrrz0aI7H3WSvJYGPLpXV8dnw134QQwJAQCAjaqKclgV5TLJpyRvqqJcVkXZkwwAANxPdz6aJPl7kktpwKN6d3V8tvXn2P/6n//5H/+UAAAbtn6Q/CQJbjnU/9cu/lxVUXaSDJOMkxx853/2Psm4Pxtc+38CAADc+9x5kuT8T56/gfu5SdLrzkfLbf0BbBICAACPZl0pep7ka5LT/PkHFC+TrKqiHEoOAADupzsfXSTpJHkrDXgUB0nOr47PDrf1BzAkBAAAHtwfKkVf/uQh611VlIv19iEAAHBH3fnoujsfjZM8T/JFIvDgniaZbus3r24UAKAB6kb5k0P8VteNVkV5lGSRh6s0ep1kqoIUAAAe5Cw6TjKJClJ4aP/ozkfn2/ZN2yQEAAAe0mEe9gOH0yTLqih7ogUAgPvpzkfTJEdJPkoDHtT06vjsaNu+aUNCAACg7Z4k+VQV5UVVlIfiAACAu+vOR6vufHSS5Nck3yQCD+Igyfm2fdOGhAAAwLZ4kWRVFeVYFAAAcD/d+egi9Vbha2nAg3h6dXw22aZv2JAQAADYJgdJ3lRFuVjffwgAANxRdz667s5HkyS/JLmUCNzb6dXxWWdbvllDQgCAZg5iCylwm228w6Ahz5J8ropyqoIUAADufUZdduejXpLfktxIBO7lfFu+UUNCAABoFwOvn/MqybIqyhNRAADA/XTno2mSTpL30oA7e3Z1fLYVZ1RDQgAAYNs9SfKhKsqLqig74gAAgLtbV5AOkzxP8k0icCfTq+Oz1r8EbEgIAADsiheptwonogAAgPvpzkeL7nzUSfJaGvDTniQZt/2bNCQEAAAe0rLhr3+Q5LQqymVVlD3/HAAAcD/d+WiS5O9JLqUBP2Xc9m1CQ0IAAODB9GeD65Z8K0+TfKqKcloVpXseAQDgHrrz0ao7H/WS/CPJjUTghxyk5duEhoQAAMAue5VkVRXlUBQAAHA/3fnoPEknyVtpwA9p9TahISEAALDrDpK8q4pyURVlRxwAAHB33fnoujsfjZM8T/JFIvCX59HWbhMaEgIAAPviWZKvVVFORAEAAPfTnY8W3fnoKMnrqCCFP2NICAAA0BKnVVGuqqLsiQIAAO6nOx9Nkhwl+SgNuNXB1fHZsI3fmCEhAEBzvomAWxyKYCOeJPlUFeV5VZQyBwCAe+jOR6vufHSS5FdnXbhVK7cJDQkBAJqzEgG3OBLBRr1MsqqKciwKAAC4n+58dLE+07yVBvybp1fHZ6077xsSAgAA++4gyZuqKBdVURrSAgDAPXTno+vufDRO8kuSS4nA/xq27RsyJAQAAKg9S/K5KsqJClIAALif7ny07M5HvSS/JbmRCOSkbd+QISEAAPDQtv0DgNMky6ooT/xTAgDA/XTno2mSTpKP0mDPPWlb5aghIQAA8NCWu3B4S/KhKsqLqig7/kkBAODu1hWkJ0meJ/kmEfbYsE3fjCEhAADA971IvVU4FgUAANxPdz5adOejTpLX0mBPtaqxxpAQAADgzx0keVMV5bIqyp44AADgfrrz0STJ35NcSoM98+Tq+KzTlm/GkBAAAODHPE3yqSrKaVWUh+IAAIC7685Hq+581Evyj2z/vebwM1qzTWhICAAA8HNeJVlVRXkiCgAAuJ/ufHSepJPkvTTYE722fCOGhAAAAD/vIMmHqigXVVF2xAEAAHfXnY+uu/PRMMnzJF8kwo47ass3YkgIANCcpQi4RUcEW+VZkmVVlBNRAADA/XTno0V3PjpK8joqSNldrbmX0JAQAKA51yLgFh0RbJ2DJKdVUa6qouyJAwAA7qc7H01Sb1tdSgNn/8djSAgAAPAwniT5VBXleVWUh+IAAIC7685Hq+581Evya5JvEmHH9NrwTRgSAgAAPKyXSVZVUQ5FAQAA99Odjy5SbxW+lQY7pNOGb8KQEAAAeGju26wrSN9VRbmoivJIHAAAcHfd+ei6Ox+Nk/yS5ItE2AGdNnwThoQAAMBDc9/m/3mW5HNVlBMVpAAAcD/d+WjZnY+OkvyW5EYibLFWvExqSAgAAPD4TpMsq6LsiQIAAO6nOx9NU29ifZQGW+qgDd+EISEAAMBmPEnyqSrKC1uFAABwP+sK0pMkz5N8kwj8PENCAGCrVEV5uK7tW0kD2FIvkqyqohyLAgAA7qc7Hy1SVze+lgbb5Or4rNf09/Df/hkAgG1QFeVRknGSl9IAdsBBkjdVUQ6TDPuzwVIkAABwN9356DrJ5Or47DzJeeq7wYG/YEgIALTavz5A39EH/Gv/wrD3nib5XBXl2yST/mzg9wIAANxRdz5aJeldHZ8Nk0zTknvfoK3UjQIArfOHStF32d03AG0OcRtvvO6nV0mWVVGeiAIAAO6nOx+dJ+kkeS8N+D6bhABAa6gUBfbckyQfqqK8TF1BuhIJAADczbqCdLiuIJ2mbvEAfscmIQDQuKooT6qiXCT5HANCgGeptwonogAAgPvpzkeL7nx0lOR1khuJwP+xSQgANKIqysPUdw2OU2/PAPB/DpKcrutHx/3ZYCESAAC4u+58NFlvFZ7HNQ+QxCYhALBhVVF2qqI8T7JK8iYGhLCLFiJ4ME+TfKqK8nz9cgUAAHBH3flo1Z2Pekl+ja1Cmtf4Gc+QEADYiN9Vin5NXSl6IBWAH/YyyaoqyqEoAADgfrrz0UWSTpK30qBBR01/A+pGAYBH89iVolVRdvqzwUrSwJ44SPJuPSgc+v0HAAB3152PrpOMf1dB+lQq7BubhADAg9tgpWhH2sAeepbka1WUE1EAAMD9dOejZXc+OkryW1SQsmcMCQGAB1MVZU+lKMDGnFZFuaqKsicKAAC4n+58NE1d//hRGuwLdaMAwL2sK0VPkkzyeBuDANzuSZJPVVF+TF1Bei0SAAC4m+58tEpycnV81ktdQepzDnaaTUIA4E7WlaLT1JWi7zw438lKBNzm6visIwV+0oskq6oox6IAAID76c5Hi9Rbha+lwS4zJAQAfsq6UvQidaXoq6gUvc+hYyUFvqMjAu7gIMmbqigXVVEeiQMAAO51Zr/uzkeTJL8kuZQIu0jdKADwl1SKAmyVZ0k+V0X5NslEBSkAANxddz5aJuldHZ8NQFkRxgAAIABJREFUk0zjZWl2iE1CAOC7VIoCbLVXSZZVUZ6IAgAA7qc7H52nbn15Lw12hU1CAOA/VEXZSzJM8lIawB2sRNAaT5J8qIryY5JxfzbwbwMAAHfUnY+ukwyvjs/Ok5zHy9RsOZuEAMD/qopyWBXlMsmnGBACd2QQ1UovUm8VTkQBAAD3052PFt35qJPkdZIbiXBHnaa/AZuEALDnqqLspN4aHEevPsAuO0hyuq4fHfdng4VIAADg7rrz0eR3W4XPJMJP6jT9DRgSAsCe2pFK0V6ShX9NgJ/yNMmnqijfJpn0Z4NrkQAAwN1056NVkt7V8dlJ6mGhF7DZGupGAWDPqBQFYO1VktV6sxAAALiH7nx0kXoz7K002BY2CQFgD6gUBeA7DpJ8qIryMsnQfZIAAHB33fnoOsn46vjsIsk0dYsHtJZNQgDYYVVRHlVFeZ7ka5LTGBACcLtnSb5WRTkRBQAA3E93Plp056OjJL8luZEIbWVICAA7aF0pukjyOSpF2+5SBNyiJwIacloV5Wp9by0AAHAP3flomuTI2Z+2UjcKADuiKsrD1HWiwyRPJALAHT1J8qkqyvdJxv3Z4FokAABwN935aHV1fLZI3d4BrWKTEAC23O8qRf+ZulLUgBCAh/AyyaoqyrEoAAAAdo9NQgDYUlVRDlNvDXoTDYDHcpDkTVWUJ6m3CpciAQAA2A2GhACwRVSKAlvkMl5i2CXPknyuivJ1kqkKUgAAgO2nbhQAtkBVlB2VogC0wGmS5XqzEAAAgLtr/MVam4QA0GL/qneLbZzvORQBwMY9SfKhKsqPqStIVyIBAADYPoaEANAy60rRYerhoI3BP3ckAoDGvEjSq4py0p8NpuIAAIDvUtdPKxkSAkBLVEXZSTJJcpLkQCIAbIGDJG+qohwmGfZng6VIAADgP3hOppUMCQGgYSpFAdgBT5N8rorybZJJfzbwpjQAAEDLGRICQANUivI7qxgQ85/ct8m2epVkWBXlsD8bXIgDAACgvQwJAWCDVIpyi5UIuIX7NtlmB0k+VEV5mbqC1O85AACAFvqbCADg8VVF2auK8iLJ1yQvY0AIwO57lmRZFeVEFAAAAO1jkxAAHsm6UvQk9eagSlEA9tFBktOqKIeptwoXIgEAAGgHQ0IAeGDrStFx6jsHbQwC++paBPzOkySfqqJ8n2Tcnw38/wMAAKBh6kYB4IH8oVL0VQwIgf22FAG3eJlktd4sBAAA2GtXx2eHTX59m4QAcA8qRQHgpx0kebceFI77s4GBMgAAsK+Okiya+uKGhABwBypFW/UgBcB2epbkc1WUr5NMVZACAABslrpRAPgJ60rR86gUbQv5A2y/0yTLqih7ogAAYEdpz6CVDAkB4AdURTmsinKZ5FPq+5QAgIfzJMmnqigv1lXeAACwM7rzkdYMWkndKAB8x7pSdJi6VtTGGgA8vhdJVlVRTvqzwVQcAAAAj8eQEAD+YF13NoyNQTZD5Qi3cd8m++wgyZuqKIdJhv3ZwO9JAACAR2BICABr6w8jx0meSoMNUjnCbWwvQ/33+HNVlG+TTPqzgd+XAAAAD8iQEIC9plIUAFrvVZKTqijH/dngQhwAAAAPw5AQgL1UFeVR6sGgSlEAaL8nST5URXmZuoJ0JRIAAID7+ZsIANgnVVEOq6JcJPkcA0KAx+QeOR7DsyTLqignogAAALgfm4QA7LyqKA9Tbw0OU28iAPD43B/HYzlIcloV5UmScX82WIgEAADYUkdJGjvT2CQEYGdVRXlUFeV5kn8mOY0B4a7+Ox9KAWAvPU3yqSrKqb8FAADAlmr0LGNICMDOUSm6d45EALDXXiVZVUU5FAUAAC12IwLaRt0oADtBpSgA7LWDJO/Wg8JhfzZYiQQAgJZZpr5jG1rDJiEAW60qyo5KUQBg7VmSr1VRTkQBAADw5wwJAdhKVVGerCtFv0alKNvtWgTc5ur4zB1rcHenVVGuqqLsiQIAAOB26kYB2BrrStFh6lpRG4PshO58tLw6PhMEtzlKshAD3NmTJJ+qovyYuoLUSxkAAAC/Y5MQgNb7XaXoKsmbGBACAD/uRZJVVZRjUQAAAPwfm4QAtFZVlCeptwZd6gwA3MdBkjf/erbozwZLkQAAAPvOkBCAVlEpCrAzVDvSRs+SfK6K8m2SiQpSAABgn6kbBaAV1pWi06gUBdgJNrVouVdJluvNQgAAgL1kkxCARlVF2Uu9NfhCGgDABj1J8qEqyo+pK0hXIgEAADas1+QXNyQEYOPWlaInSSaxMcj9dUQAwD28SNKrinLSnw2m4gAAAPaFISEAG1MVZSf11uAwyYFEeCAdEQBwTwdJ3lRFOUy9VbgQCQAAD2yZ+o5saA1DQgAenUpRAGBLPE3yqSrKt0km/dngWiQAADwQz5a0jiEhAI9CpSgAsMVeJRlWRTnszwYX4gAAAHaRISEAD2pdKTpMvTmoUhR+zLcYpvOfOiKARh0k+VAV5WWSYX82WIkEAADYJX8TAQAPoSrKXlWU50m+JjmNASH8jJUIuEVHBNAKz5J8rYpyIgoAAGCX2CQE4F6qohym3hp8Kg0AYIedrp97hv3ZYCEOAABg2xkSAvDTVIoCAHvqSZJPVVG+TzLuzwbXIgEAALaVulEAfphKUQB+0jcRsKNeJllVRTkWBQAAsK1sEgLwl1SKAnBHq9SbV7CLDpK8qYryJPVW4VIkAADAT+o0+cUNCQG4VVWUh6kHgypFAQC+71mSz1VRvk4yVUEKAAD8hEZfrFU3CsC/qYryaF0p+s+oFGU79EQAQAucJllWRenvEgAAsBVsEgKQ5H8rRYep34YHAODnPUnyqSrKj6krSFciAQBgbZH6xTJoDUNCgD32u0rRYdwZBQDwUF4k6VVFOenPBlNxAAAAbWRICLCHqqI8Sj0cfCkNAIBHcZDkzb/aGvqzwVIkAABAmxgSAuwRlaLQWgv/XXKLnghgJzxN8rkqyrdJJv3Z4FokAABAGxgSAuw4laIANGiapOPvDyRJXiUZVkU57M8GF+IAAACa9jcRAOymqig7VVGeJ1mlvhTZB7QAbNR6EHKU5K00IEldQfqhKspFVZQdcQAAAE0yJATYMVVRnlRFuUjyNfWdgwdSAaAp/dnguj8bjJP8kuSLRCBJXTG9rIpyIgoAAKAp6kYBdsC6UnSYulbUxiAArdOfDZZJjqqiHCeZxEsscJDk9F93Rvdng4VIAACATbJJCLDF/lAp+iYGhAC0XH82+Nc9hR+lAcn6+e1TVZTn6xe/AACAPXJ1fHbU1Nc2JATYQipF4d/4QBW2zLqC9CTJ8yTfJALJ+plutd4sBAAA9kdjn22pGwXYEipF4bueigC2U382WFRFebT+23YqEchBkne/qyBdiQQAYGd4tqN1bBICtNy6UnQalaIA7KD1VuEkyd+TXEoEkiTPknytinKighQAYDd056OVFGgbQ0KAlqqKslcV5UXqStFXUSkKwA7rzwar/mzQS/KPJDcSgST1hu2yKsqeKAAAgIembhSgRdZvip8kmcTGIOyTaxFwi84+/tD92eB8/ZLMNPUdbbDvniT5VBXlx9QVpP5mAAAAD8ImIUAL/KFS9F0MCGHfLEXALfb2b8G6gnSY5HmSL/6vAEmSF0lWVVGORQEAADwEm4QADVpXR41Tf+gDAPxOfzZYJDmqinKy/nupept9d5DkTVWUw9RbhV4yAQAA7syQEGDDVIoCwM/pzwaTqijPk5wneSYRyNMkn6uifJtkooIUAAC4C3WjABuyrhSdRKUoAPy0/myw6s8GvSS/JrmRCCRJXiVZVkV5IgoAAOBnGRICPLKqKHvr7YevSU6jKg0A7qw/G1wk6SR5Kw1IUr949qEqykVVlB1xAADA1jls6gsbEgI8kqooh1VRLpN8SvJSIgDwMPqzwXV/Nhgn+SXJF4lAkrqKd7lurgAAALbHUVNf2J2EAA9o/fb2MMk4NgZhk//tHfVng6UkYL+s/7s/qopynPquX3972XcHSU7X9aPj/mywEAkAAPA9NgkBHoBKUWjcoQhgf/Vng2nqNy8/SgOSJE+TfKqKcloVpb+RAADtcSkC2sSQEOAeVIoCQDv0Z4NVfzY4SfI8yTeJQJLkVZJVVZRDUQAAAH+kbhTgJ63fxh5HpSgAtE5/NlhURXm0/jt9KhHIQZJ360HhsD8brEQCAAAkNgkBflhVlEfrStF/RqUo8LDcp8itro7PjqTw8/qzwXV/Npgk+SXqfOBfniX5WhXlRBQAAEBiSAjwl9aVooskn6NSFHgE3fnoWgp8h7vE7qE/Gyz7s0EvyT+S3EgEkiSnVVGuqqLsiQIAAPabulGAW/yuUnSY5IlEAGB79WeD86ooL5JM44UfyPr59lNVlB9TV5B6WQUAAPaQTUKA37mlUtSAEAB2wLqCdJjkeZJvEoEkyYskq6oox6IAAID9Y5MQIHWlaOqtwWfSAIDd1Z8NFkk663vZxnHHMBwkeVMV5UmScX82cE8uAADsCUNCYG+tK0WHqT8gtDEIAHukPxtM1u0B5/GSEGT938HnqihfJ5mqIAUAgI3pNPWF1Y0Ce6cqys76Q8FVkjcxIIRdcCgC4Gf1Z4NVfzboJfk1yY1EIEldub9cbxYCAACPr9PUFzYkBPZGVZQnVVEuknxN8jLqxWCXHIkAuKv+bHCxPpS9lQYkqV+i+1AV5UVVlB1xAAA8GG0NtIohIbDzqqIcVkW5SvIh6sQAgFv0Z4Pr/mwwTvJLki8SgSTJi9RbhWNRAAA8CPc/0yqGhMDOqoqyVxXlMsm7qBQFAH5AfzZY9meDoyS/RQUpJHX7xpuqKJdVUfbEAQAAu8OQENg56zsHL5J8SvJUIsCWMIzgNu7bbEh/NpimrjL+KA1I1s/Vn6qinFZF6XcTAADsAENCYKesq5CWqauRALaJyhFu477NBvVng1V/NjhJ8muSbxKBJMmrJKuqKE9EAQAA282QENgJ6+3BRZI3qSuRAAAeRH82uEg9sH0tDUjWz9sfqqJcVEXZEQcAAGwnQ0Jg663fYl4meSYNAOAx9GeD6/5sMEnyS5JLiUCyfv7+WhXlRBQAALB9DAmBrbb+QOJDbA8CABvQnw2W/dmgl+S3uEsU/uW0KspVVZQ9UQAAwPYwJAS2VlWU50lOJQEAbFp/Npgm6SR5Lw1IkjxJ8qkqyvOqKA/FAQAA7WdICGydqigP1/cPvpQGANCUdQXpMMnzJN8kAsn6GX1VFeVQFAAA8EOOmvrChoTAVlm/lbyI+weBf9cRAdCU/myw6M8GnSSvpQFJ6qsA3lVFuaiK8kgcAADwl8/PjTAkBLbG7waET6UB/EFHBEDT+rPBJMnfk1xKA5LUL/Z9ropyooIUACBJshQBbWJICGyTaQwIAYAW688Gq/5s0Evya5IbiUCS+h7xZVWUPVEAAHvuWgS0iSEhsBWqopzGHYQAwJbozwYXqbec30oDkiRPknyqivKiKsqOOAAAoHmGhEDrVUU5TPJKEsCOW4mAW7jLa4v1Z4Pr/mwwTvI8yReJQJLkReqtwrEoAACgWYaEQKtVRXmUumYUYNetRMAt3OG1A/qzwaI/Gxwl+S0qSCFJDpK8qYpyuX7eBwAAGmBICLRWVZSHSc5Tf4gAALDV+rPBNPV26EdpQJL6vvHPVVFO18/+AADABhkSAm02Sf3BAQDATujPBqv+bHCS5Nck3yQCSeqrBVZVUZ6IAgAANseQEGilde2QewgBgJ3Unw0uUm8VvpUGJKnbQz5URbmoirIjDgAAeHyGhEBbnYsA+EHvk4zFAGyb/mxw3Z8Nxkl+SXIpEUiSPEuyrIpyIgoAAPbF1fFZI/X7hoRA61RFOYyaUeDPfUvyOsn/688Gw/5ssBQJsK36s8GyPxv0kvyW5EYikIMkp1VRLqui7IkDAIA9cNTEF/1vuQMtNBEB8B2XSc77s8G5KIBd058NplVRnqduVHghEcjTJJ+qonyfZNyfDa5FAgBsOc8ztIpNQqBV1luETyQB/MH7JL/0Z4OeASGwy9YVpCdJnqfemgaSl0lW67MCAMDW6s5HmpBoFZuEQNtMRACs3SSZJpnaHAD2TX82WCTprO9lO5UI5CDJu/WgcNifDVYiAQCA+zEkBFrDFiGw9iX1YPBcFMC+688Gk99VkD6TCORZkq9VUb6OF4kAAOBe1I0CbTIUAey190me92eDoz0dEC78X4BbGAqR/myw6s8GvST/SL1lDdQbtsuqKHuiAACAuzEkBFqhKspOfBAK++gmyeskf+/PBsN1vR4At1i/QNFJ8lYakKRuIflUFeVFVZSH4gAAgJ+jbhRoi7EIYK+oFAW4g3W14rgqyovU97Y+lQrkRZJVVZST/mwwFQcAAPwYQ0KgLU5EAHvhfZJzG4MA97P+PXpUFeUk9ctWB1Jhzx0kebO+53zYnw2WIgEAgD+nbhRoXFWUR6mrgoDdpFIU4JH0Z4NJkqMkH6UBSert2s9VUU5VkAIAwJ+zSQi0QU8EsJO+JZmoFAV4XP3ZYJXkpCrKk9QVpF6+guTV+r+LcX82uBAHAAAt12nii9okBNqgJwLYKR+TPO/PBh0DQoDNWQ9CjpK8lQYkqQfmH6qivKiKsiMOAABarJHnVUNCoA16IoCtd5P6Q+m/92eDE5WiAM3ozwbX/dlgnOSXJF8kAkmSF0mW6zs8AQCa9k0EtIW6UaBR6/sIDyQBW/1gO0ly0Z8NrsUB0A792WCZ5KgqyvH697TnLfbdQZLTdS3v2AtNAECDVnFFAC1hSAg0rSMC2Eofk0x9wAbQbv3ZYFoV5XmS89TbVLDvnib5VBXl29R3J3vJCQCAvaVuFGjakQhga6gUfVw+pORWV8dnHSlwH+sK0pMkz6PaCP7lVZJVVZRDUQAAsK8MCYGmGRJC+31L8o8knf5sMO7PBiuRPLzufLSUAt/REQEPYf1yx1GS19KAJHUF6buqKBdVUfpdCwDA3jEkBJp2KAJorcskz/uzQac/G5yr4wLYfuutwkmSv69/zwPJsyRfq6KciAIAgH3iTkKgaR0RQKvcJLlIfUfPShwAu2n9O763rlqcpt6ogn13uv5vYqhWHQCAfWCTEGjaExFAK3xL8lvqStGhASHAfujPBuepX9p6Lw343/PJp6ooL6qi1HoCAMBOs0kIAPvtMsm0PxtciAJgP63rpIdVUZ6n3ip8KhXIiySrqign/dlgKg4AAHaRISEA7B+VogD8h3W94tH6XrZxVJDCQZI3VVGeJBn3Z4OlSAAAeCS9Jr6oulEA2B8qRQH4S/3ZYJLkKPW2OZA8S/K5KsqJClIAAHaJISEA7L7LJL/2Z4NOfzaYrmvlAOC7+rPBqj8b9JL8mvolEyA5TbJcbxYCANzVQgS0hSEhAOyu90n+3p8Neu4cBOAu1n8/jpK8lQYkSZ4k+VAV5UVVlB1xAACwzQwJAWC3fEvyOsn/UykKwEPozwbX/dlgnOSXJF8kAkmSF6m3CseiAABgW/23CABgJ1wmOe/PBuei2GpfkjwVA3/QizoaWqA/GyyTHK2HIpMkB1Jhzx0keVMV5TDJuD8b+F0NAMBWsUkIANvtfZJf1pWi5+LYeu6LBFqvPxtMU1eQfpQGJKlf8PlUFeW0KspDcQAAsC0MCQFg+/yxUnQpEgA2qT8brPqzwUmS5+u/S0DyKsmqKsoTUQAAsA3UjQLA9lApCkCr9GeDRVWUR0nGSU4lAjlI8qEqyssk7ocGAKDVbBICTbsRAfwllaIAtFZ/NrjuzwaTJL+kfqEFSJ4lWVZFOREFAABtZUgINE1NItzuJipFAdgi/dlg2Z8Nekn+ES+CQVJvFZ5WRbmqirInDgAA/kQjd1urGwWAdvmSZGpjEIBt9f/Zu3vstO71bcD3Ouv00n8EIhOQlY5OuKCisFLQ0ERnLVW7sTIC4RFYbnbFWpEbGhWWC1UqjDs6EyYQPIJXnsFbQHKSHNnWBx8buK4+IrrBgPazn/vXLNsXN8XlVZLzJD9LBLKX5MNNcfk2yWmzbN+KBACAf3i2ige1SQgA1fA2yfNm2T4wIARg3c0qSI+TPE/yWSKQZDo0n9wUl8eiAICtNhEBVWGTEABW50umWxYXzbLtCyIAG6dZtgdJarNz2U4zrV+EbbaT5NfZoPBUpTwAbKWJCKgKQ0IAWD6VogBslWbZ7t4UlxdJLpIcSgRymOTTTXH5ava9UAUpAABLp24UAJZHpSjf4wIhd6mJgE3QLNuTZtluJPkp0216IDlLMropLhuiAABg2QwJAWCxviR5leSHZtk+ntWuwdeoHOMuNRGwSZpl+2r2un4jDUiS7CX5cFNcXt0Ul97zAQBYGnWjALAYn5N0bQwCwP+aVSue/qWC9JlUIC+SNG6Ky26zbJ+LAwCARTMkBID5ep/puTIDUQDAtzXL9ijJwU1xeZqkm2RHKmy5nSSvb4rL4yTHs38jAACwEOpGAeDpvmRamfZDs2wfGRACwMPMtqYOMr3ZBphu1366KS7Pb4rLXXEAALAIhoTAqrkzlnX2Ocl/ktSaZfu0WbYnIgGAx2mW7UmzbB8l+Wn2GQskL5OMborLI1EAADBvhoTAqt2KgDX0PsnzZtmuNcv2xexcJQBgDppl+yrTrcJX0oAkyV6SdzfF5eCmuKyJAwBgM41bvYNlP6YhIQDcj0pRAFiSZtm+bZbtbpIfk3yUCCRJDjPdKuyKAgBgIy29Zv7fMgeAb/qcpJvkysYgACxXs2yPkjRuisvT2efxjlTYcjtJzmb1o6duXAOAteT4JSrDJiEA3O1jVIoCQCU0y/Z5klqSt9KAJMmzJB9uisuLm+JyVxwAsD72r09cY6IyDAkB4L++ZHrx8Ydm2W64MxsAqmNWQXqc5Hmmm/5A8nOSyU1xeSwKAAAeSt0oAEwvNJ4nsTHIqk1EwB0ORAD/NbuJpzY7l+1MIpCdJL/OBoXHzbLt+wQAAPdiSAjANvuY5LxZtq9EQUVMRMAdnMEGd2iW7e5NcXmR5CLJoUQgh0l+vykuX82+47r5DQCAb1I3CsC2+WelqAEhAKypZtmeNMt2I8lPs894YLphO7opLhuiAADgWwwJAdgWn5P8kqTWLNtqmABgg8xu+qkleSMNSJLsJflwU1xe3RSXu+IAAOAu6kYB2HQqRQFgC8yqFU9visurTM8afiYVyIskk5vistss2+fiAADgr2wSAqs2EAELolIUALZQs2wPmmX7INMGARWkMD3b9vVNcTm4KS4PxAEAwB8MCQHYJJ+TvEryfypFAWC7zbamDpK8lwYkSQ6TfLopLs9VkAIAVFJj2Q+obhSATfAxyUWzbF+IAgD4w+yGoaOb4vIo0wrSPalAXs7+XZxq3ACAlfmS6bY/rJRNQgDW2dskP84qRS/EAQDcZTYIOUjyRhqQZDowf3dTXF7dFJc1cQDA0o1EQBUYEgKwbv5ZKepLFQDwXc2yfdss26dJfsy0hQBIXiQZ3RSXXVEAAGwfdaMArAuVosDWGrd6u/vXJ7eSgKeb3WDUuCkuT5N0o+YJdpKczWp5T5tleyASAIDtYJMQgKpTKcrW2L8+GUiBrzgQAcxXs2yfJ6kleS8NSJI8S/Lhprg8vykud8UBALD5DAkBqKIvUSkKACzYrIL0KMnzTCvNgeRlkslNcXksCgCAzaZuFIAq+S3JuY1BAGCZZvWKtdm5bGcSgewk+XU2KDxulu2JSAAANo9NQgCq4G2S582yfWBACACsSrNsd5P8kOlZyEBymOT32QAdAIANY5MQWLWJCLbWlyTnSS7cmQwAVMXse0ljtkF1nulGFWy7s79sFQ7EAQCwGWwSAitlOLSVfkvyn2bZ3m2W7a7XAABQ0e+pF0lqSd5IA5Ike0k+3BSXFzfF5a44AADmrrbsBzQkBGBZVIoCAGulWbZvm2X7NMnzTG90ApKfk0xuistTUQAAzFVt2Q+obhSARVIpCgCsvVm94sHsXLbTqCCFnSSvb4rLoySnzbI9EgkAPMgo07N/YaUMCQFYhM9JujYGAYBN0izb3Zvi8iLTm6BeSARymOTTTXH5Ksl5s2zfigQA7sVnJpWgbhSARbgwIAQANlGzbE+aZfsoyU+Z3hgFJGdJRjfFZUMUAADrw5AQAKBavoiAOxyIAKqlWbavZv8230gDkiR7ST7cFJdXN8XlrjgAAKrPkBAAoFqc6cNdXGyFCmqW7dtm2T5N8mOSjxKBJNMqXluFAABrwJAQAAAAnqBZtkfNst1I8ktshEPy363CrigAAKrLkBAAAADmoFm2z5PUkryXBiRJzm6Ky4H6UQCAajIkBAAAgDmZVZAeJXme5LNEIIeZ1o86XxcAoGIMCYEqcH4LAAAbpVm2B0kOkrySBmQvycA5hQAA1WJICAAAAAsw2yrsJvkhboyDnUzPKTwWBQDAnZbevGBICMAiOHMEAGCmWbYnzbLdSPKfJF8kwpb71aAQAHIrAu6ws+wHNCQEYBGcNwIA8A/Nsn2RpJbkrTTYcgaFAGy7kQioAkNCAAAAWJJZBelxkudJfpMIW8ygEABgxQwJAQAAYMmaZXvQLNsHSV5FBSnby6AQAGCFDAkBAKpF5Qh3aYgANlOzbHczrWr/KA22lEEhAMCKGBICAFSLw8sBtkyzbE+aZbuR5KcknyXCFvr1prh0rjkAwJIZEgIAAEAFNMv2VaZbhW+kwRYaGBQCACyXISEAAABURLNs3zbL9mmSH5P8JhG2yE6Si5viclcUAADLYUgIVIFqPQAA+Itm2R41y/ZBkl+SfJEIW+JZkgsxAAAshyEhUAUjEQAAwP9qlu3zJLUk76XBlnhxU1yeigEAYPEMCQEAAKDCZhWkR0meJ/ksEbZA1/mEAMA2Grd6jWU+niEhAItQEwEAwHw1y/YgyUGSV9Jgw+1E7SgAm20iAqrAkBCARdgTAQDA/M22CrtJfkzyUSJssGcHXjPKAAAgAElEQVQ3xWVXDABsov3rk4kUqAJDQgAAAFgzzbI9apbtRpL/JPkiETbU2U1xWRMDAMBiGBICAED11UQA3KVZti9m7xFvpcGGuhABAMBiGBICAFTLQATcQY0z8FWzCtLjJM+TfJYIG+bwprg8EgMAwPwZEgIAAMAGaJbtQbNs15K8igpSNsu5CAAA5s+QEAAAADZIs2x3kxwk+SgNNsTeTXF5LAYAgPkyJAQAAIAN0yzbk2bZbiT5KbYK2QxdEQAAzJchIVAFIxEAAMD8Ncv2VZJakjfSYM3ZJgQAmDNDQqAKbkUAAACL0Szbt82yfZrkxyS/SYQ11hUBALDhast8MENCAAAA2ALNsj1qlu2DJL9EBSnryTYhALDpast8MENCABbiprhsSAEAoHqaZfs8yUGS99JgDR2LAIAN8VEErJohIQAAAGyZZtmeNMv2UZLnST5LhDVyeFNc1sQAAPB0hoQAAACwpZple5DpVuErabBGTkUAAPB0hoQAANUyEQF3Gbd6DSkAi9As27fNst1N8mPUXrEejkQAAPB0hoQAABWyf30ykQIAq9As26Nm2W4k+SXJF4lQYXs3xeWBGAAAnsaQEAAAAPhTs2yfJ6kleSsNKuxYBAAAT2NICAAAAPzNrIL0OMnzJJ8lQgU1RAAA8DSGhEAV3IoAAACqp1m2B82yXUvyShpUzLOb4rImBgCAxzMkBFauWbZHUgAAgEp/Z+8m+SHJR2lQIQ0RAAA8niEhAAAA8F3Nsj1plu1Gkp+SfJEIFXAgAgDA95vHMyQEYFF2RQAAsHmaZfsqSS3JG2mwYg0RALDGJiLgDku9pmpICMCiuKsXAGBDNcv2bbNsnyZ5nuQ3ibAiz0QAwBqbiIBVMyQEAAAAHqVZtgfNsn2Q5JeoIGUFbopLNycCADySISEAAKwHNc5AZTXL9nmmTRLvpYHPRwCA9WBICABQPR9FwB1sSgCV1izbk2bZPkryU5LPEmFJGiIAAHgcQ0IAAABgbppl+yrTGxteSQMAAKrLkBAAAACYq2bZvm2W7W6SH2NDnsVqiAAA4HEMCQEAAICFaJbtUbNsN5L8kuSLRAAAoDoMCYGqcGYJAABsqGbZPk9SS/JeGgAAUA2GhEBVTEQAAACba1ZBepTkedwkCAAAd9ld5oMZEgIAAABL0yzbg2bZriV5JQ0AAPibZ8t8MENCABblQAQAAHxNs2x3k/yQ5KM0AIAtNBIBq2ZICGuuXy+P+/XyWBJU0K4IAAD4lmbZnjTLdiPJf5J8kQiPcCgCANbUrQhYNUNCWEP9ernbr5fdfr28TfJrkppUAACAddUs2xezv2veSAMAAJbj3yKA9dGvlwdJTpP8LA2AjeZuQu6ixhnYaM2yfZvk9Ka4vEpyniWfxwIAANvGkBDWwKxO9Dhfr1Fx0RAW82+vkWTUGRYGNizbKMkLMfAPapyBrdAs24MkBzfFZTfTmyR3pAIAAPOnbhQq6i+VopNMK0W/dc6Ci4awGI0kk369PBUFAMByNct2N9MbIt9LAwAA5s8mIVSMSlGonJ0kr/v18ijJaWdYjEQCALAczbI9SXJ0U1weZVpBuicVAACYD5uEUBH9enncr5eDJJ9iQAhVdJjkU79envfrpe1dAIAlapbtq0y3Ct9IAwAA5sOQEFbogZWim27gFcGaeJlkNNssBABgSZpl+7ZZtk+T/Jjko0QAAOBpDAlhBfr1stavlxdJJknOojIH1s1eknf9ennVr5c1cQAALE+zbI+aZbuR5JckXyQCAMAmGbd6tWU9liEhLFG/Xh7NKkV/z7RSdEcqbLBtqOR8kelWYdfTDQCwXM2yfZ6kluS9NACANXQrAr6itqwHMiSEBZtVip7OKkXfZbsrRdkuz7bk99xJctavl6N+vWx42gEAlmdWQXqU5HmSzxLZTjfFpTPDAVg7+9cnIymwaoaEsCD/qBR9HZWisOmeJfnQr5fn/XrpIgUAwBI1y/YgyUGSV9LYSgciAAB4OENCmDOVorD1XiaZ9OvlsSiAOXMDAsA3zLYKu0l+SPJRIgAA8G3/FgE83Wxr6DjJaVazMeiiISzG5JH/3U6SX2eDwuPOsJiIkgdSOcJdnokA4PuaZXuSpHFTXB4nOY8bNwEA4E42CeEJZpWi51l9paiLhrAYkyf+94dJfu/Xy64oeSCHlwPAEzXL9kWSWpK30gAAgP9lSAiP0K+XjX69vMq0UvRl3JkKfNtZv15O+vWyIQoAgOWZVZAeJ3me5DeJAADAf6kbhXuaVYoeJelmdRuDwPraS/KhXy/fZ1pBalMMAGBJmmV7kOTgprg8z/RGTwAA2Ho2CeE7/lEp+msMCBdlIgK2xIskk369PBUFAMDSXYkAAACmbBLCV8xqAU8zvaDP4k1EwBbZSfK6Xy+Pkpx2hsVIJAAAAADAMhkSwj/06+VxVIoCy3GY5FO/Xr5Kcq6CFAAAAAC2XiPJYBkPpG4U8melaLdfL2+jUhTm5qa4rEnhXs6SjGabhQAALMjsbEIAgKr4TQSskk1CttqsUvQ4yc/SgIWoRZXsfe0ledevl+8zrSCVGwAA3M9BlnS3PQDMmVYpVsomIVupXy+P+/VylORDDAiBanmR6VbhqSgAAOBedkUAAPBwNgnZGv16Wct0a/A0yY5EgArbSfJ6dkbqaWdYDEQCJMm41avtX59MJAEAAAA8lU1CNl6/Xjb69fIiye+Znvu1s6G/Z82zDfNVgeHcsyQf+vXyvF8v3R29RfavTwZS4Ct83gMAAABzYUjIxtrCStGaZx021sskk369PBIFAAAAADAP6kbZKLNNm9NMa0X3JAJskJ0k7/r18mOS486wmIgEAAAAAHgsm4RshH69PJhViv6/TCtFDQiBTXWY5Pd+veyKAgAAAAB4LJuErLV+vTzOdGvwUBprbyQCeJCzP94DK3B2IgAAAACwZgwJWTsqRTdTs2zf3hSXgoCH2UvyoV8v3yY57QyLW5EAAAAAwFrbXdYDqRtlbagUBfiqn5NM+vXyVBQAAN/1WQQAAFTYwbIeyCYhladSFNZaI8lADEuxk+R1v14eZbpVqMIXAOBuk7jpFACohkFc92aFDAmppFml6HGmtaL+eAO4v8Mkn/r18lWScxWkAABsgYYIAAAeTt0oldKvl7VZpegkyesYEAI81lmS0WyzEAAAAADgb2wSUgl/1OPFajVQPV8yrfJcR3tJ3vXr5ftMK0gnns618jluluF/NaLGGQAAAJgDm4SsTL9e7vbr5Wm/Xk6SvIsB4VM1RAALsQln+73IdKvw1NO5ViYiAAAAAGBRbBKydP16WUvSTXKU9d3OAVg3O0le9+vlcaZbhQORAAAAAMD2MiRkaVSKAlTCsyQf+vXyTZJuZ1jcigQAAAAAto8hIQvVr5e7mW4MduNcJb5vnc9+g3XzMslxv14ed4bFlTgAAAAAYLsYErIQs0rR0yTHMfTh/kaxaQrLtJPkXb9efkxy3BkWE5EAAAAAwHb4lwiYp369bPTr5VWS3zPdUjEgBKi+wySjfr3sigIAAAAAVupgWQ9kk5AnUykKfENNBGtjJ8lZv14eZ7pVOBAJALChBtFgAgBUw0QE3GFpy1eGhDyaSlHgHmoiWDt7ST706+XbJKedYXErEgAA/N0BAAsxEQGrpG6UB1MpCrAVfk4ymW0WAgBAlWk1AgB4BJuE3NvsQvFpkmfSANgKO0l+/eP9vzMsRiKBlauJAAAAAJgHQ0K+aVYpepzpcNDGYLXVRAALMYozaw6TfOrXy1dJzlWQLs3Aaw+f9wAAAMCiqBvlTrNK0YtMK0XPYkC4DmoigIUwEPuvsySjfr1siAIAAAAA1ptNQv5GpSgA37GX5EO/Xr7PtIJ0IhIAAAAAWD+GhKgUBeAxXiRp9OtltzMszsUBAAAAAOvFkHCLzerijpP8LA0qwtlvsF52kryebaEfd4bFSCQAAAAAsB4MCbfQHxdzYxhD9Tj7DdbTsySf+vXyTZJuZ1j4twwAAAAAFfcvEWyHfr3c7dfLbr9eTpL8GgNCAObvZZJJv14eiQIAqDA3NAEAUGnjVq+xjMcxJNxw/Xp50K+XF0n+X5KzJHtSAZboQARbZyfJu369HMzOvAUAqBoV6QBAJexfnwykwCoZEm6ofr087tfLQZJPceYgsDo7Ithah0lG/XrZFQUAAIt2U1y6QREA4IGcSbhB+vVyN8lppucN2hgEYNV2kpz9cRZuZ1gMRAIAwILsigAA4GEMCTdAv14eZDoctDEIMH/OrHm6vSQf+vXybZLTzrCQqdcej+dcaQAAAGAu1I2usX69PFIpyl+4aAiL4cya+fk5yWS2WYjXHgAAAAArZJNwzcwqRY8z3RxUKQrAutlJ8utfKkgnIgEAAACA5TMkXBP9ellL0k1ylOkFVgBYZ4dJfu/Xy1dJzlWQAgAAAMByqRutuL9Uiv6eaU2bASEAm+QsyahfLxuiAAAAAIDlsUlYQSpF2WKDTAcGwHbZS/KhXy/fZ1pBaqsQAAAAABbMJmGF9OtlrV8vL5JMkryOASEA2+VFkkm/Xp6KAgAAAIAttruMBzEkrIB+vWyoFAU21U1xuSsFHmAnyet+vRz16+WBOACABRiJAACokC8i4A5LuS6mbnRFZpWiR0m6sTEIbP4H2kAMPNCzJJ/69fJNkq4KUgBgXppl+/amuBTE5nFzIgDrapTkUAysgk3CJZtVip5nWin6awwIAeBbXiYZ9evlkSgAAPgGLRQAAA9kSLgks0rRq0wrRV9GpSgA3Ndeknf9ejno18uaONh241bPpgQAAADwZIaEC9Svl7v9enncr5eTJB+SvJAKi37NSQHmbiKCyjjMdKuwuyW/r/OS+BqbEgAAAMCTGRIugEpRVshFQ5izzrCYSKFSdpKc9evlqF8vG5v8i+5fnziHEQAAAICF+bcI5md2sfI0NgYBYNGeJfnQr5dvk5x2hoWBGgAAAAA8gE3COZhVio6iUhQAlu3nJJN+vTwWBQAAAADcn03CR+rXy1qS40w3B3ckAnMxEQHwCDtJfp0NCo9VxAIAAADA99kkfKB+vWz06+VFkt+TnMWAEOamWbYnUgCe4DDJ7/162e3Xy11xAAAAAMDXGRLe0z8qRX+WCABU1lmS0WzrHwAAAADWzcEyHkTd6DeoFAWY2wfaQAws2V6SoyTnogAA7vAx0xYCAIBVG/lewh2W0pJlSHiHfr08yHQwaGMQYE0+0MBrDwBgq9VEAMCauhUBq2JI+Bf9enmc6eagqT0AAADA+qiJAADgYbZ+SNivl7uZbg0eZ1pNBgAAVabGGQAAAHiyrR0SqhRlQ7loCIvhzBq89qgSVboAAADAk23dkFClKBvORUMAAAAAAOC7tmJIqFIUAAAAAAAA/mujh4T9ellL0o1KUQAAAAAAAPjTRg4J+/XyKNPNQZWisH6cvwUAAAAAAAu2MUPCWaXocabDQZWiAAAAAAAA8BVrPyT8S6XoUZIdTykAMLMrAgDgKybRYAIAVMOtCLjDUr6rru2QUKUowNpoiIAVORABAPAVExEAABUxEgGrslZDQpWiAAAAANzBTeQAAA+0FkNClaIAAPAnVboAAADAk1V6SPiX4eDPniq4FxcNYTEmcWcyXntUhypdAAAA4MkqOSSc1Yqex3AQHspFQ1iMiQjw2gMAAABgk/yrav9D/Xp5mukFMQNCAAAAAAAAWIDKbBLOqkUvolILAAAAAAAAFqoSm4T9enmUZBQDQiC5FQEAAAAAACzWyoeE/Xp5nuRdkh1PB5DpDQMAAAAAAMACrWxI2K+Xu/16eZHkpacBAAAAAAAApsatXm3Rj7GSIWG/Xu4mGST52dMMsPFqIsBrDwComIEIAICKmIiAr6gt+gGWPiT8y4DwmecXYCvsiQCvPQAAFu2muNyVAgDrZv/6ZCIFVmUVm4SDGBACAAAAMF8HIgAAuL+lDglnZxAaEAIAwOPVRAAAAAA81dKGhP16eRpnEMKiuWsSFmMkArz2qBBVugAAAMCTLWVI2K+XjSSvxQ0LtyMCWIhbEeC1BwAAAMAmWfiQsF8vd5NciBoAAAAAAACqYRmbhOdRiQQAAAAAAACVsdAh4axm1DmEwEM4fwsAAAAAABZs0ZuE5yIGHsj5WwAAAAAAsGALGxL26+VxkmciBgAAACrGzYkAAFTdwaIfYJGbhF3PHwBJclNcNqTAKsyqzwEA/qZZth1zAABUyUcRcIfdRT/AQoaEsy3CPc8fLN1nEQAAALClDkQAAHB/i9okPBUtLNXHJD91hkVNFAAAAGypXREAANzf3IeE/Xp5EGcRwjJ8SfI2yQ+dYdHoDIsrkcDCOLMGrz0qZdzqNaQAAAAAPMUiNgmPxQoL9TnJL0lqnWFx3BkWE5HAYnWGhTNrWIn96xOvPQAAAAAW4t8L+JlHYoWF+JjkojMsLkQBK/FjkvMkh6IAAAAAANbdXIeEs6rRPbHCXL1Ncm6TCVZr9m+w0a+Xx5kOC3ekAgAAAACsq3nXjdoihPn4nORVkv+bVYpu04DQ+VtU2mybt5bpAB8AAAAAYC3Nu260IVJ4kq2vFG2W7dFNcemVQKV1hsVtkuN+vbxIchFb9AAAAADAmpn3kNA5TfA4KkVhDXWGxSBJrV8vu0nOJAIAAAAAzMnuoh9gbnWjs/MIgfvb5kpRfKBtlM6w6Cb5IdNtYKqlJgIA4Ct+EwEAUBETEXCHhc/d5rlJuOv5gnv/IXq+zZWibO0H2tUm/4KdYTFJ0ujXy6NMK0h3PO2VUBMBAPAVzkMHAKpiIgJW4V9z/FkNccI3vU3yvDMsDgwIYXN1hsVVpoOpN9IAAIClaogAAOD+/i0CWKgvSc6TXMy2jIAt0BkWt0lO+/XyavYe8EwqwJzVRAAAAAA8xTyHhA1xwp9UigLpDItBkoN+vTxN0o0KUh7/mWLQzD/VRAAAAAA8xb9EAHOlUhT4H51hcZ7puYzvpcEjOC8JAAAAgLlTNwpPp1IU+K7Z+8NRv14ezd4z9qQCAAAAAKyKTUJ4vM9J/pOk1hkWXQNC4D46w+Iq063CN9IAAAAAAFbFJiE83PtMzxsciGJhPseWFRusMyxuk5z26+VFpluFh1IBAAAAAJbJkBDu50uSi0yHgxNxLNwkhoRsgc6wGCVp9OvlaZJukh2pAAAAAADLoG4Uvu2vlaKnBoTAInSGxXmSWqabygAAAAAAtUU/gE1CuJtKUZivAxF826yC9KhfLxuZbi7bpvXaAwAWaxC17wBAdb6XnImBf1j49UFDQvivL0muknRtDMLc7YrgfmY3J9T69bLry6HXHgAAD1ITAQDA/akbhWml6C+ZVooeGxACVdAZFt0kPyT5KA0AALgXbRwAAA9gk5Bt9jHTStErUQBVNLtpodGvl8dJzpPsSAWYUaULAAAAPMk8Nwkn4mQNfEnyNskPnWHRMCAE1kFnWFxkWp30VhpbaSAC7qBKFwAAAHiSeW4STsRJhX3OdAvnojMsbsUBrJvZe9dxv15ezN7PnkkFAAAAAHgsdaNsOpWiwEbpDItBkoN+vewmOY0KUgAAAADgEf4lAjaUSlFgo3WGRTfTM8k+SgMAAAAAeCibhGySz0kuMt0cVCm63gZJDsUA39YZFpMkjX69PMq0gnRPKgAAAADAfRgSsgk+ZnrW4IUogG3UGRZX/Xo5SNJN8lIiAAAAAMD3qBtlnb1N8uOsUvRCHMA26wyL286wOE3yY5LfJPKnXREAAF8xEQEAUBGa8bjTuNVrLPLnGxKybj4neZXk/zrD4rgzLEYigbWgPnZJOsNi1BkWB0l+SfJFInkmAgDgKyYiAACqYP/6xHVuVsKQkHXxMcl/OsOi1hkWXWcOAnxbZ1icJzlI8l4aAABsi5vi8kAKAAD340xCqu5tpucNDkQB8DCdYTFJctSvl40kF0n2pAIbQ5UuAPiMBAB4EpuEVNGXTCtFf5hVig5EAvB4s/fRg9l7K+tnIgLuoEoXAAAAeJJ5bhIOkpyJlCf4Lcl5Z1hciAJgvmY1zd1+vbxKch7nRK6TiQgAAAAAmDd1o1SBSlGAJekMi1GSRr9eHmc6LNyRCgAAAABsH3WjrIpKUYAVmm1t1zK9UQMAAAAA2DI2CVm2z0m6KkX5jokIYPFmFaTH/Xp5keQiyZ5UAAAAAGA7GBKyLO8zPW9wIAruYSICWJ7Ze3OtXy+7cb4wAAAAAGwFdaMs0pckbzKtFD0yIASots6w6Cb5IclHaQAAAADAyu0u8ocbErIIn5P8J0mtMyxOO8NiIhLgprisSaH6OsNi0hkWjSQ/ZXqzx9rr10uvPQDgfzTL9kAKAECF/CYC7nCwyB+ubpR5UikKfEstqmTXRmdYXM2Ga90kL732AABYE7siAGBN3YqAZTMk5Km+JLnIdDg4EQfA5ugMi9skp/16eZXkPMkzqQAAUHEHSa7EAADwfepGeSyVogBbojMsBp1hcZDkl2xIBSlsgnGrdyAFAAAA4LHmuUloFXY7fMx0a9BdeQBbpjMszv+yVfhCIkszEgFfoU4NAAAAeLS5bRJ2hoULWJvrS5K3SX7oDIuGASHA9uoMi0lnWBwl+SnTrXIWbP/6xI1YAAAAAMydulG+5XOm1XK1zrA4VikKwB9mN4wcJHkjDQAAAABYP/8WAXdQKQrAd3WGxW2S0369vMi0gvRQKgAAAACwHgwJ+cOXJFdJujYGqQD1xbBGZpXjjX69PE3STbIjFQAAAACoNnWjfE7yKipFqZBm2Xb+FqyhzrA4T1JL8l4aAAAAAFBtNgm318ckF51hcSEKAOZlVkF61K+XjSQXSfakAgBU2JdoQQAAqsHiBHepLfKH2yTcPm+T/NgZFg0DQmDJGiLYHp1hMegMi1qm2+peewBAVTnqAADwvYQqqy3yhxsSboc/KkX/b1Yp6s0GgKXoDItukh8y3WAHAIBFq4kAAOB+1I1uts9JujYGAVil2Xm3jX69PE5yHpVeMC8X41bvdP/65EoUAPCnmggAAO7HJuGGMyAEoGKfSbVMq695mC8i4A57Sd6NW72rcatXEwcAAADwEPMeEv4m0krZEwEAVdIZFredYXGc5LnvDQ+iKpxveZFkNG71uqIAAAAA7mveQ8JbkQIA39MZFoPOsDjI9MxcW3LwdDtJzsat3mjc6jXEAQAAAHyPulEAYGU6w6Kb5CDJR2nAXDxL8mHc6p2PW71dcQAAAABfY0gIVJXNItgSnWEx6QyLRpKfknyWCMzFyySTcat3LAoAAADgLoaEQFU5fwu2TGdYXGW6VfhGGjAXO0l+Hbd6g3GrVxMHAAAA8FeGhABAZXSGxW1nWJwm+THJbxKBuThM8vu41euKAgAAAPiDISEAy+JsLO6tMyxGnWFxkOSXPL1+2GsPps7Grd5k3Oo1RAHwJw0mAEBVTETAHQ4X+cMNCQFYlgMR8FCdYXE+e+2899qDudhL8mHc6l2NWz0DdIDkVgQAQEVMRMCyGRICAJXWGRaTzrA4SvI8yWeJwFy8SDIZt3qnogBgwxyKAADgfgwJAYC10BkWg0y3Al9JA+ZiJ8nrcas3GLd6Nm4BAABgyxgSbrh+vXTBB4CN0RkWt51h0U3yY5KPW/SrTzz7LNBhkk/jVq+rghQAAAC2x7yHhAORVo4LPQBsnM6wGHWGRSPJf5J82YJfeeJZZwnOkozGrd6RKAAAAGDz2SQEANZWZ1hcJKkleSsNmIu9JO/Grd7VuNWriQMAAAA2lyEhALDWZhWkx0meJ/ksEZiLF5luFZ6KAgAAADaTISFQVSMRAA/RGRaDzrCoJXklDZiLnSSvx63eaNzqNcQBAAAAm8WQEKiqWxEAj9EZFt0kPyT5KA2Yi2dJPoxbvfNxq+e8awAAANgQhoQAwMbpDItJZ1g0kvwUNx3AvLxMMhm3ekeiADaI7wkAAFTaIm/YNSQEYFkORMCydYbFVWdYGGjA/OwkeTdu9QbjVq8mDmADOOYAAKiE/euTgRT4ioVdVzUkBGBZdkQAsDEOk/w+bvW6ogCgam6KS/XYAAD3YEgIAAA81tm41ZuMW72GKACoEC0mAAD3YEgIAFB9zkuiyvaSfBi3eheLPCcBAAAAmK95DwldwKqehggAYO05L4l18HOSybjVOxUFAAAAVN+8h4QuYAEAwPbaSfJ63OoNxq2eqjcAAACoMHWjAADAvB0m+TRu9boqSAEAAKCaDAkBAKpvIgLW1FmS0bjVa4gCAAAAqsWQEKiqgQgApvavTyZSYI3tJfkwbvWuxq1eTRwAAABQDYaEAADr4bMIWHMvMt0qPBUFAAAArJ4hIQBLc1NcOpcKHm8iAjbATpLX41ZvNG71DsQB+HwFAPgbNwhzl4X9/WxICMBGfKDBFhiJgA3yLMmncat3Pm713EACrEyzbE+kAABUiO8m3GVhfzcbEgIArAdDQjbRyySTcat3JAoA5qgmAgCA7zMkBABYD4aEbKqdJO/Grd5g3OrVxAHAHPg8AQC4B0PCzae+CQA2wP71iSEhm+4wyWjc6nVFAQAAAIs37yGhi1fV4/wvANgcH0XAhttJcjZu9SbjVq8hDgAAAFicuQ4JO8PiVqQAAAszEAFbYi/Jh3GrdzFu9TRjAAAAwAKoGwUAWB9XImDL/JxkMm71jkUBAAAA82VICFTVRAQAfzc7l/CLJNgyO0l+Hbd6g3GrVxMHAAAAzIchIVBJzbI9kQLAnWwTsq0Ok/w+bvW6KkgBAADg6QwJAQDWiyEh2+4syWjc6jVEAQAAAI9nSAjAMtVEAE+zf31yFZWjsJfkw7jVu7JVCMzBRxEAABUxEgF3aCzqBxsSArBMNRHAXNgmhKkXSSbjVu9UFAAAwAa4FQHLZEgIALB+zkUAf9pJ8nrc6o3Grd6BOADIAu+2BwDYJIaEAABrZv/6ZJTkN0nA3zxL8mnc6p2rIAUAAIDvMyTcfI0UrdoAACAASURBVDURAMBGsk0Id3uZZDRu9Y5EAQAAAF+3iCGhA7+rZU8EALB59q9PLpJ8kQR89Tvwu3GrNxi3ejVxAAAAwP+ySQgAsL5sE8K3HWa6VdgVBQAAAPydISEAwPo6j21C+J6dJGfjVm80bvUa4gAAAIApQ0KgytQXA3zD/vXJbWwTwn09S/Jh3Oqdj1u9XXEAAACw7QwJAQDWm21CeJiXSSbjVu9YFAAAAGwzQ0IAgDVmmxAeZSfJr+NWbzBu9WrigK13KwIAwPcSKmxhf7caEgKwTA0RwPztX590k3yWBDzYYZLfx61eVxSw1UYiAAB8L6HC9hb1gw0JAQA2w6kI4NHOxq3eZNzqNUQBsBGcPQsAcA+GhAAAG2D/+uQqyUdJwKPtJfkwbvWuxq2ei8sA6+2ZCAAAvs+QEABgcxwn+SIGeJIXSSbjVs92LgAAABttEUPCiVirpV8vG1IAgM23f30ySdKVBDzZTpLX41ZvMG71DsQBAADAJjIkBADYIPvXJ+dROwrzcpjk07jVO1dBCgAAwKZRNwoAsHmOo3YU5ullktG41TsSBQAAAJvCkBCoslsRADzcrHb0WBIwV3tJ3o1bvatxq1cTBwAAAOvOkBCospEIAB5n//rkKskbScDcvch0q7ArCgAAANaZISEAwIbavz45TfKbJGDudpKcjVu90bjVa4gDAACAdWRICMAy1UQAS9eI8wlhUZ4l+TBu9c7Hrd6uOGBtaTABAHwvodLGrd7BIn6uISEAy7QnAliu/euT2xgUwqK9TDIZt3pHooC15Cx0AKBKf8PDXRZyY6ohIQDA5v+RMUpyLAlYqJ0k78at3mDc6tXEAbBaN8XlgRQAAL7NkBAAYAvsX59cJfmPJGDhDpP8Pm71uqIAWCk10AAA32FI6IsxALAl9q9PLmJQCMtyNm71JuNWryEKAAAAqmgRQ0IHa1aPig0AIMmfg8K3koCl2EvyYdzqXYxbPTfuAQAAUCmLGBI6WBMAoML2r0+OY1AIy/Rzksm41TsVBQAAAFWhbhQAYAvNBoWqR2F5dpK8Hrd6g3Grp+kDAACAlTMkBKpMfTHAAjmjEFbiMMmncavXVUEKAADAKhkSAlWmvhhgwf4yKPwiDViqsySjcat3JAoAAABWwZAQAGDLzQaFjRgUwrLtJXk3bvWuxq1eTRywMm5OBACg6hbSRGNICMBS3RSXzmGCCtq/PhklOUjymzRg6V5kulV4KgpYvmbZdswBAFAlH0XAHRZyTdWQEIBlc/4SVNT+9ckk043Ct9KApdtJ8nrc6o3GrZ4bagAAAFg4Q0IAAP60f31yu399chznFMKqPEvyadzqnY9bPTfWADxeQwQAAN9mSAgAwP/4yzmF6kdhNV4mmYxbvSNRAAAAsAiLGBI68Lt6aiIAAB5q//pktH99cpDkjTRgJXaSvBu3eoNxq+c7PQAAAHM19yFhZ1g48Lt6aiIAAB5r//rkNMnz2CqEVTlMMhq3el1RAAAAMC/qRgEA+K7965PBbKvwlTRgJXaSnI1bvcm41WuIAwAAgKcyJASqTH0xQMXsX590k/yQ5KM0YCX2knwYt3oX41ZvVxwAAAA8liEhUFnNsq2+GKCC9q9PJvvXJ40kPyX5IhFYiZ+TTMat3rEoAAAAeAxDQgAAHmX/+uQq07OP30gDVmInya/jVm8wbvUOxAEAAMBDGBICsGyq0WCD7F+f3O5fn5wmeZ7kN4nAShwm+TRu9boqSOHRPosAAKiIiQi4Q20RP9SQEIBls+kAG2j/+mSwf31ykORVVJDCqpwlGY1bvYYo4MEmIgAAfC+hwmqL+KGGhAAAzM3+9Uk305sB3ksDVmIvyYdxq3dlqxDYcjURAAB8myEhAABztX99Mtm/PjlK8lPUt8GqvEgyGbd6p6IAtlRNBAAA32ZICADAQuxfn1xlulX4RhqwEjtJXo9bvdG41VP3DQAAwN8sakjojvFqcUEAAFiJ/euT2/3rk9MkPyb5KBFYiWdJPo1bvXMVpAAAAPxhUUPCiWgrZUcEAMAq7V+fjPavTxpJfknyRSKwEi+TjMat3pEoAAD+P3v3rxw1svZx/Pe+dXLzXoFnb0D2Zso8G0zUAd5gEifMVilSwuwVWFwB40RRVzEkShRgAkUKPM6cMfQNIF/Bsa9g36DFLrBgbLD+jb6f7FSdguUBt9T96Pk1AIC4UQAAALQmKKKV/B1Bb6kG0Il9SW+csRtn7IRyAAAAAL1D+gdaQ5MQQN8RXwwAO6aOID2W9BvrPNCZI/mpwoRSAAAAAN1zxi6csRv5BBCgFf+hBAB6rpL/4h0AsGOCItpImtRNilMqArRuT9JpHT+6rH8mAQAAALSkvjN8IWkpzkDRASYJAQAA0KmgiBJJv0i6pBpAJw4kXThj1/UhBQAAAIAGOWMnzti1/IDES9EgREdoEgIA2jahBAC+FBRRFRTRVNIfkm6pCNCJZ5IqZ+yCUmCENpQAAAA0zRl7XEeKfqjfv/eoCu7psIlflCYhAKBtE0oA4FuCIlrX68QZ1QA6sSfplTN244zlmQ0AAAD8JGfsE2fs0hlbSXojfz848CN7tUdHkxAAAAC9EhTRTVBES0m/SXpPRYBOHEn6UN8ZCgBDdEgJAABdIlIUQ0CTEAAAAL0UFNEmKKJDSS9EBCnQlVNnbOWMnVIKAANDfBsAoBPO2CmRohgKmoQAAADotaCIEvlpgEuqAXRiX9KFM/bcGfuEcgAAAACfqyNFF3Wk6IWIFMVANNUk3FDafsnCdEoVAADAUAVFVAVFNJX0u6RrKgJ04qmkyhm7pBQAAADA35GiK/lI0VciUhQDwyQhAAAABiMoonP5qcIzqgF0Yk/SS2fsxhnLfV8AAAAYpTpS9Fw+UvS5iBTFQP2HEgAAAGBIgiK6kbSsL4BfSzqgKkDrjiS9c8aeSUrqn0sAAABgZ9XR+8eSEjExiB3BJCGAvttQAgDA1wRFtA2K6FDSn5JuqQjQieeSts7YY0oBAACAXUSkKHYZTUIAAAAMWlBEK0kTSW+pBtCJfUlvnLHnztgJ5QAAAMAuIFIUY0CTEAAAAIMXFNFNUETHkn6TdE1FgE48lZ8qTCgFBojIXAAAIElyxi6csVtJF/U7LtCXf5tPHvvXpEkIAGjbESUA0JSgiDaSDiW9oBpAJ/YknTpjt87YKeXAgGwpAQAA41VHiibO2Bv5SNEDqoIeOnzsX5AmIQAAAHZKPVWYSPpF0iUVATpxIOnCGbtq4mtXALiPMs5ZfwAAd6ojRdfykaKnIlIUI0OTEAAAADspKKIqKKKppD8k3VIRoBPPJVXO2AWlANCBQ0oAAPiaLyJFn1ERjBVNQgAAAOy0oIjWkiaSXlMNoBN7kl45YzfO2AnlAAAAQBeIFAX+rakmIRd+9w+bcQAAMFp1BOlC0m+SrqkI0IkjSR+csQmlAAAAQFucsYdEigJf11STkAu/+2dCCQAAwNgFRbQJimgi6YWIIAW6cuqMrZyxU0oBAACAptSRohtJ70SkKPBV/6EEAAAAGJugiJL6S9K1/HQTgHbtS7pwxr6WtAyKiDQaAAAA/DRn7BNJS0mL+p0TwB24kxBA31WUAADQhKCIqqCIppJ+F1OFQFeeSaqcsUtKAQAAgB/1SaTof+UjRWkQAvdAkxBA31WUAADQpKCIzuWj2c+oBtCJPUkvnbEbZ+wh5QAAAMB9ESkK/BziRgEAADB6ddTh8pMI0gOqArTuSNI7Z+wLSSsiSAEAAPA1RIoCj4dJQgBA68o4n1AFAH0UFNE2KKJDSX+KCFKgK6eSts7YY0qBFm0pAQAA/eaMndQfdlYiUhTjNHnsX5AmIQBgJx5oAPCYgiJaSTqU9JZqAJ3Yl/TGGXvujOW9AY2bpXMmVwEA6Cln7HEdKfpBPlJ0j6pgpB59b0TcKAAAAPAVQRFVko6dsVP5CFK+UgXa91TS1Bmb1M17AHiICSUAgGGqI0UX8rGi7MWAhjBJCAAAMEBZmCZZmK6zMH1CNZoVFNFGfqrwBdUAOrEn6aUzdls37QHgviaUAACG5YtI0ZeiQQg0iiYhAADAcD2TtM3C9JBSNCsoopugiBJJv0q6pCJAJw4kXThjV/WX5QAAANgRRIoC3WiqSciF3/3D4SEAALtpX9K7LEwTStG8oIi2QRFNJf0p6ZaKAJ14Lqlyxh5TCgAAgOFyxj5xxi6dsZWkN5KOqArQrkaahCdXMRd+9w9f2gIAsFs2X/zv0yxMqyxMp5SmefXdaBNJr6kG0Ik9SW+csRtn7IRyAAAADEcdKboSkaJA54gbBQAA2B37ki64q7AddQTpQtJvkq6pCNCJI0lbZ2xCKQAAAPrNGTt1xp7LR4o+F5GiQOdoEgLoO+KLAeDhnkmqsjBdUIrmBUW0CYpoIukF1QA6sSfp1BlbOWOnlAMAAKA/6kjRRR0peiHpKVUB+oMmIYBem6Vz4osB4MfsSXqVhekmC1PuJm5BUESJpF8kXVINoBP7ki6csWtnLNPUAAAAHfoiUvSViBQFeokmIQAAwG47kvQuC9OECNLmBUVUBUU0lfS7pFsqAnTimaTKGbugFHgg1m0AAH4SkaLAsNAkBAB0gakmoH2nkrZZmE4pRfOCIjqXNJF0RjWATuxJeuWM3Thjee/AfXHVAQAAP4hIUaAV08f+Bf9DTQEAHWCaCejGvqSLLEzfSlqcXMVEOjcoKKIbScv6K9qVpAOqArTuSNI7Z+wLSav65xIAAACPwBk7kbSQtBQTg8AgMUkIAAAwPk8lVVmYLilF84Ii2gRFdCjpTxFlB3TlVNLWGTulFMCo8DMPAA2oI0XX8pGip6JBCAwWTUIAAIBx2pP0MgvTbRamRPG1ICiilXzc8luqAXRiX9KFM/a8/uodAAAAD1BHim7lI0WfURFg+GgSAgAAjNuBpHdZmK6yMCUKuGFBEVVBER1L+l3SNRUBOvFUfqqQaWoAAIDvcMZOnLGJM/ZG0itxjQKwU5psEl5S3l45ogQAAOyU6pF/veeStlmYHlPa5gVFdC4/VXhGNYBO7El66YzdOmOZpgYAAPgCkaLAODBJCAAAMEAnV3HVwC+7L+lNFqabLEwnVLlZQRHdBEW0lPSr+MAO6MqBpHfO2JUzlmlqAAAwenWk6EZEigKjQJMQwBDcUgIAaNWR/FRhQimaFxTRNiiiqaQ/eeYBnXkuH0HKNDUAABgdZ+yTOlK0ko8UJZUOGAmahACGYEsJAKB1e5JOszDdZmE6pRzNC4poJWki6S3VADqxL+mNM3bjjJ1QDgAAsOucsYd1pOh/5SNF96kKMC40CQEAAHCXA0kXWZiuszAliq9hdQTpsaTfJF1TEaATR/JThQmlAAAAu+iTSNF3IlIUGDWahACALtBoAIbnmaQqC9MFpWheUESboIgmkl5QDaATe5JOnbFbZ+yUcoxGRQkAALuKSFFgJzz6mSpNQgBAFw4pATBIe5JeZWG6ycJ0QjmaFxRRIukXSZdUA+jEgaQLZ+zaGctHTruvogQAgF3jjJ0QKQrs1P7kUdEkBAAAwEMdSfqQhWlCKZoXFFEVFNFU0h+SbqkI0Ilnkipn7IJSAINCcx/AaDljj+tI0Q8iUhTAN9AkBAAAwI86zcK0ysJ0SimaFxTRWtJE0hnVADqxJ+mVM3bjjJ1QDmAQDigBgDGpI0WXdaToGxEpCuA7aBICAADgZ+xLusjC9DwLU77Wb1hQRDdBES0l/SbpPRUBOnEk6UN9pw/rHgAA6NwnkaKVpJciUhTAPTXZJKwob79wcAcAABr0VFKVhemSUjQvKKJNUESHkl6ICFKgK6eSts7YKaUAAABd+Eqk6B5VAfAQNAnH5ZASAACwUy579t+zJ+llFqabLEx572hBUERJ/Y53STWATuxLunDGnjNVCAAA2kCkKIDHRNwoAAAAHtuRpHdZmK5IMmheUERVUERTSb9LuqYiQCeeSqqcsUxTAwCARhApCqAJNAkBDMGWEgDAID2XtM3C9JhSNC8oonP5qcIzqgF0Yk/SS2fsxhnLNDUAAHgUztipM/ZcRIoCkN4/9i/4H2oKYABuKAEADNa+pDdZmL6VtDy5iitK0pygiG4kLesvjNeSDqgK0LojSe+csWeSkvrnEgAA4N7qGPNjSYmYGATwj0ffWzBJCAAAgDY8lZ8qTChF84Ii2gZFdCjpT0m3VAToxHNJW2cs09QAAOBe6kjRlXyk6CvRIATQMJqEAIAuEMEFjNOepNMsTLdZmE4pR/OCIlpJmkh6SzWATuxLeuOMPXfGTihH720oAQCgC19Eij4XkaIAvu7Rr+WiSQgA6MJeGeerMs6fUApglA4kXWRhusrClHWgYUER3QRFdCzpN0nXVAToxFP5qcKEUgAAAMlHijpjF87YStJF/b4AAHchbhQAsDOeS6rKOCeCCxj5OpCFKetAC4Ii2shPcr+gGkAn9iSdOmO3ztgp5QDaUcY5KSYAeqWOFE1EpCiAh2OSEACwU/YkvSnjfFPG+YRyAONdB7Iw3WRhyjrQsHqqMJH0i6RLKgJ04kDShTN25YxlmhpoHj9nAHqhjhRdy0eKnopIUQAPVz32L0iTEADQB0eStmWcJ5QCGPU68CELU9aBFgRFVAVFNJX0h6RbKgJ04rmkyhm7oBQAAOyuOlJ0Kx8p+oyKAPiJvfygJgm3/JX1DhEbAPpsT9JpGedVGedTygHcS7WDf6bTLEyrLExZB9rZYKwlTSS9phpAZ+8/r5yxG2fshHIAALAbPkaKOmNv5CNFD6gKgJ/USBpQk03CG/7OeoeIDQBDsC/poozzdRnnrFvA3apdXgeyMF1nYco60LA6gnQh6TdJ11QE6MSRpA/1/UQAAGCgiBQF0KBGBvOIGwUA9NUzSVUZ5wtKAYx7HcjCdEkpmhcU0SYooomkFyKCFOjKqTO2csZOKQUAAMNBpCiAFmya+EVpEgIY7QKIQdiT9KqM800Z5xPKAYx2HXiZhekmC1Oi01sQFFEiH1N/STWATuxLunDGnjtjmaYGAKCnnLFP6kjRSkSKAmjepolflCYhAGAIjiR9KOM8IYIUGPU68C4L04QI0uYFRVQFRTSV9LuYKgS68lRS5Yxlmrols3S+EdPUAIDvcMYe1pGi/5WPFN2nKgAa9j4ookau+KNJCAAYklNJ2zLOp5QCGPc6kIXpMaVoXlBE55Imks6oBtCJPUkvnbEbZyzT1C2YpfNETFMDAL6ijhTdSHonIkUBtGvd1C9MkxAAMDT7ki7KOD9nqhAY9TrwJgvT8yxMJ5SjWUER3QRFtJT0q6T3VAToxJGkd3WkGe8/DZul82qWzqfy09TXVAQAxusrkaJHVAVAB86b+oVpEgIAhuqppKqMcyK4gHGvA9ssTFkHWhAU0TYookNJf4ooPqArp5K2zlimqVswS+fn8lOFTFMDwMgQKQqgR94HRVQ19YvTJAQADNmepJdlnG/LOCeCCxjxOpCF6TYLU9aBFgRFtJI/NH9LNYBO7Et644w9d8ZOKEezZun8ZpbOmaYetiklAHBfzthjIkUB9MyqyV+cJiEAYBccSHpXxvmKCFJg3OtAFqarLExZBxoWFFEVFNGxpN9EFB/QlafyU4VMU7dgls63s3TONDUA7KA6UnRZR4q+EZGiAPrjVg1GjUrNNglv+PsDALTsuaRtGedEcAHjXgeqLExZB1oQFNFGfqrwBdUAOrEn6aUzduuMnVKO5s3SOdPUALAjnLGTOlK0kvRSRIoC6J/zoIga7bU11iQ8uYq3/P31DptGAGOwL+lNGeebMs4nlAM7jvetr9uT9CYL000WpqwDDQuK6CYookQ+iu+SigCdOJB04YxdOWOZpm7YLJ1Xs3TONDUADNQnkaIf5CNF96gKgJ5Kmv4NiBsFAOyqI/mpwoRSYIeR3HCPdSALU9aBFgRFtA2KaCqi+IAuPZdUOWOZpm7BLJ1vxDQ1AAwCkaIABuh1UERV078JTUIAQ1BRAvygPUmnZZxvyzifUg5gvOtAFqZVFqasAy0IimglaSLpNdUAOlv33jhjN87YCeVo1iyd38zSeSKmqQGgl4gUBTBgSRu/CU1CAEPYeFdUAT/pQNJFGeerMs6J4ALGaV/SRRam6yxMWQcaVkeQLkQUH9ClI0kfnLEJpWhlz7KdpfOppD/ENDUAdM4ZOyVSFMCAtTJFKNEkBACMy3NJVRnnC0oBjNYzSVUWpqwDLQiKaBMU0URE8QFdOnXGVs7YKaVo3iydr8U0NQB0oo4UXdSRohciUhTAMN1KWrb1m9EkBACMzZ6kV2Wcb8o4n1AOYLzrQBammyxMDylH84IiSiT9IqL4gK7sS7pwxq6dsUxTN6yOIF2IaWoAaEUdKbqSjxR9JSJFAQxbEhTRTVu/GU1CAMBYHUn6UMZ5QimAUa8D77IwTYggbV5QRFVQRFNJv4soPqArzyRVztgFpWjeLJ1vZul8Ij9NzboHAI+sjhQ9l48UfS4iRQEM3/ugiFZt/oY0CQEAY3daxnlVxvmUUgDjXQckbbMwZR1oQVBE5/JRfGdUA+jEnqRXztiNM5Zp6hbM0nki6VBMU3dlQgmA3fGVSNGnVAXADlm0/RvSJAQwFGyo0aR9SRdlnJ+Xcc40ETDidSAL03OmCpsXFNFNUERL+Si+91QE6MSRpHfO2IQI0ubN0nk1S+dTMU3dhQklAIaPSFEAI/BnUETbtn9TmoQAAPzjqaSqjPMlpQDGvQ5kYco60IKgiDZBER1K+lMcmgNdOZW0dcZOKUXzZumcaWoAeIA6UnQtIkUB7LbLtmNGP2q6ScgF3f3C16EYsi0lQEv2JL0s43xTxjkRXOi7G0rQ3DqQhek2C1PWgRbUm6FDSW+pBtCJfUkXzthzZ+yEcjRrls5vZumcaWoAuEMdKbqVjxR9RkUA7LBrScdd/eb/89dffzX2i2dhupGPMEFPnFzF/0MVMET1ZNdLKoEOnElKZumcZgx6KQvTv6hCO+vAyVXMOtACZ+yxpJWIkAK6cisp6epL5hHvdRIxHdOUyzrqFUD/3wMn8vdxLVkTAYzo3XvaRczoR8SNAhgKJgnRleeStmWcH1MKYNzrQBamrAMtCIroXH6q8AXVADqxJ+mlM3brjGWaugWzdM40NYBR+yJS9FQ0CAGMx6LLBqFEkxDAcNAkRJf2Jb0p4/y8jPMJ5QDGuw5kYbrJwpR1oGFBEd0ERZRI+lXSJRUBOnEg6Z0zduWM5eqKhs3SeTVL58eSfhdXtwAYCSJFAYzcH/VHsp2iSQhgKJvmGzbL6IGn8lOFS0oBjNaR/FRhQimaFxTRNiiiqaQ/5WNYALTvuaSqjgJG8/sepqkB7DRn7BNnbOKMvZH0Sv6jFAAYmz+CIlr34T+EJiGAIdlQAvTAnqSXZZxvyzifUg5gtOvAaRam2yxMWQdaUN+NNhFRfECX694bZ+ymvi8KDZql85tZOk/ENDWAHeKMPawjRf8rIkUBjFtvGoQSTUIAw7KhBOiRA0kXZZyvyjgnggsY8TqQhek6C1PWgYbVEaTHkn4T6QJAV44kbZ2xCaVo3iydb2fpfCqmqQEMWB0pupH0TkSKAkCvGoQSTUIAw3JOCdBDzyVVZZwTwQWM1zNJVRamC0rRvKCINkERTUQUH9CVPUmnztitM3ZKOZo3S+cfp6lfUw0AQ/BJpGglHyl6RFUAjNytetgglGgSAhjW5vhG0nsqgR7ak/SmjPNNGecTygGMdh14lYXpmlK0IyiiRNIvIooP6MqBpAtn7NoZyzR1C3uhWTpfiGnqH3FICYB2fCVSdJ+qAIBuJU372CCUaBICGJ41JUCPHUn6UMZ5QimA0SJCqUVBEVVBEU0l/SGi+IAu173KGbugFM2bpfPNLJ1PxDT1Q3DvGdAwIkUB4JsuJU2CItr29T+QJiGAoSFyFENwWsZ5Vcb5lFIAQPPqLzInks6oBtCJPUmvnLEbZ+yEcjRvls4TMU0NoENEigLAd70IimgaFNFNn/8jm24Sbvh30C9ZmLJhw9A3w5WIHMUw7Eu6KON8XcY5EVxoEmsiICkoopugiJbyUXz8XADdOJL0oT405v2nhb3RLJ1PxTQ1gBY5Yyd1pGglIkUB4GuuJf1WX5HRe0wSjs+EEmAHrCgBBuSZpKqM8wWlQENuKAHwj6CINkERHcpH8XFoDnTjVNLWGTulFM2bpfO1mKYG0DBn7HEdKfqh3ucS5QsA//ZC0mFQRJuh/AfTJAQwROfi0A/DsifpVRnnmzLODykHADSv/mrzUNJbqgF0Yl/ShTP2nKnC5s3S+c0snTNNDeBR1ZGiyzpS9I2IFAWAb7mU9EtQREnf40W/RJMQwCA3wJLWVAIDdCTpXRnnCRGkANC8oIiqoIiOJf0uH/kCoH1PJVXO2CWlaGWvtJmlc6apAfyULyJFX4pIUQD4lo/RotOgiKoh/gFoEgIYKiJHMWSnkrZlnE8pBQA0Lyiic/mpQqL4gG7sSXrpjN06Y0lVaMEsnSdimhrAAxEpCgD39l7SH0ERTYYULfo1NAkBDHXTW0l6TSUwYPuSLso4Py/jfEI5AKBZQRHdBEW0lPSriOIDunIg6Z0zdkUEaTt7plk6Z5oawJ3qSNEFkaIAcC+X8pODh0ERrXfhD0STEMCQJZQAO+Cp/FQhEVwA0IKgiLZBER1K+lNE8QFdeS5p64w9phTNm6VzpqkB/EsdKbqSjxR9JSJFAeBbbuWHVX6pY0U3u/SHo0kIYMib3UpME2I37El6Wcb5toxzIrgAoAVBEa0kTUQUH9CVfUlvnLEbZ+yEcjS+d7qZpfOP09SXY/vzcx848A9n7NQZey4fKfpcRIoCwLdcy39cOgmKaDHUOwe/hyYhgKFLxBQAdseBpHdlnK84yACGKwtTfn4Hoo4gPZb0m4jiA7pyJD9VmFCK5s3S+XaWzqca3zQ1H+Jh1L6IFL2QT7QBuoddTwAAIABJREFUAHzdpaTf6/sGV0ER3ezyH5YmIYChb3IrSSsqgR3zXFJVxjkRXMAwcRA5MHVczKGkF1QD6MSepFNn7NYZO6UcreyjmKYGRoBIUQC4ty8jRc/H8gdvukl4w78tAC1Yia//sXv2JL0p43xTxvmEcoD3LaBZ9VRhIukXjTCKD+iJA0kXztiVM5ap7IbVEaRMUwM7iEhRALi3UUSK3qXpJuGWf2O9w5ft2MnNraQllcCOOpK0LeM8oRTgfQtoXlBEVVBEU0l/iEhzoCvPJVXO2AWlaGU/tZml84mYpgYGr44U3YpIUQD4nlFFit6FuNHx4WtM7OrG9lxE5WB37Uk6LeN8W8b5lHIAQPOCIlrLR/G9phpAZ+8/r5yxG2fshHK0sqdKxDQ1MDh1pGjijL2RjxQ9oCoA8E2vJf06tkjRu9AkBLBLFuKLf+y2A0kXZZyvyzjnow8AaFgdQbqQj+J7T0WAThxJ+uCMTShF82bpvJql86mYpgZ6r44UXctHip6KSFEA+JZr+cSE/6sjRUlk+gRNQgC7tKG9kXRMJTACzyRVZZwvKAUANC8ook1QRIf1xpJDc6Abp87Yyhk7pRSt7K3WYpoa6KUvIkWfUREA+KZLSX/UkaLJmCNF70KTEMCubWY3ks6oBEZgT9KrMs43ZZxPKAcANC8ookT+jm+i+IBu7Eu6cMaeO2NJVWh+b3UzS+cLMU0NdI5IUQB4kE8jRdeU4240CQHs4mZ2ySYWI3Ik6UMZ5wkRpADQvKCIqqCIppJ+F1OFQFeeSqqcsUtK0cr+ajNL50xTAx1wxh4SKQoA90Kk6A+iSQhgV03ZwGJkTiVtyzifUgoAaF59yf1EJBgAXdmT9NIZu3HGHlKO5s3SeSKmqYFW1JGiG0nvRKQoANyFSNGf9B9KAGBHN7A3dbNkI760w3jsS7oo4/ytpEV9TycAoCH1BnRZf+G/FtFfQBeOJL1zxp5J4mCo+X1WJWlaxvmxpFX9/jkEE/720Hd1jPJS0mJAP1sA0JXXktZBEW0oxc9hkhDALm9gt/ULNjA2TyVVZZzz7x/oBhMtIxMU0TYookNJf4okA6ArzyVtnbHHlKKVvdZ5/bwbyjT1hL819NUnkaL/lU+IoUEIAF93Kx8p+ksdKbqhJD+PJiGAXd+8riX9QSUwQnuSXpZxvi3jnIYF0C7uBx2poIhW8ofmb6kG0Il9SW+csefO2AnlaHyvdVPfB/+ruBMeeDAiRQHg3t7LR4o+qSNFK0ryeJpuEnI5ZP9waIUxbl7X8l/2A2N0IOldGeerMs55Buwm3reAHgmKqAqK6FjSb5KuqQjQiafyU4WkKrSz39rO0jnT1MA9OGOfOGMTZ2wl6ZV8ZDIA4OteS/otKKLDoIjWlKMZjTYJT65i7gLoH6ZJMNaN66p+sABj9VzStr4/BruF9y2gh+rom0P5OBwA7duT9NIZu3XGTilHa3uuiZimBv7FGTshUhQA7oVI0ZYRNwpgTJvWhYZzZwbQhH1Jb8o4Py/jfEI5AKBZQRHdBEWUyEfxXVIRoBMHki6csStnLKkKze+5bmbpnGlqoOaMPa4jRT+ISFEAuAuRoh2hSQhgbJvWpbijEHgqP1WYUAoAaF5QRNugiKb1OwhRfEA3nkuqnLGkKrSz79qIaWqMVB0puqwjRd+ISFEAuMtbESnaKZqEAMa4YV2LRiGwJ+m0jPNtGedTygEAzas3vRMRgQ50+f7zxhm7ccZOKEfj+66bWTpPxDQ1RuKTSNFK0ksRKQoA33Irn/b2S1BEx0SKdosmIYCxbljX8hE4fM2PsTuQdFHG+aqMcyK4AKBhdQTpQkTxAV06kvTBGZtQilb2XttZOp+KaWrsqK9Eiu5RFQD4quv6fWASFNGSSNF+oEkIYMyb1Y2kqXzmNTB2zyVVZZwvKAUANC8ook1QRBMRxQd06dQZWzljp5Silf3XWkxTY0cQKQoAD/IxUnQSFNE6KKIbStIfNAkBjH2jupVvFL6lGoD2JL0q43xTxvmEcgBA84IiSiT9IqL4gK7sS7pwxq6dsaQqNL//upml84WYpsZA1ZGiKxEpCgDfQ6ToQNAkBMBG1W9UjyX9STUASXUEVxnnCaUAgOYFRVQFRTSV9LuI4gO68kxS5YxdUopW9mCbWTqfyE9Tt7HuHVJ1/Axn7NQZey4fKfpcRIoCwLcQKTowNAkB4J+N6krSryJ+FPjotIzzqozzKaUAHoSfGfyQoIjO5aP4zqgG0Ik9SS+dsRtnLE2ldvZgiXwDr+lpaqZE8WB1pOiijhS9kPSUqgDAN12KSNFBokkIAJ9vUrezdH4o7gcCPtqXdFHG+XkZ5xyu9BMv3sAOCYroJiiipXwUHx8uAd04kvTOGZsQQdrKHqyapfOpmKZGT3wRKfpKRIoCwLfcyt81/EtQRFMiRYepjSYhd2v0y4QSAPfaqCZiqhD41FNJVRnnRHD1zMlVvKUKwO4JimgTFNGhfBw6h+ZAN04lbZ2xU0rRyh6MaWp0ikhRALi363qfMgmKaEGk6LD9z19//dXob5CF6Ub+Kzz0xMlV/D9UAbi/uimSsEEA/nYpaTlL5zSneiIL07+oQr9+Rk6u4illwGNxxk4krUTMGdClt5K4V6e9PdihpLWkg8d6NtfTisDXnrOLes/PxCAAfOd5KmlVX5OAHUHcKAB8R31X4WF9MACgjuAq4zwhghQAmhcUURUU0bF8FN81FQE68VR+qpBUhXb2YB+vgWCaGo2oI0UTZ+yNiBQFgLt8GSlKg3DH0CQEgPttUqtZOj+Wvx+IwznAO5W0LeP8mFIAQPPqDTl3JwPd2ZP00hm7dcYeUo5W9mF8sIlHVUeKruUjRU9FYhAAfAuRoiNB3OgIETcK/Jx6cmpZbygAeG/lI0h5aewAcaO9Q9woGlc3KFbstYBOnUlKgiK6oRSt7MOO63XvRya+iBvlubmo9/EHVAMA7n5mikjRUWGSEAAeaJbOb2bpPJH0a/3gBFBHcNV3eAIAGhYU0TYooqmI4gO69FxS5YwlVaGdfRjT1HiQr0SK0iAEgG97LelXIkXHhyYhAPz4JnVbf436hzicA6Q6gquM820Z51PK0SoiuICRCopoJWnCOgB0+v7zxhm7ccZOKEfjezA+2MR3ESkKAPd2Lf/xzf/VkaJbSjI+xI2OEHGjwOOrI0hXkp5RDeBvZ5KSWTongqsFWZj+TAQXHhdxo+iEM3Yqac06AHTmVj6eK6EUre3DlpIS3d0Eel+/kzIVsfvPwYWkhTiHBIDv7lklrYMiWlMK0CQcIZqEQKOb1Kk4nAM+dStpwaFMO7Iw5c7Ufrg+uYonlAFdccYmrANAt88BSYugiDaUopU92Lc+2HwtaT1L5/w97PYz7+P774J9OAB812v5D5qYGMTfaBKOEE1CoJWNaiIO54BPXco3CytK0bwsTA/lD8t4B+N9CyNVxx6uWQeATr2WtAyKiFSFdvZgU/mpwo18c5D3zt1+zh3KNwdJ8wGAu13X+4IV7yT4mjaahGse2P3CoRXQ2iZ1Ig7ngC+9qO+RQQuyML1PBBd438IOq6PXVqwDQGdu5RuFa0oBPNpzbcE+GwC+i0hR3EsbTcJETNP0za8nVzEjxUBLyjg/lm8WcjgHeNfyU4UbStG8OoKUO1NbRpMQfVJHsSWSnlMNoDOX8hGkFaUAfug5RqQoANzPa/nm4IZS4D5oEo7TbydXMYsE0KL6noxEHM4BX764LmfpnLiLFmRhOhV3praGJiH6yBk7lf9o4IBqAJ15IeK+gPs+t4gUBYD7ua3f89d8kISHokk4TjQJgY7U92RwOAd8/iK7nKXzNaVoB+9m7aBJiD5zxibyh66kHADduJafKmRfDnz9OXVcP6eIFAWAu72X//hoTSnwo2gSjhNNQqBjZZxzTxjwuUv5ZiFx2C3IwnQi7kxtFE1C9J0zdiL/4dJTqgF05q18s5CpQvBc8pGiC/nmIMkXAHA3IkXxaGgSjhNNQqAHyjifiMM54EsvJK2IIG1HFqbcmdoQmoQYinpaYyUOZIGu3EpKgiJaUQqM9Dk0kf+A9ph3UgD47jsDkaJ4dDQJx4kmIdAjZZxzOAd87lrSYpbOeVa1IAtT7kxtAE1CDEk9vcE6AHTrvfxUIakKGMuzh0hRALj/OwKRomgMTcJxokkI9EwZ5xzOAf/2Vj6CtKIUzcvCdCruTH00NAkxRM7YQ/npYtYBoDtn8pOFpCpgF58zRIoCwP29lW8ObigFmkSTcJxoEgI9Vcb5ofwhPV9TAt6tpGSWzongakn97rYUcU8/hSYhhswZy93JQLeuJS2DIjqnFNiR58pERIoCwH3cyn+0tyJSFG2hSThONAmBnivjnMM54HPv5SNIieBqQRamE3Fn6s/69eQq5t8rBque9lizDgCdupSPIK0oBQb6LJnKf3zGswQA7nYtfw54TpoA2kaTcJxoEgIDUEeQrtlQAZ85k58s5KW5BVmYcmcq71sYufqAd806AHTmVn6aIKEUGMhz44n8xGDCswMAvotIUXTuf1v4PfiCGgB+wCyd38zS+bGk3+S/KALg7+2syjg/phTNO7mKzyUdyjdnAYxQfWBxKOkF1QA6sSfp1Bm7rZv2QC85YyfO2JWkStIr0SAEgG+5rffYvwRFdEyDEF1rY5JwKumCUvfKi5OrOKEMwLCUcZ6IyWzgU5fyEaQVpWheFqbcmfowTBJi59R3Sq1ZB4BOvZa/r5BUBfTl2TAVkaIAcB9EiqKXaBKOE01CYKDKOJ+IwzngU7eSVrN0znOtJVmYcmfq/dAkxM5yxi7kPxpgHQC6e/9ZBkW0phTo6DlApCgA3N+lpISJQfQVTcJxokkIDFwZ5wtxOAd86r2k5Syd89LdgixMuTP1+2gSYqfVB8QrSc+oBtCZS0mLoIgqSoGW1v6JpIX85CB7UQD4tltJ5/LNQZ7T6DWahONEkxDYAWWcczgH/Ntr+WYh0R0tqN/z1uIL8q+hSYhRqGPmVpIOqAbQ3R4/KCL2+Gh6rV+w9wSA77qu343XRIpiKGgSjnQDQZMQ2B1lnE/F4RzwqVv5RuGaUrQjC9NE3Jn6JZqEGBVnbCImS4AuXctPFfLswWOu7Yt6bWevCQB3u5S0CoronFJgaGgSjhNNQmAHlXGeiMM54MuX9MUsnVeUonlZmE7EnamfokmI0alj6FgHgG69lW8WMr2An1nLF+wtAeC7iBTFTqBJOE40CYEdVcb5RBzOAf967klaEUHajixMF+LOVIkmIUbMGXtcv49wuAx041b+wHJFKfCAtXsqIkUB4D6IFMVO+V9KAAC7Y5bOq1k6n0r6vX5pAeBjMLd1NC8adnIVryVN5O+HHLMn/GvAWNUxSxNJZ1QD6MSepJfO2I0z9pBy4C7O2IUzdiv/gT8NQgD4tktJvwdFNAmKaEWDELuCScJxYpIQGIEyzp9ISiQ9pxrA397KR5DyMt+C+j1wrHem8r4FSKobFGtxnxXQpTP5yULef/BxbX4iHydKpCgAfN9r+fsGt5QCu6iNSUJeQgGgA7N0fjNL50tJv0p6T0UASdJTSVUZ50tK0byTq3hzchUfyke+3lIRYHyCItoGRXQo6U/WAaAzzyVt6yhgjJgz9tAZu5b0X/m0DRqEAPB11/U+9v+CIlrQIMQua3ySUJKyMP2LUvfK65OreEEZgHGpmyIJG0Hgb+/lpwp52W9BFqYTjevOVCYJgS84Yyfy08VPqQbQmbeSlkERVZRiVOvvQv6+Qe6uB4C7XcrfNbimFBgLmoQjXexOruIpZQDGp44gXYvDOeBTZ5ISIkjbkYXpsXyTYH/H/6g0CYFvcMZO6/eRfaoBdOJWPjaN59Rur7UfI0UXrLcA8F1EimK0/pcSAMB41BGkx5J+k49OAFBHcJVxTgRXC06u4nNJh/LNWQAjFBTRpl4HXlANoBN7kk6dsdu6aY8d8pVIURqEAPB1RIoCYpJwrJgkBPBxqnBZbxwBeG8lLWfpvKIUzcvC9FB+muhgB/94TBIC9+CMPZSfLiYCD+jOmaQkKCJSFYa9ni5EpCgA3AeRosAnaBKOdCGkSQjgozLOOZwDPncraTVL5wmlaEcWprt4ZypNQuAB6sPtlbg7Gejy/WcRFNE5pRjU2vlEvjG4FBODAPA9r+WbgxtKAfyDJuE40SQE8C9lnC/E4RzwqffyU4VsIFqQhemkXoN25c5UmoTAA9WH3StJz6gG0N15gXyzsKIUvV4vJ/IfWB2zfwOAO93W75drnm3A19EkHOlLP01CAF9TR5ByOAd87kxSMkvnRHC1IAvTqXwE6dC/hqdJCPyg+o60XVgHgEE/x4Ii4jnWv/XxWH5qkBQYALjbe0krIkWB76NJOE40CQHcqYzzqTicAz51Kz9VyAajBVmY7sKdqTQJgZ/kjE3qtYApGaAb1/JThRtK0elaSKQoANwfkaLAA9EkHCeahADupYzzRBzOAZ89QyUtZum8ohTNy8J0yHemvj65ihf8LQI/p47UW4upGaDTZ5qkZVBEpCq0v/4lIlIUAL6HSFHgJ9AkHCeahADurYzziTicA770YpbOE8rQjixMFxrenam8bwGPqI7YW4uDcqArt5KSoIhWlKLx9W4q3xxk/wUAdyNSFHgEbTUJKxGJ0CccWgF4sDLOOZwDPnctP1W4oRTNqyNIh3RnKu9bwCOrI/cSSc+pBtDd801+qnBLKR59fTuu1zjOzwDgbm/lm4PsxYFH0FaTcCO+gOqT25Or+AllAPBQZZxzOAd8fYOymKVzIrhakIXpVMO4M5UmIdCQespmJemAagCdeSF/QMv7z8+tZxP56x0W4mNMALjLbb0PXBEpCjwumoQjdXIV/w9VAPCjyjifisM54MsNSzJL50RwtSQL00T9vjOVJiHQMGfsUv7jJQ7WgW5cy08VnlOKB69f0/o95inVAIDvPmsSSed8mAI0gybhSNEkBPAYyjjncA743KWk5SydE8HVgixMJ+rvnak0CYEW1FM4K3HQDnTprXyzsKIUd65XRIoCwMOeLUSKAi2gSThSNAkBPJYyzificA740gtJKyJI25GFaR/vTKVJCLTIGXtcv49w8A5041ZSEhQRqQr/Xp8mIlIUAO77LFmLSFGgVTQJR4omIYDHVsY5h3PA567lpwqJ4GpBFqZ9uzOVJiHQsnpKZynplGoAnXkvaREU0ehTFepI0YWkZ/yzAIDv7p0TESkKdIIm4UjRJATQhDLOOZwD/u2tfLOwohTNy8J0qn7cmUqTEOiIM/awXgfYgwLdOZOfLBzdYa8zdlHvibi/HQC+v1cmUhToGE3CkaJJCKBJZZxzOAd87lZSMkvnRHC1JAvTru9MpUkIdMwZy93JQPfvP4ugiHY+VaGOFF3INwdZcwDg7mfDufyHJBXlALpHk3CkaBICaEMZ5xzOAZ97Lz9VuKEUzcvCdKLu7kylSQj0QB1BuhJxf0CXLuWbhdUOrjFTESkKAPdxXb+TrYkUBfqFJuHIX9JPruKKUgBoUh1BulY3h/RAX53JTxayOWpBFqZd3Jl6e3IVP6H6QD/UB/lrcXcy0JVb+Ui5ZEfWlIWIFAWA+7is1/9zSgH0E01CvDi5ihPKAKBpZZxPxeEc8KlbSYtZOmez1IIsTFu/M5XkBqB/nLGJuDsZ6NK1/FThZoDrx0REigLAffe6RIoCA9FWk5CN2ABe0k+u4g2lANC0Ms55JgCfu5RvFrJ5akEWpq3dmUqTEOin+qB/LT5kBbr0WtJyCJFzzthD+cYgkaIAcDciRYEBokmIf72kn1zFLOIAGlXG+UQczgGfupW0mqXzhFK0IwvTxu9MpUkI9FsdF7gSE0FAl+8/y6CI1j1eIxbsWQDgu4gUBQaMJiG++pJ+chWvKQWAppVxvhCHc8CnruWnCjeUonl1BOlKDU0G0CQE+s8Z+0T+g4HnVAPozKV8s3DbkzVhKd8c5JoEALjbaxEpCgweTULc+ZJ+chVvKQWAJpVxzuEc8PXN1nKWzpnub0EWplM1cGcqTUJgOJyxU/mPBg6oBtCZF/KTKDcdrAFEigLA/VzXe6cVkaLAbqBJiHu9pBNBCqBpZZxPxeEc8Klb+UbhmlK047HfWWkSAsPjjE3kGwWkHADduJa0CIpo09LP/EJEigLAfVzK3zXI/hTYMTQJce+X9JOreEMpADStjPNEHM4BX27GlrN0znR/C7IwneiR7kylSQgMkzN2Iv/h0lOqAXTmrXwEadXAzziRogBwf6/lpwbZjwI7iiYhHvySfnIVV5QCQJPKOJ/okQ7pgR3yQtKKCNJ2ZGG60E/emUqTEBg2Z+xxvQ7QRAC6cSt/19XqkX6mJ/LXHByLDxIB4C5EigIjQpMQP/SSfnIVrygFgKaVcc7hHPDvzdpils43lKJ5WZj+1J2pNAmB4asnjn54HQDwKN7LR5Buf/Dn+Fh+cpAPEAHgbkSKAiNEkxA/9ZJ+chUzag6gUWWcczgH/Ntb+QjSilI0LwvTqX7sztT/415nYDc4Yw/rdYAmA9CdM/nJwpt7/Mw+kY8TXYoPDgHge4gUBUaMJiEe5SWdAzAATSvj/FA+7uKAagCS6un+WTpnur8l9TvtQ+5M/Y07nYHd4oxdyn+8RFQh0I1r+bsKz7/xMzoRkaIAcN/95Ep+crCiHMB4tdUkXEp6Sbl3+qGyOLmKzykFgKaVcc7hHPC59/IRpHz12YIsTCf1ZvrpPf7vNAmBHVRPKK3vuQ4AaMalfARpVf9cEikKAPffP66IFAXwUVtNwqmkC8o9jpf0k6u4ohQAmlRHkK7F4RzwqTP5yUKm+1uQhel97kylSQjsMGfstH4fIcoQ6MZt/TN4zM8hAHzXa/mpQfYnAD7zv5QAj+hI0raO4gKAxszS+c0snR9L+k0+cgiAv7dzW8b5MaVoXp2gcCjfnAUwQvUh26GkF1QD6MRe/f5DgxAAvu62fk/5JSiiBQ1CAF/DJCGaci0/VcjDB0Cj6qnCpbj7FvjUpXwEaUUpmpeF6bfuTGWSEBiJ+h60tYg6BAAA3SNSFMC90SRE015LWp5cxUSfAWhUGeeH8tF/HM4B3q2k1SydJ5SiHfU93In+uTOVJiEwMs7YRf0+wt3JAACgbUSKAngwmoRow618o3BNKQA0rYzzhTicAz71XtJyls7ZKLYgC9NP70ylSQiMkDP2Sf0u8oxqAACAhn28n3UVFFFFOQA8FE1CtOlSPoKUBxaARtURpBzOAZ97Ld8sZLq/BfX7b8V7DzBezthp/T5yQDUAAMAju5ZPMTkPiog9HoAf1laTcCLpA+VG7YWkFRGkAJpWxvlU/ou6faoBSKqn+2fpfE0pAKAdzthE/v5kUg4AAMDPeis/NbihFAAeQytNQknKwvQvyo1PXMtPFfJAA9C4Ms4TcTgHfOpS0mKWzitKAQDNc8ZO5D9c4u5kAADwUESKAmhMm03CSkxy4N/eyjcLmSoE0KgyzificA740gtJKyJIAaAdzthj+QhS9sYAAOB7iBQF0Lg2m4QbcTCLr7uVlJxcxStKAaBpZZwfyzcLmSoE/tl4LmbpfEMpAKB5ztgn8gd+z6kGAAD4CiJFAbSmzSbhik0QvuO9/FThllIAaFIZ5xzOAV/fiC6YKgSAdjhjD+U/XDqgGgAAjN6tpHNJCZGiANrUZpNwIekVJcc9nMlPFnJICaBRZZxP5SO/OJwD/tmYJrN0znQ/ALTEGbuU/3iJlAMAAMbnWv5cYk2kKIAutNkknEj6QMnxgAfk8uQqPqcUAJpWxjmHc8DnLiUtZ+mc6X4AaIEzdiJ/QPiUagAAMJo91yooIs4+AXSqtSahJGVhWokL2vHwB+bi5CquKAWAJpVxPhGHc8CXzuQnC/miFQBa4IydykeQsm8GAGD3ECkKoHfabhKuJT2j7PiBB+jq5CpOKAWAppVxfizfLORwDvCu5acK+cIVAFrgjH0iaSnplGoAALAzeyoiRQH0UttNwoW4lxA/7r18BOmGUgBoUhnnHM4B//ZWvllYUQoAaJ4z9lD+QPGIagAAMEhEigLovbabhE8k/Zey4yedSUpOrmK+vAHQqDLOOZwDPncraTVL5wmlAEb7bHwi6XiWztdUox3O2EX9PsLdyQAADMNrESkKYCBabRJKUham5+K+J/y8W/mpwjWlANC0Ms6XkhJxOAd89F5+qnBDKYDRPAsP5afsP14fcS1pwTrQjjqCdCWu7wAAoK+u5e8VXhEpCmBIumgSHkt6Q+nxSC4lLU6u4opSAGhSPTnB4RzwuTNJySydswkGdvf5t5C00Len6l/LfzTAOtACZ+xU/gCSu5MBAOiHS/m7BteUAsAQtd4klKQsTG/ENAYe14uTqzihDACaVsb5VBzOAZ+6lW8QsCkGdudZ9/Fu3sU9n3e38h8MrKheO5yxSf13xL4aAIBuvJafGtxSCgBD1lWTMJF0SvnxyK7lpwo3lAJA08o451kGfO5SPnqwohTAYJ9tX0aK/sg6sJylcw7LWuCMnch/uMTdyQAAtINIUQA7p6sm4UTSB8qPhryVbxbysAbQqDLOJ+JwDvjSi1k6TygDMKjn2UJ3R4o+eB2QtCKCtB3O2OP6fYSpQgAAmkGkKICd1UmTUJKyMF2Le53QnFtJyclVTOQRgMbVh6srcTgHfHQtP1W4oRRAb59dD40U/ZF1YDlL5+dUu3nO2CeSEknPqQYAAI+GSFEAO6/LJuFETBOieZeSlidXMQ9zAI2qD1sTcTgHfLmpXjJNBPTqeTWpn1fHaufjlrf1OlBR/eY5Y6fyHy4dUA0AAH7Ibf0sXQdFxPsLgJ3XWZNQYpoQrTqTnyzkkBJAo8o4n4rDOeDLTXYyS+dM9wPdPp+O5ScHj1gHdp8zdinfDCblAACA+3kvPzW4phQAxqTrJuETSRUbF7TkWn6qkMgjAI0r4zyRP4zlGQebbeR5AAAgAElEQVR4l/LTREz3A+09i57Ix4ku1Uyk6EO9l48iZh1ogTN2Iv/h0lOqAQDAN72WnxrcUAoAY9Rpk1CSsjBNJJ3yV4EWvZVvFlaUAkCT6kg3DueAz72QtCKCFGj8+ZOovUjRhzqTnyxkHWiBM/a4fh/ZpxoAAEgiUhQA/tZ5k1CSsjDdilg2dPAycHIVJ5QCQNPqiDcO54B/XMtPFTLdDzz+86arSNEfeR9fsA60wxn7pP63wQe6AIAxI1IUAL7QlybhoaR3/HWgo5eD5clVvKEUAJpUR74lkp5TDeBvb+WbhRWlAH7q+bJQfyJFH+pSvlnIOtACZ+yh/IdLR1QDADAiRIoCwDf0okkoETuKzp1JSk6uYiKPADSqjPNDSWsxQQ98dCsfO7iiFMCDnicT+cbgQsO///ZWPoY44W+2Hc7YpfzHS9ydDADY5X3GWn5ysKIcAPB1vWkSSsSOohcvD4uTq5jIIwCNK+Ocwzngc+/lpwo3lAK48/kxlW8O7uJ9t9fyU4WsAy2oI0hXkp5RDQDAjr1PJJLOgyJiGAAAvqNvTcKJpK04MEW3LuWbhRWlANCkOiJurd086AV+1Jn8ZCEbeuDz58Wx/IHXGO63fS3/0QDrQAucsdP6fYS7kwEAQ/ZWfmpwQykA4P561SSUpCxMjyW94a8GPfDi5CpOKAOAptVTIWtxOAd8dCs/TcR0P8b+fJhodyJFf2QdWM7S+Zp/Ce1wxibiChAAwPDeF9YiUhQAfljvmoQS9xOiV67lpwo3lAJAk+opkSXPP+Azl/LNQjb8GNszYardjRT9kXVgOUvnW0rRPGfsRP6w9YhqAAB6jEhRAHgkvWwSSlIWpmtxNwL647Wk5clVzIsHgEbVUyNrcTgHfHQraTVL5wmlwAieAQuNJ1L0oV7UawHv4y1wxi7k7yvkKhAAQJ8QKQoAj6y3TUJJysJ0K+mAvyb0xK2k5OQqXlEKAE2rD4o5nAP+cS0/VciBAHZtvZ/Ix4kuWfNZB/rEGftEvmn9nGoAADp0K+lcUkKkKAA8vr43CZ9I2ohGIfrlUn6qkMgjAI2qI0hXYrIe+NRr+ehBpokw9DV+Kt8cZI1/uLf1OlBRiuY5Y6f1+wj7cgBAm67r58+aSFEAaE6vm4QSjUL02gtJKyJIATStPkhei/g54KNb+QbBmlJggGv6Qn5qkP3Nz68DySydk/LREmdsIiZeAQDNu5SPFD2nFADQvN43CSUahei1a/mpQl5cADSujPNEHM4Bn7qUbxYy3Y++r98TESnalPfyEaSsAy1wxk7kpzqeUg0AwCMiUhQAOjKIJqH0d6NwzWYEPfVWvlnIiwyARtUHzWtJR1QD+NsLSSsiSNHDNXsqIkXbciY/Wcg60AJn7LF8s5CUAwDAzyBSFAA6Npgm4UdZmK7ZZKOnbiUlJ1cxkUcAGlfG+bF8s5CJFMC7lp8m2lAK9GCNXohI0a7WgeUsnZPy0QJn7BNJiaTnVAMA8EBEigJATwyuSShJWZguJL3irw899V7S4uQqJvIIQKPKOOdwDvi3t/JNgopSoIM1eSk/Och0Vbcu5T8aYB1ogTP2UH4KhJQDAMD3vBaRogDQK4NsEkpSFqZT+axqJijQV2fyk4XEJQBoVBnnh/JThUysAN6tfOwg0/1oaw1eirSTPq4Dq1k6TyhFO5yxS/mPl9ijAwA+dV3vV1dEigJA/wy2SSj9fU/hufhiEf11Kz9VSHwCgMaVcc7hHPC59/LTREz3o4k1dyE/NchepP/rwJIo4nbUEaRrSU+pBgCM3qX8XYNrSgEA/TXoJuFHWZhyKIohvBgtTq7iilIAaFIZ5xP5yC8O54B/nMlPFvLlMn52jSVSdLheyzcLWQda4IydyjcL+TkB8P/s3T1yG9e2NuC37gQOZ2COwGLYmZkwQiAmTJiYgaNOhG8EgmYAJx0hgJJOkFCBIyRkxlDCCMgZmDP4gt3ykY9lWz8E2MB+niqVz6lbt469DGx073evtanzN3f+42+/OKgHsAcOIiRMkr7pjoeXECd5GavHJPPLu3amFMC2rdvVeUpYaHMOioeUgEB3P9+yphopejjP49Oz7mKpFLuxmSxmSV6rBEAVz9rLGCkKsHcOJiT8qG+6q5RNUV2FjPnB6eryrr1RCmCbPul4sTkH/3WbMoL0Xin4gnX0KkaKWgf4LpvJ4jgO9AIc8m+qkaIAe+zgQsLkj7sK53HSl3F7m2R6edc6YQVs1dABM4/NOfjoMcn8rLuYKQWfWTOPUoLBaXRjH7o3w1rgeXwHNpPFVRzoBTgURooCHIiDDAk/6pvuNO5BYNweU4LCpVIA27ZuV+7whT/7kDJ68EYpGO50nSU5t05W5SGlq9A6sAObycKBXoD99Tis4csff/vlXjkADsNBh4Qf9U03SzkJ7GWfsbpNCQudwAK2auiQsTkHf/Y2JSzUTVTnung+vCvotq7bu5Sw0DqwA5vJ4nR4HnmhGgCj9yGla3CpFACHp4qQMEn6pjuOexAYvzdJ5kaQAtu2blen0W0Pn3pMCQqXSlHFGmikKH+3DszOuou5UuzGZrKYxYFegLF6m9I1eKMUAIermpDwo77pzlM2Rb2EMFYPSa4u71oPYcDWrdvVLMlrlYA/3KZ0E90rxUGueccxUpQvWwemZ92FKR87sJksjuNAL8BYGCkKUJnqQsIk6ZvuaNgceOUjwIi9SwkLdRUCWzVsmi9jcw4+9SbJ3OjBg1nnTofnf+scX+PXlM5C68AObCaL85SNad29ALtnpChApaoMCT/qm+4kZVPUPQiM1WOS2eVda+QRsHXrdnWVsjmnuwaKh5Suwhul2Ms17SilY3AWoQPftw5Mz7qLa6XYvs1k4UAvwG4ZKQpQuapDwo/6ppsOLyI2RRmrDyldhUYeAVs1bKrPYnMOPvUuJSzUTbQf69hxyh1nV57veeJ1YGoU8W5sJgsHegG253FYY+dGigIgJBz0TXec0j3xUjUYsV9TOgttUgJbNYzmm8fmHHz0mDJ2UHf/uNetqed5trwOzM+6i5lS7MZmsnCgF+DpPAxr6vWPv/1iXwmAJELCv+ibzj0I7MND3fTyrjXyCNi6dbuapWy625yD4jalm0h3/zjWKCNFeQ4fhnXgRim2bxhBuowDAADf6l1K16DfLQD+Qkj4GX3THaVsiL5WDUbsNmUE6b1SANs0jO7TbQ9/9mtKZ6FT2M+3LhkpinWgIpvJ4jQlLHQgAODfGSkKwBcREv6DvulOUjZFf1INRvzQN7+8a2dKAWzbul3ptoc/e0jpJtLdv7t16DRGijK+5/HpWXexVIrtG7oKHegF+Ofn01mMFAXgCwkJv0DfdO5BYOw+pIwgvVEKYJuG0X6zJK9UA/7wLiUkuFeKra09VynBgHtSGavbJFfWgd3YTBYO9AL89XnUSFEAvpqQ8AsNI0jnSX5WDUbsbUpY6LQYsFXrdmVzDv7sMcn8rLuYKcWTrTPHKeNE3YvKPnljHdidzWRxNTyPWCOAWp8/r5PMjBQF4FsJCb9S33SncQ8C439InF7etUulALZt3a5028OffUjpKrxRim9eV05TwkGH89hXDyldhdaBHRhGkDrQC9T2OzNPsjRSFIDvJST8Rn3TzeIeBMbtNsnV5V17rxTANg0jSJdxRxh86tcks7PuwsbNl68lVzFSlMPyNuXQgHVgBzaTxWkc6AUO223KSFH3YQPwZISE36FvuuPhJcSoNcbsTZK5EaTAtg3dP8vYnIOPHlMCgqVS/O26cRwjRTn8dWB21l3MlWI3NpPFzJoCHNjviJGiAGyNkPAJ9E13nrIp6iWEsXpI6Sq8UQpgm4auwml028OnblNGD94rxR9rxWmMFKW+dWB61l28V4rt20wWx3GgF9hvRooCsBNCwifSN91Ryp1Mr1SDEXuXEhZ6wAS2augOWsbmHHzqzVl3Mat8bbhKCQetDVS7DiSZG0G6G5vJwoFeYN8YKQrATgkJn1jfdKcpJ33cpcJYPSaZXd61Rh4BWzcEAvPYnIOPHlK6Cm8qWgc+dhhfxThi+LgOTM+6CxvAO7CZLBzoBfbB2xgpCsAzEBJuSd90s7gHgXG7TTK9vGuNPAK2aggI5jFWED71NiUk+P2Av/snw/Ow7z583rthHbhXiu3bTBYnKV2FDvQCY/EwrEtzI0UBeC5Cwi3qm+44ZVP0pWowYr+mdBZ6IAW2ariDTLc9/NdjktlZdzE/sO/6VYwUharXgTHbTBbTlM5CB3qB53KbctfgUikAeG5Cwh3om+48ZVPUeCXG6iGlq9DII2Dr1u1qFt328KnblG6i93v8vTZSFL7Ph2EduFGK7dtMFsdxoBfYvbcpXYMmOgEwGkLCHembzj0I7IN3KWHhvVIA27RuV8cpo3V0GsF/vUky36cRpEaKwpP7NaWz0JSPHdhMFg70AttmpCgAoyYk3LG+6U6GlxCboozVY5L55V07Uwpg29bt6nx4adZVCMVDSjfR9R58d6eeaWFrz+NXY18HDsVmsvjYCf1aNYAnZKQoAHtBSPhM+qZzDwJj9yGlq/BGKYBtGsYUzqLbHj71LiUsvB/Zd/UqZTNd1w1s321KWHivFNu3mSwc6AWegpGiAOwVIeEzGkaQLuMeBMbt1ySzy7vWWAxgq4axhcskL1QDkpRuotlZdzF/5u/mcUqQfx4H3OA5vDnrLmbKsBubycKBXuBbntnmKZ2D98oBwD4REo5A33SnKZuiTmQz5gfe6eVdu1QKYNvW7crmHPzZh5Ruovc7/i4aKQrj8TCsAzdKsX3DCNJ53LcK/Psz2txIUQD2mZBwRPqmm8U9CIzbbZKry7v2XimAbRo6l+bRbQ+f+jWls/D3LX73jBSFcXubMorYlI8d2EwWp3GgF/j8Wrz88bdfbpQCgH0nJByZvumOh5cQJ7YZszeXd+1MGYBtW7er09icg089pnQTXT/xd+04RorCPq0D07PuYqkUu7GZLGZxoBesvUaKAnCAhIQj1Tfd1fDwYZOGsXpI6Sq8UQpgm4bOpmlszsGnblPCwvvv/H6dDt8vXbuwn+vAdNejiGu1mSyO40Av1MhIUQAOmpBwxPqmcw8C++Btyn2FRh4BW7VuVyfD76LNOSgek8zPuovZV36XjlI6BmfRpQuH4M2wFnge34HNZHGeEhY60AuHzUhRAKogJNwDfdOdpmyKvlANRuoxyezyrp0rBbBt63Y1TQk3bM5B8ZDSVXjzL9+d45SuwSvfH6hzHeBpbCaLo+FZ5JVqwEF5TDkEMDdSFIBaCAn3SN90s5SNHZs6jNVtSlehkUfAVg2dULrt4c/epowe/P1/vi+nMVIUavFuWAfulWL7NpPFaRzohUPwkBL8X//42y+6sgGoipBwz/RNdxz3IDB+b5LMjSAFtm0IP5YxMhE+ekwJBK9jpCjUvA7MzroLUz52ZDNZzOJAL+yjdyldgzdKAUCthIR7qm+685QTizZ9GKuHlK7Ca6UAtm3drmZJXqsEAPzhQ8oIUlM+dmAzWRwP7+i6tmHcjBQFgE8ICfdY33TuQWAfvEsJCz18A1s13Le2jG57APjUrymdhaZ87MBmsnCgF8bJSFEA+Awh4QHom+4kZVPUPQiM1WOS2eVda+QRsHXrdnU+/C4a+QUA/30evzrrLkz52IHNZOFAL4yHkaIA8A+EhAekb7rp8CJiU5Sx+pDSVejhHNiqdbuyOQcAf3WbEhbeK8X2bSaLk5SuQlMOYLceU+5nnhkpCgD/TEh4YIYRpMu4B4Fx+zWls9CID2Cr1u3qNGVzTrc9ABSPSeZn3cVMKXZjM1k40Au78TA8+y+NFAWALyMkPFB9052mhIXuQWCsHpNcXd61Rh4BW7duV7Mk09icA4CPPiSZnnUXN0qxfcMI0mUc6IVtuE0ZKWp/AQC+kpDwgA1dhdMkr1WDkT/MX13etfdKAWzTul0dp5wstjkHAP/1NiUs1HWzA5vJ4jQO9MJTMFIUAJ6AkLACfdO5B4F98Obyrp0pA7Bt63Z1Pvwu2pwDgOIxJShcKsVubCaLWRzohW9hpCgAPCEhYUX6prsaHqSMWmPMD/tXl3ftjVIA27RuV0cpdwO9Ug0ASFKCwnPjR3dnM1kcp3QVOtAL/85IUQDYAiFhZYYRpPMkP6sGI/Y2yfTyrnUqENiqdbvSbQ9A7R5SDs5cGzn6PDaTxVUc6IV/2h8wUhQAtkRIWKm+6U7jHgTG7TElKFwqBbBt63Y1TdkgtTkHQC3eJZnrHByHzWThQC/810PKntXcSFEA2C4hYeX6ppslmcamKON1mxIWvlcKYJuGEaTLJC9VA4AD9Tj81s3Puot75RifzWRxmhIWvlANKn3/X/742y9LpQCA3RASkr7pjuMeBMbvTZK5EaTAtq3b1Wl02wNwWB5SgqelkaL7YTNZzOJAL/V4m9I16HAwAOyYkJA/9E13nrIp6iWEsXpIcnV5194oBbBNQ1fhNMlr1QBgj92mdA1eK8X+2UwWx3Ggl8N+v1/GSFEAeFZCQv6kb7qjlDuZXqkGI/YuZQTpvVJQ2Rp9nOQqybURvLuxblfHsTkHwH55THKdZGak6GHYTBbnKZ2gphxwCIwUBYARERLyWX3TnaRsiroHgbF6TDK7vGvnSkEFa/JpygGOT4MqI3h3aN2urlI253TbAzBWRooesM1k4UAv+85IUQAYISEh/6hvuunwImJTlLH6kDKC1IsGh7b+HiU5H9bgvzs1bgTvDg0jSOdJflYNAEbESNGKbCYLB3rZJ4/D8/Pyx99+uVcOABgfISH/ahhvN0/yUjUYsV9TOgudmuYQ1txpyljRLz2gYQTvDq3b1enwu2hzDoDn9DZGilZrM1k40MuYfUjpGlwqBQCMm5CQL9Y3nXsQGLvHlK4qp6jZxzX2NCUcfPkdn38jeHdo3a5mw78zm3MA7MpDShfZ3EhRhhGkyzjQy3i8TekavFEKANgPQkK+yjD+bprktWowYrcpYeG9UrAHa+q/jRT9Wkbw7tC6XR2nbM79pBoAbPn5dnnWXSyVgv+1mSxOh+cRB3p5DkaKAsAeExLyTfqmOxkeAm2KMuoXlcu7dqYUjHANPc7XjxT9Wkbw7tC6XZ2nbM7pKgTgKb1N6Rp0+Id/NHQVOtDLLhkpCgAHQEjId+mbzj0I7MOLy/Tyrr1RCkawZp6mBIM/7+h/0gjeHVq3q6PhN/GVagDwHYwU5ZttJgsHetk2I0UB4IAICfluw7i8eXa36Q3f+iIz1VXFM62TVyknu18809+CEbw7tG5XJymbuy9UA4Cv/L02UpQnsZksrob3dAd6eQpGigLAgRIS8mSGDpll3IPAuF9sppd37VIp2MGaeJzSNTjNODZnjODdsXW70m0PwJcwUpStGEaQOtDL93gYnmevf/ztFwduAeAACQl5cn3TzeIeBMZNVxXbXANPs9uRol/LCN4dWrer45TNuZeqAcAn/ujKOesuPJOyVZvJ4jQO9PJ13qXcN+idAQAOnJCQrRg6aJZxDwLj9ials8qJSJ5i3bvK844U/VpG8O7Qul2dxuYcAOWwztxIUZ7DZrKYZTxTLhifx+F5dW6kKADUQ0jIVvVNdz48ZHoJYaweUroKb5SCb1jjjjOukaLfshFgBO+OrNvV0fBZ0W0PUJ+3KV2Dnjl5VpvJ4jgO9PLXd+JZjBQFgCoJCdm6vumOhgfOV6rBiL1LCQu9FPEl69pJSthzKPe7GMG7Q+t2dZIyYs7mHMBhM1KU0dpMFg70YqQoACAkZHeGe7rm2Z9RfNTnMcns8q6dKwV/s45dpXQOHmq4YwTvDq3b1dXwu2hzDuCwGCnKXthMFg701vnOu4yRogDAQEjIzvVNN4t7EBi3DyldVe+VgqEbepoSDtZwn5wRvDs0jCCd53C6UgFqZqQoe2kzWZykBEcO9B72M/48ydJIUQDgU0JCnsVwj9c8yUvVYMR+Teks9BJV5zp1aCNFv5YRvDu0blenKZtzP6gGwF75oyvHSFH23WaymKZ0FjrQezhuU7oGr5UCAPgcISHPqm+685Sw0KYoY/WQZHp513qpqmddusphjxT9Gkbw7ti6Xc2SvFYJgL14RpwluT7rLhyo4WBsJovjONB7CM/w10lmRooCAP9GSMizG0b5zeIeBMbtXUpY6CXrcNehmkaKfq3b4fNvBO8OrNvVcUpXiqAaYJzPhHMjRTl0m8nCgd79Y6QoAPDVhISMxjDabx6boozXY5L55V07U4qDWXeOUw4pnMdYpS9hBO8OrdvVeUpY6LMJ8PzPgMsYKUplNpPFx4N0phyMm5GiAMA3ExIyOn3TuQeBsfuQ0lV1oxR7u86cp2x4OJTw9Yzg3aF1u9JtD/C8v3mzGClK5TaThQO942OkKADwJISEjNIw+m8Z9yAwbrqq9m9duUoJB41N+n5G8O7Qul2dpmzOvVANgJ38xhkpCv9jM1k40Pv8HjJ0NhspCgA8BSEho9Y33enwAGxDn7F6TAlKlkox2nXkOEaKbvPzbwTvDq3blc05gO39pl0nmRkpCn9vGEE6T/KzauzUbcpdg947AYAnJSRkL/RNN4t7EBj/S9uVrqpRrRtGiu6OEbw7tG5Xxymbc7rtAb7fw7CmLo0UhS+3mSxO40DvLrxN6Rp8rxQAwDYICdkbQzfQMjb8Gbc3uqqedZ04SukYnMWGxXMwgneH1u3qPGVj22cd4OvdpowUdccufIfNZDGLA71PzUhRAGBnhITsnb7prlI2RY1aY8wvdVe6qna6LhyndA1eWRue3ePw+bfpugPrdnWUEoq/Ug2AL/qNMlIUnthmsjiOA71PwUhRAGDnhITspaFbyD0IjN27lLDE6c/trQWnKeGgsYvjYwTvDq3b1cnwu2hzDuCvjBSFHdhMFqYcfBsjRQGAZyMkZK8NAcE8yQvVYKQeU8YvzpXiyb73RoruFyN4d2jdrqbDd0NHLYCRovAshhGkU88j//qeOI+RogDAMxMSchD6pvMSwtjdJple3rVOh3779/w4RoruKyN4d2gYQbqMDlugXm9jpCg8q81kcTQ8u3tP/7MPKcHgUikAgDEQEnIwhgBhGaPWGLdfUzoLnRb98u/2aYwUPRRvU8Jyn/8dWLer0+F3UcctUIOHYc2bGykK4yEs/NNz8PLH33658akAAMZESMjB6ZvOPQiM3UNKUGL01T9/l69ipOghMoJ3x9btapbktUoAB+o25a7BpVLAeA1hYW1XBnwcKbr88bdf7n0KAIAxEhJykIY7y2ZJXqkGI/YuJSz0wvjf7+5xyjhRY4kOnxG8O7RuV8fRbQ8clrcpXYN+R2DPbCaL0xz2pBAjRQGAvSEk5KD1TXeSsin6QjUYKV1V+WOk6FWSn30kqvMmydwI0t1Yt6urlBPtQnhgHxkpCgdk6C68Gv4cwju7kaIAwN4RElKFvummKZ2FNkUZqw8pXVU3lX03r1JOEQvy6/aQ5Kq2z/9zWbero5SgUCgP7AsjReHAbSaL45RxpFd79m7wLsl1kusff/vF4QUAYO8ICanGMIJ0mcMdacJh+DWls/D3A/4uHsdIUT7PCN4dWrer05SwUEgPjNXblHDwRimgHp/cX3g6/BnTHYaPSW4iGAQADoSQkOoMYw2XqeeydPbPY0pX1fUBfveuonuJf//8Vz+Cd5fW7WoWoT0wrt+BeUo4eK8cwNBleJrkZPizyzuWH5K8TwkGb3787Rf3oAIAB0VISJWGrsJpkteqwYjdpoSF93v+fbtKCQd/8q+Ur/Bh+PzbiNmBdbs6TjlA43sKPOe6PzdSFPgSm8niJMlRSnh4lBIe5hufZR5TgsCkhIG/D//9vU5BAODQCQmpWt90JyknlW2KMmZvLu/a2Z59tz4G8VfRtcv3OfgRvGOyblfnw++i7y2wK0aKAlsxjC09+dz/7cfffrHmAABESAhJ/uh0mseoNcbrIaWr6mbk36WTlHDQSFGe0kGO4B2rdbs6SjJL8ko1gC2u60aKAgAAPDMhIQyGzqd5hBuM29sk07F1VRkpyo4cxAjefbFuVycpI0hfqAbwRIwUBQAAGBEhIfyPvulOUzZFjVpjrB5Txi/On/m7YqQoz/X5n+/bCN59tm5X05TOQt32wLd6lxIO3igFAADAeAgJ4W/0TTdLCUBsijJWtyldhe93/N0wUpQx+DB8/m+UYvvW7eo4pdv+pWoAX+gx5eDd3EhRAACAcRISwj/om+44ZXPDCEXG7E1KZ9XvW/4+nKeEg74PjMkoR/AeqnW7Oo1ue+CfPaR0H1+fdRfWZgAAgBETEsIXGMKRZXQVMl4PKXe13TzxZ/8oZZzoNEIBxusxJShcKsX2rdvVx1HDr1UD+ISRogAAAHtGSAhfaAhLZkleqQYj9i4lLLn/zs/78fB5P49wnP1xmxKW3yvF9q3b1UnKCFLdxVAvI0UBAAD2mJAQvtJwH9syyQvVYKQek8wu79r5N3y+jRTlEOxkBC/Ful1dpYSFDhRAPYwUBQAAOABCQvhGfdNNUzZHbIoyVh9Suqre/8tn2UhRDtFWRvDyecMI0nmSn1UDDtptkpmRogAAAIdBSAjfYRjJOE/yUjUYsV9TOgt//8zndxYjRTls71LCQp0uO7BuV6cp3fYOHMDheExynRIO3isHAADA4RASwhMYRjTOY1OU8XpMCUqu+6Y7TekaFG5T0+f/m0bw8m3W7WqW5LVKwF57GJ5vl0aKAgAAHCYhITyRYWTjNDZFGbfH6BqkXl80gpensW5Xxyldhe44hf1ym2R+1l1cKwUAAMBhExLCE+ub7iTl1LVNUYBx+uwIXrZj3a7OU8JCBxRgvIwUBQAAqJCQELakb7ppyn1vNkUBxuchyfTyrtUpswPrdnU0/Ca+Ug0Y3VpopCgAAEClhISwRcMI0nmSn1UDYJTepYSF90qxfet2dTr8Lr5QDXhWRooCAAAgJCBdVlMAABYASURBVIRd6JvuNGXU2g+qATA6j0nml3ftTCl2Y92udNvD83ibEg66mxUAAAAhIexS33SzJK9VAmCUPqR0Fd4oxfat29VxSlfhS9WArXpIOaw2N1IUAACATwkJYcf6pjtO2aj5STUARunXJLPLu9Zm+g6s29V5Slio2x6e1m3KXYNLpQAAAOBzhITwTPqmO08JC41aAxifx5SuwqVSbN+6XR0lmUa3PTwFI0UBAAD4IkJCeEZ90x2l3Mn0SjUARuk2ydXlXXuvFNu3blcnKV2Fuu3h6xgpCgAAwFcTEsII9E13mrIp+kI1AEbpzeVdO1OG3Vi3q2nKIRrd9vDPjBQFAADgmwkJYUT6ppuljFuzKQowPg8pXYU3SrF9wwjSZZKXqgF/8TYlHLQeAQAA8M2EhDAyfdMdp3QV2hQFGKe3KfcVGum3A+t2dZoSFv6gGlTucXhGXJ51F/fKAQAAwPcSEsJI9U13nrIRZFMUYHwek8wu79q5UuzGul3NkrxWCSr0IeWuwaVSAAAA8JSEhDBifdMdpdzJ9Eo1AEbpNqWr8L1SbN+6XR2ndBX+pBpUwEhRAAAAtkpICHugb7qTlK5Cm6IA4/T/dBXuzrpdXQ2/i+7w5dAYKQoAAMDOCAlhj/RNN03pLLQpCjAOD8O6fO2Owt1atyvd9hwSI0UBAADYOSEh7JlhBOkyyUvVAHg275LML+/aG6V4Xut2dZrSefVCNdjXtcRIUQAAAJ6DkBD2VN90pylh4Q+qAbATj8O6O7+8a++VY1zW7WqWZBrd9uzRWmKkKAAAAM9JSAh7rm+6WZLXKgGwNUaK7ol1uzpOCV/c4cuo15Kz7sJaAgAAwLMTEsIB6JvuODZFAZ6akaJ7at2uzlNGkOq2ZzRriZGiAAAAjI2QEA5I33RXKZuiRq0BfBsjRQ/Eul0dpXRtvVINnnMtMVIUAACAsRISwoHpm+4oJSj8WTUAvtjDsHYujRQ9LOt2dZIS1rxQDXa0lsxipCgAAAB7QEgIB6pvutOUDW+bogB/7zala/BaKQ7bul1NU8Ib3fZsbS056y6sJQAAAOwNISEcuL7pZkmmsSkK8NFjkuskMyNF6zKMIF0meakaPOVaYqQoAAAA+0hICBXom+44ZVP0J9UAKmakKEmSdbs6HX4Xf1ANvmctMVIUAACAfSYkhIr0TXeesqllUxSoiZGi/MXQVThN8lo1+Jq1xEhRAAAADoWQECrTN91Ryp1Mr1QDOGBGivJF1u3qJOUAjW57/nEtMVIUAACAQyMkhEr1TXeSMmrthWoAB+RhWNvmRoryNdbt6iolLHSHLx/XEiNFAQAAOGhCQqhc33TTlM5Cm6LAPrtNuWtwqRR8q2EE6TzJz6pR91py1l1YSwAAADh4QkLg4wjSZZKXqgHsmbcpXYPvlYKnsm5Xp8Pvojt8K1tLzroLawkAAADVEBICf+ib7jQ2RYHxM1KUnVi3q1mSaXTbH/xaYqQoAAAANRISAn8ydBVOk7xWDWBkjBRl59bt6jglSPpJNQ5rLTFSFAAAgNoJCYHP6pvuJOVeJpuiwHMzUpRnt25X5ylhoa7CPV9LjBQFAACAQkgI/KO+6a5SwkKbosAuPQ5rz/Lyrr1XDsZg3a6OksySvFKNvWGkKAAAAPwNISHwr4YRpPMkP6sGsGUfUroGl0rBWK3b1enwu/hCNca9lhgpCgAAAH9PSAh8sb7pTlNO4/+gGsATe5vSNXijFOyLdbuapnQW6rYf2Vpy1l1YSwAAAOBfCAmBr9Y33SzJNDZFge9jpCh7b92ujofP8UvVeP615Ky7sJYAAADAFxISAt+kb7rjlK7Cn1QD+EpGinJw1u3qPCWo0m2/47XESFEAAAD4NkJC4Lv0TXeeEhbqKgT+jZGiHLR1uzpK6bR/rRrbX0uMFAUAAIDvIyQEvlvfdEcpdzK9Ug3gfzymHCSYGylKLdbt6iSlq1C3/dOuJUaKAgAAwBMSEgJPpm+6k5Qw4IVqQPUeUg4PXF/etb8rBzVat6vp8D3Qbf+da4mRogAAAPD0hITAk+ubzqYo1OtdStfgjVLAHyNIl0leqsbXryVGigIAAMD2CAmBreib7jhlLJhNUTh8RorCv1i3q9Phe/KDavz7WmKkKAAAAGyfkBDYqr7pzlPCQpuicHiMFIWvtG5XsyTT6Lb/7Fpy1l1YSwAAAGBHhITA1vVNd5SyIfpaNeAgGCkK32Hdro5TQrGfrSVGigIAAMBzERICO9M33UlKV+FPqgF75zHJdZKZkaLwNIawsLbR3EaKAgAAwEgICYGd65tumtJBYdQajN9DSoixNFIUtqOSzkIjRQEAAGBkhITAsxhGkM5j1BqM1W3KSNFrpYDdGMLCaZKrHM5BmtuUrkFrCQAAAIyMkBB4Vn3TnaaMHftBNeDZGSkKI7BuV0dJzlMCwxf7vJYYKQoAAADjJSQERqFvulmS1yoBz8JIURipobvwavgz9gM1H1IO/iyNFAUAAIDxExICo9E33XHK5uJPqgE7YaQo7JEhMDwf/ozlt/JDStfgUtcgAAAA7BchITA6fdOdp4SF/1EN2Iq3MVIU9t66XZ0m+fjnZEe/mx+SvE9yk+RGMAgAAAD7S0gIjFLfdEdJZkleqQY8iYeU8H1upCgcpqHT8DglNPz4n4/ybfcafkjye0ogeD/89b0xogAAAHA4hITAqPVNd5pyV9oL1YBvcpty1+BSKaBu63Z1lNJx+HeEgAAAAFARISGwF/qmmyWZxghS+FJvU7oG3ysFAAAAAPC/hITA3uib7jilq/ClasBnGSkKAAAAAHwRISGwd/qmO08JC39QDUhipCgAAAAA8JWEhMBe6pvuKMksySvVoGJGigIAAAAA30RICOy1vulOUroKf1INKvE4fOaXl3ftvXIAAAAAAN9CSAgchL7ppimdhf9RDQ7Uh5SuwaVSAAAAAADfS0gIHIxhBOkyyUvV4IC8TekavFEKAAAAAOCpCAmBg9M33WlKWPiDarCnjBQFAAAAALZKSAgcrL7pZkleqwR7xEhRAAAAAGAnhITAQeub7jilq/An1WDE3qWEgzdKAQAAAADsgpAQqELfdFcp4xv/oxqMxGNKgD03UhQAAAAA2DUhIVCNvumOUoLCn1WDZ/SQZJbk+vKu/V05AAAAAIDnICQEqtM33WlKWPhCNdghI0UBAAAAgNEQEgLV6ptulmQaI0jZHiNFAQAAAIBREhICVeub7jglxPlJNXhCRooCAAAAAKMmJARI0jfdecoI0h9Ug+9wm2RmpCgAAAAAMHZCQoBB33RHKd1fr1SDr/CY5DolHLxXDgAAAABgHwgJAf5H33QnKSNIX6gG/+Ahpft0aaQoAAAAALBvhIQAf6NvumlKZ+F/VINP3CaZX96110oBAAAAAOwrISHAPxhGkC6TvFSNqhkpCgAAAAAcFCEhwBfom+40JSz8QTWqYqQoAAAAAHCQhIQAX2joKpwmea0aB89IUQAAAADgoAkJAb5S33QnKd1lP6nGwXmbEg6+VwoAAAAA4JAJCQG+Ud90Vylh4X9UY689pIySnRspCgAAAADUQkgI8B2GEaTzJD+rxt65TblrcKkUAAAAAEBthIQAT6BvutOUbrQfVGP0jBQFAAAAAKonJAR4Qn3TzZJMYwTp2BgpCgAAAADwCSEhwBPrm+44JZD6STWenZGiAAAAAACfISQE2JK+6c5TwkJdhbv3NiUcvFEKAAAAAIC/EhICbFHfdEdJZkleqcbWPSaZp4SD98oBAAAAAPD3hIQAO9A33UlKV+EL1XhyH1LuGlwqBQAAAADAlxESAuxQ33TTlM5CI0i/n5GiAAAAAADfSEgIsGN90x2njMV8qRpfzUhRAAAAAIAnICQEeCZ9052nBF4/qMa/ekgyM1IUAAAAAOBpCAkBnlHfdEdJpkleq8ZnvUu5b/BGKQAAAAAAno6QEGAE+qY7Sekq/Ek18phkmRIO3isHAAAAAMDTExICjEjfdNMksyT/qfAf/2H4Z7++vGt/92kAAAAAANgeISHAyAwjSOdJfq7kH9lIUQAAAACAHRMSAozUgY8gNVIUAAAAAOAZCQkBRq5vutOUMZyHEBYaKQoAAAAAMAJCQoA9MYSFV9nPMaS3KV2D1/5NAgAAAAA8PyEhwJ7pm+44JSy8SvLDiP9WH5NcJ5kZKQoAAAAAMC5CQoA91jfdeZKPf/4zkr+tDyl3KRopCgAAAAAwUkJCgAMxBIanw58XO/6fv03pGrzWNQgAAAAAMH5CQoAD1DfdUUpYePLJX5+q0/AxyfskNx//qmMQAAAAAGC/CAkBKjEEhydJjoc/Gf770T/8v90Mf73/+EenIAAAAADA/hMSAgAAAAAAQGX+TwkAAAAAAACgLkJCAAAAAAAAqIyQEAAAAAAAACojJAQAAAAAAIDKCAkBAAAAAACgMkJCAAAAAAAAqIyQEAAAAAAAACojJAQAAAAAAIDKCAkBAAAAAACgMkJCAAAAAAAAqIyQEAAAAAAAACojJAQAAAAAAIDKCAkBAAAAAACgMkJCAAAAAAAAqIyQEAAAAAAAACojJAQAAAAAAIDKCAkBAAAAAACgMkJCAAAAAAAAqIyQEAAAAAAAACojJAQAAAAAAIDKCAkBAAAAAACgMkJCAAAAAAAAqIyQEAAAAAAAACojJAQAAAAAAIDKCAkBAAAAAACgMkJCAAAAAAAAqIyQEAAAAAAAACojJAQAAAAAAIDKCAkBAAAAAACgMkJCAAAAAAAAqIyQEAAAAAAAACojJAQAAAAAAIDKCAkBAAAAAACgMkJCAAAAAAAAqIyQEAAAAAAAACojJAQAAAAAAIDKCAkBAAAAAACgMkJCAAAAAAAAqIyQEAAAAAAAACojJAQAAAAAAIDKCAkBAAAAAACgMkJCAAAAAAAAqIyQEAAAAAAAACojJAQAAAAAAIDKCAkBAAAAAACgMkJCAAAAAAAAqIyQEAAAAAAAACojJAQAAAAAAIDKCAkBAAAAAACgMkJCAAAAAAAAqIyQEAAAAAAAACojJAQAAAAAAIDKCAkBAAAAAACgMkJCAAAAAAAAqIyQEAAAAAAAACojJAQAAAAAAIDKCAkBAAAAAACgMkJCAAAAAAAAqIyQEAAAAAAAACojJAQAAAAAAIDKCAkBAAAAAACgMkJCAAAAAAAAqIyQEAAAAAAAACojJAQAAAAAAIDKCAkBAAAAAACgMkJCAAAAAAAAqIyQEAAAAAAAACojJAQAAAAAAIDKCAkBAAAAAACgMkJCAAAAAAAAqIyQEAAAAAAAACojJAQAAAAAAIDKCAkBAAAAAACgMkJCAAAAAAAAqIyQEAAAAAAAACojJAQAAAAAAIDKCAkBAAAAAACgMkJCAAAAAAAAqIyQEAAAAAAAACojJAQAAAAAAIDKCAkBAAAAAACgMkJCAAAAAAAAqIyQEAAAAAAAACojJAQAAAAAAIDKCAkBAAAAAACgMkJCAAAAAAAAqIyQEAAAAAAAACojJAQAAAAAAIDKCAkBAAAAAACgMkJCAAAAAAAAqIyQEAAAAAAAACojJAQAAAAAAIDKCAkBAAAAAACgMkJCAAAAAAAAqIyQEAAAAAAAACojJAQAAAAAAIDKCAkBAAAAAACgMkJCAAAAAAAAqIyQEAAAAAAAACojJAQAAAAAAIDKCAkBAAAAAACgMkJCAAAAAAAAqIyQEAAAAAAAACojJAQAAAAAAIDKCAkBAAAAAACgMkJCAAAAAAAAqIyQEAAAAAAAACojJAQAAAAAAIDKCAkBAAAAAACgMkJCAAAAAAAAqIyQEAAAAAAAACojJAQAAAAAAIDKCAkBAAAAAACgMkJCAAAAAAAAqIyQEAAAAAAAACojJAQAAAAAAIDKCAkBAAAAAACgMkJCAAAAAAAAqIyQEAAAAAAAACojJAQAAAAAAIDKCAkBAAAAAACgMkJCAAAAAAAAqIyQEAAAAAAAACojJAQAAAAAAIDKCAkBAAAAAACgMkJCAAAAAAAAqIyQEAAAAAAAACojJAQAAAAAAIDKCAkBAAAAAACgMkJCAAAAAAAAqIyQEAAAAAAAACojJAQAAAAAAIDKCAkBAAAAAACgMkJCAAAAAAAAqIyQEAAAAAAAACojJAQAAAAAAIDKCAkBAAAAAACgMkJCAAAAAAAAqIyQEAAAAAAAACojJAQAAAAAAIDKCAkBAAAAAACgMkJCAAAAAAAAqIyQEAAAAAAAACojJAQAAAAAAIDKCAkBAAAAAACgMkJCAAAAAAAAqIyQEAAAAAAAACojJAQAAAAAAIDKCAkBAAAAAACgMkJCAAAAAAAAqIyQEAAAAAAAACojJAQAAAAAAIDKCAkBAAAAAACgMkJCAAAAAAAAqIyQEAAAAAAAACojJAQAAAAAAIDKCAkBAAAAAACgMkJCAAAAAAAAqIyQEAAAAAAAACojJAQAAAAAAIDKCAkBAAAAAACgMkJCAAAAAAAAqIyQEAAAAAAAACojJAQAAAAAAIDKCAkBAAAAAACgMkJCAAAAAAAAqIyQEAAAAAAAACojJAQAAAAAAIDKCAkBAAAAAACgMkJCAAAAAAAAqIyQEAAAAAAAACojJAQAAAAAAIDKCAkBAAAAAACgMkJCAAAAAAAAqIyQEAAAAAAAACojJAQAAAAAAIDKCAkBAAAAAACgMkJCAAAAAAAAqIyQEAAAAAAAACojJAQAAAAAAIDKCAkBAAAAAACgMkJCAAAAAAAAqIyQEAAAAAAAACojJAQAAAAAAIDKCAkBAAAAAACgMkJCAAAAAAAAqIyQEAAAAAAAACojJAQAAAAAAIDKCAkBAAAAAACgMkJCAAAAAAAAqIyQEAAAAAAAACojJAQAAAAAAIDKCAkBAAAAAACgMkJCAAAAAAAAqIyQEAAAAAAAACojJAQAAAAAAIDKCAkBAAAAAACgMkJCAAAAAAAAqIyQEAAAAAAAACojJAQAAAAAAIDKCAkBAAAAAACgMkJCAAAAAAAAqIyQEAAAAAAAACojJAQAAAAAAIDKCAkBAAAAAACgMkJCAAAAAAAAqIyQEAAAAAAAACojJAQAAAAAAIDKCAkBAAAAAACgMkJCAAAAAAAAqIyQEACA/9+eHQgAAAAACPK3HuTSCAAAAIAZSQgAAAAAAAAzkhAAAAAAAABmJCEAAAAAAADMSEIAAAAAAACYkYQAAAAAAAAwIwkBAAAAAABgRhICAAAAAADAjCQEAAAAAACAGUkIAAAAAAAAM5IQAAAAAAAAZiQhAAAAAAAAzEhCAAAAAAAAmJGEAAAAAAAAMCMJAQAAAAAAYEYSAgAAAAAAwIwkBAAAAAAAgBlJCAAAAAAAADOSEAAAAAAAAGYkIQAAAAAAAMxIQgAAAAAAAJiRhAAAAAAAADAjCQEAAAAAAGBGEgIAAAAAAMCMJAQAAAAAAIAZSQgAAAAAAAAzkhAAAAAAAABmJCEAAAAAAADMSEIAAAAAAACYkYQAAAAAAAAwIwkBAAAAAABgRhICAAAAAADATDWBi8DIXxlYAAAAAElFTkSuQmCC;" vertex="1" parent="1">
          <mxGeometry x="409" y="100" width="51" height="51" as="geometry" />
        </mxCell>
        <mxCell id="n6Bw79Q_llv1yDib1XSp-21" value="" style="endArrow=classic;html=1;rounded=0;exitX=1;exitY=0.5;exitDx=0;exitDy=0;entryX=0;entryY=0.5;entryDx=0;entryDy=0;" edge="1" parent="1" source="IZiWBFXiaey_TxyXL_8r-5" target="n6Bw79Q_llv1yDib1XSp-19">
          <mxGeometry width="50" height="50" relative="1" as="geometry">
            <mxPoint x="60" y="400" as="sourcePoint" />
            <mxPoint x="110" y="350" as="targetPoint" />
          </mxGeometry>
        </mxCell>
        <mxCell id="n6Bw79Q_llv1yDib1XSp-22" value="" style="endArrow=classic;html=1;rounded=0;exitX=0.176;exitY=1;exitDx=0;exitDy=0;exitPerimeter=0;strokeColor=#FF0303;entryX=0;entryY=0.5;entryDx=0;entryDy=0;" edge="1" parent="1" source="n6Bw79Q_llv1yDib1XSp-19" target="IZiWBFXiaey_TxyXL_8r-1">
          <mxGeometry width="50" height="50" relative="1" as="geometry">
            <mxPoint x="250" y="300" as="sourcePoint" />
            <mxPoint x="300" y="250" as="targetPoint" />
            <Array as="points">
              <mxPoint x="460" y="274" />
            </Array>
          </mxGeometry>
        </mxCell>
      </root>
    </mxGraphModel>
  </diagram>
</mxfile>
